<svg version="1.1" id="Layer_1" xmlns="http://www.w3.org/2000/svg" xmlns:xlink="http://www.w3.org/1999/xlink" x="0px" y="0px"
	 width="100%" viewBox="0 0 500 500" enable-background="new 0 0 500 500" xml:space="preserve">
<path fill="#FFFFFF" opacity="1.000000" stroke="none" 
	d="
M271.000000,501.000000 
	C180.666687,501.000000 90.833374,501.000000 1.000048,501.000000 
	C1.000032,334.333405 1.000032,167.666794 1.000016,1.000138 
	C167.666565,1.000092 334.333130,1.000092 500.999756,1.000046 
	C500.999847,167.666519 500.999847,334.333038 500.999939,500.999786 
	C424.500000,501.000000 348.000000,501.000000 271.000000,501.000000 
M392.761993,189.887390 
	C392.544312,189.774185 392.326660,189.660995 392.184875,188.811432 
	C394.320221,184.484497 396.455536,180.157562 398.590881,175.830627 
	C398.123352,175.313217 397.655823,174.795822 397.188293,174.278427 
	C392.207672,176.529205 387.190125,178.704254 382.279144,181.098022 
	C381.355164,181.548401 380.856293,182.870972 380.161255,183.791077 
	C381.440399,183.854279 382.884155,184.330414 383.966156,183.899063 
	C386.633209,182.835846 389.134094,181.355942 392.414032,179.679565 
	C390.683136,186.076431 386.149292,190.471512 385.693329,197.193405 
	C392.456940,194.283966 398.244049,191.794571 404.031189,189.305176 
	C399.896851,186.434158 396.809662,189.695251 392.761993,189.887390 
M165.266937,114.432274 
	C166.203812,115.125175 167.069992,115.958603 168.095825,116.474724 
	C169.324554,117.092911 170.689590,117.440208 171.995590,117.904823 
	C172.328644,116.536072 172.805527,115.182938 172.956329,113.794395 
	C173.124069,112.249992 172.994751,110.673317 172.994751,107.957680 
	C175.810455,110.489456 177.656235,112.335434 179.699081,113.928780 
	C181.426987,115.276482 183.383072,116.331635 185.238174,117.516258 
	C185.618454,116.923141 185.998749,116.330025 186.379028,115.736908 
	C181.303314,111.224281 176.227585,106.711662 171.151871,102.199036 
	C170.625290,102.473213 170.098709,102.747383 169.572128,103.021561 
	C169.355865,106.012100 169.139603,109.002632 168.866943,112.773224 
	C166.777512,111.381317 165.094376,110.118546 163.272293,109.105766 
	C162.357010,108.597023 160.521698,108.039017 160.263916,108.380386 
	C159.567749,109.302269 159.012878,110.803368 159.256668,111.881371 
	C160.355927,116.742004 161.698425,121.551155 163.098648,126.336311 
	C163.304016,127.038147 164.291534,127.511124 164.917145,128.089996 
	C165.353333,127.916451 165.789505,127.742912 166.225693,127.569374 
	C165.304916,123.532104 164.384155,119.494843 164.090073,114.850960 
	C164.274323,114.626068 164.458557,114.401169 165.266937,114.432274 
M229.479660,206.131012 
	C229.305328,206.093719 229.130981,206.056427 229.200745,205.323914 
	C232.753220,198.900314 232.477417,193.699417 228.320618,188.726059 
	C224.741089,184.443436 218.097305,182.299438 212.932571,184.362885 
	C203.617279,188.084595 202.258041,195.739502 204.145493,204.623993 
	C196.136566,203.138107 186.302582,210.217331 185.693451,218.447464 
	C178.071533,214.602692 170.928177,210.758270 163.533463,207.481003 
	C162.124802,206.856674 158.749130,207.926224 158.033035,209.199570 
	C157.195770,210.688416 157.476349,214.117355 158.657257,215.217117 
	C166.386139,222.414993 175.691116,226.103104 186.349274,225.761246 
	C189.055954,225.674438 191.740417,224.894577 195.302872,224.284546 
	C193.260880,236.298035 191.884064,247.501495 189.375381,258.445496 
	C185.400955,275.783936 180.588440,292.928680 176.301239,310.197784 
	C174.784851,316.305878 176.740280,320.066895 181.505402,321.441589 
	C185.966217,322.728516 189.966965,320.080841 191.521500,314.251740 
	C195.120224,300.757294 198.504974,287.205688 201.949402,273.670349 
	C202.728088,270.610443 203.212891,267.461853 204.199600,264.475220 
	C204.633499,263.161865 205.985519,262.151825 206.920654,261.004059 
	C207.626312,262.277557 208.541702,263.484955 208.970306,264.845734 
	C209.304337,265.906311 209.031586,267.157623 209.030731,268.324158 
	C209.019897,283.156036 208.954712,297.988190 209.028366,312.819641 
	C209.054428,318.066589 212.343826,321.866669 216.472076,321.881226 
	C220.737732,321.896271 224.425827,317.862671 224.617325,312.814514 
	C224.749924,309.319061 224.770798,305.816284 224.733505,302.317963 
	C224.474396,278.009674 223.968704,253.683350 228.971405,229.691605 
	C229.744049,225.986145 231.053619,222.392639 232.114868,218.747375 
	C232.877808,218.742096 233.640732,218.736816 234.403656,218.731537 
	C234.942337,221.020508 235.941650,223.307861 235.949646,225.598679 
	C236.048477,253.928909 236.002426,282.259644 235.995560,310.590271 
	C235.995239,311.923340 235.889374,313.270813 236.044083,314.586731 
	C236.509766,318.548035 240.001617,322.069000 243.598343,321.956482 
	C247.744507,321.826782 250.482361,319.617584 251.341843,315.502106 
	C251.711456,313.732361 251.730927,311.868256 251.734406,310.046692 
	C251.760544,296.381439 251.721451,282.716003 251.767395,269.050842 
	C251.772888,267.413635 252.166092,265.777740 252.379608,264.141235 
	C252.890793,264.140778 253.401978,264.140289 253.913162,264.139832 
	C254.127731,265.768066 254.520813,267.395477 254.528198,269.024658 
	C254.580338,280.523315 254.538422,292.022339 254.559753,303.521179 
	C254.566849,307.351044 254.369339,311.215912 254.810547,315.001190 
	C255.316040,319.338074 258.037598,321.898254 262.552429,321.956238 
	C266.502289,322.006958 269.576874,318.938690 270.015808,314.666382 
	C270.185425,313.015167 270.117523,311.337067 270.116760,309.671234 
	C270.103546,281.673920 270.056396,253.676544 270.118042,225.679413 
	C270.122955,223.448807 270.870270,221.219849 271.272552,218.990143 
	C271.791107,218.963272 272.309662,218.936417 272.828186,218.909561 
	C273.920380,220.672272 275.695679,222.326889 275.994507,224.215149 
	C278.019684,237.013260 280.398773,249.811127 281.359131,262.706207 
	C282.309937,275.472595 281.730713,288.353088 281.816376,301.183594 
	C281.845306,305.515961 281.720062,309.854431 281.911163,314.179230 
	C282.110748,318.696289 284.884064,321.158478 289.168762,321.699371 
	C292.835968,322.162262 296.476257,318.963531 297.072418,314.910645 
	C297.409668,312.618042 297.408661,310.263306 297.413422,307.936218 
	C297.442596,293.604309 297.376831,279.271790 297.521912,264.941284 
	C297.534943,263.653351 298.821259,262.378296 299.516235,261.097260 
	C300.299713,262.181061 301.433441,263.158051 301.802399,264.368225 
	C303.009583,268.327820 303.937347,272.372528 304.974487,276.384003 
	C308.261383,289.097015 311.441010,301.839661 314.938141,314.494568 
	C315.553314,316.720581 317.093781,319.647552 318.929962,320.343597 
	C321.368408,321.268036 325.347565,321.346832 327.136841,319.899719 
	C329.097778,318.313812 330.640869,314.276489 330.083588,311.826660 
	C326.544891,296.270782 322.044983,280.933411 318.512482,265.376282 
	C315.438934,251.840424 313.223114,238.109818 310.477478,223.672287 
	C312.918091,224.244034 314.161133,224.513916 315.393097,224.827148 
	C327.973724,228.025818 338.230743,222.967545 347.526062,215.337799 
	C348.715942,214.361099 349.097260,210.364914 348.148438,209.328995 
	C346.946747,208.017059 343.938751,207.804016 341.825317,208.062286 
	C340.197937,208.261169 338.759125,209.935150 337.218689,210.925537 
	C332.090179,214.222778 326.626404,216.318405 320.432648,215.805298 
	C319.173187,210.020309 310.859894,204.564301 302.030701,203.647614 
	C302.277954,202.523102 302.581879,201.432739 302.751740,200.321884 
	C304.092041,191.556396 297.230072,183.709518 288.378448,183.859497 
	C277.530029,184.043320 271.705750,194.604248 276.164581,205.825027 
	C276.164581,205.825027 275.930420,206.077103 275.083557,206.068054 
	C271.058044,205.381927 267.032532,204.695786 262.960938,203.949402 
	C262.960938,203.949402 262.916870,203.887695 262.815948,203.166916 
	C263.500122,202.228485 264.227539,201.318283 264.861145,200.346878 
	C268.117279,195.354828 267.968201,188.370010 264.538605,183.987976 
	C260.957428,179.412262 253.863312,177.051910 248.919937,178.791397 
	C242.469254,181.061264 238.356323,186.599579 239.028015,193.266251 
	C239.329086,196.254395 241.107422,199.093704 242.077850,202.613144 
	C242.093918,202.821823 242.110001,203.030487 241.377441,203.243652 
	C237.585678,204.244217 233.793930,205.244781 229.479660,206.131012 
M91.871552,262.463531 
	C94.558182,259.191742 99.144661,257.483398 100.741531,252.225388 
	C93.638840,252.580292 87.360741,252.893982 81.082634,253.207687 
	C84.238449,257.763550 89.002434,254.816360 93.341286,256.458160 
	C89.717659,259.738098 86.383759,262.651764 83.175346,265.697601 
	C81.149567,267.620728 81.390915,269.706757 84.333771,269.651154 
	C90.041710,269.543365 95.736443,268.736603 101.436653,268.219452 
	C101.445518,267.650513 101.454391,267.081573 101.463264,266.512634 
	C97.913574,262.839722 93.113045,267.558380 87.655998,264.738312 
	C89.233665,263.973328 90.280212,263.465881 91.871552,262.463531 
M388.735992,164.008911 
	C388.965363,157.073242 385.177460,152.506439 378.597870,151.785995 
	C373.314056,151.207443 368.895264,154.350204 368.020172,159.309174 
	C367.058563,164.758499 370.712311,170.113510 376.419495,171.619354 
	C381.535400,172.969177 385.801056,170.540726 388.735992,164.008911 
M397.498962,202.081650 
	C394.608215,203.036118 391.717438,203.990570 387.771515,205.293411 
	C392.977142,209.514297 396.896332,203.688873 400.999908,205.461746 
	C399.226929,210.779144 393.410645,213.761520 392.767517,220.235672 
	C399.712524,218.504181 405.816956,216.982254 411.921417,215.460327 
	C411.819092,214.738144 411.716736,214.015961 411.614410,213.293793 
	C407.547363,213.842316 403.480316,214.390839 399.002716,214.994751 
	C402.370667,210.206070 405.524323,205.722046 408.678009,201.238022 
	C408.307129,200.718430 407.936218,200.198837 407.565338,199.679245 
	C404.475769,200.427063 401.386169,201.174866 397.498962,202.081650 
M278.329590,104.077209 
	C278.955566,104.905701 279.581543,105.734192 280.207520,106.562683 
	C280.793976,105.696953 281.630859,104.905762 281.915314,103.950142 
	C282.527985,101.891869 283.053314,99.767784 283.256500,97.636513 
	C283.584900,94.191353 283.625031,90.718712 283.786896,87.257683 
	C283.211517,87.139687 282.636108,87.021690 282.060730,86.903687 
	C281.191315,89.255997 280.321899,91.608299 279.425385,94.033928 
	C276.808411,93.443970 274.432953,92.908463 271.882568,92.333511 
	C272.036926,90.766060 272.310364,89.452812 272.247437,88.155876 
	C272.198975,87.156639 271.727905,86.177902 271.444733,85.190056 
	C270.601898,85.962364 269.219757,86.609505 269.006592,87.527954 
	C267.893799,92.322540 267.013306,97.175720 266.235657,102.037895 
	C266.131165,102.691422 267.066254,103.511208 267.519958,104.254005 
	C268.078857,103.759758 268.925018,103.368042 269.144653,102.752693 
	C269.908234,100.613373 270.454529,98.396507 271.156830,95.954025 
	C274.065887,96.444572 276.588531,96.869949 279.305084,97.328026 
	C278.970703,99.702728 278.717102,101.503601 278.329590,104.077209 
M90.804138,294.640961 
	C94.956177,294.978302 96.421570,292.517822 96.718796,288.905182 
	C96.941956,286.192841 97.091789,283.474487 97.317596,280.114105 
	C103.292000,283.468750 99.507034,289.178223 102.052498,293.398499 
	C105.405746,290.439056 105.363022,286.986115 104.120316,283.863281 
	C103.104645,281.311005 101.394058,278.317596 99.146416,277.158264 
	C96.446320,275.765594 94.060539,277.921265 93.589195,281.084503 
	C93.297432,283.042542 93.680557,285.114502 93.290321,287.039978 
	C93.007095,288.437469 91.952927,289.678680 91.242508,290.989563 
	C90.269943,289.808990 88.823334,288.766693 88.429771,287.417267 
	C87.744774,285.068542 87.709465,282.530334 87.282448,279.117828 
	C83.262291,285.416290 84.679062,291.150879 90.804138,294.640961 
M404.830078,227.025726 
	C403.559692,227.337616 402.185669,227.440430 401.041626,228.007339 
	C399.003876,229.017105 395.667419,230.074371 395.431946,231.526520 
	C394.847382,235.131546 394.951111,239.231277 398.793762,241.840958 
	C399.131866,239.687561 398.494598,237.636093 398.682648,235.663315 
	C398.811523,234.311386 400.088867,233.068909 400.852783,231.777512 
	C401.889008,232.868790 403.327393,233.795395 403.858795,235.093384 
	C404.510681,236.685547 404.404236,238.588211 404.625610,240.356644 
	C405.251495,240.352921 405.877411,240.349197 406.503296,240.345474 
	C406.817780,237.283463 407.132233,234.221451 407.443237,231.193207 
	C411.160767,229.538223 411.256897,232.319199 411.640625,234.576538 
	C412.003754,236.712921 412.195312,238.878479 412.543976,241.689621 
	C415.781311,237.595581 415.772003,233.474884 413.114227,227.177902 
	C410.671570,227.177902 408.197815,227.177902 404.830078,227.025726 
M398.774200,263.097687 
	C398.644073,257.289276 400.639343,253.374557 404.400299,253.697006 
	C415.015350,254.607101 410.200439,262.566101 409.870880,268.429565 
	C414.236237,266.523071 415.659637,263.948212 415.206726,259.698242 
	C414.687042,254.821701 411.568024,251.338806 406.813873,250.564941 
	C402.262939,249.824142 398.611725,251.275757 396.448517,255.524002 
	C394.240662,259.859955 395.068207,264.770142 398.899139,268.424377 
	C398.899139,266.611969 398.899139,265.253479 398.774200,263.097687 
M98.604675,199.570053 
	C97.813156,199.351151 96.808662,198.710220 96.265862,198.984161 
	C93.455841,200.402252 89.424423,201.448883 88.371552,203.778656 
	C87.071350,206.655716 87.010620,212.794388 88.653183,213.775513 
	C92.972984,216.355804 98.499023,216.932404 103.572495,218.194931 
	C103.866066,218.267975 104.759117,217.336136 104.750923,216.883224 
	C104.739120,216.230911 104.316345,215.332001 103.781944,214.999130 
	C102.838455,214.411499 101.678413,214.171524 100.609032,213.785995 
	C101.081055,213.614258 101.553078,213.442520 102.025101,213.270798 
	C101.117332,208.841080 100.209564,204.411362 98.604675,199.570053 
M101.541542,229.608154 
	C103.126106,226.161514 101.544609,225.953705 98.763397,226.844681 
	C94.189003,228.310120 89.578316,229.665070 85.026512,231.196136 
	C83.897385,231.575943 82.935455,232.452850 80.822556,233.771698 
	C87.844147,237.781097 93.915909,241.248123 99.987663,244.715149 
	C100.227051,244.295914 100.466431,243.876694 100.705818,243.457458 
	C97.434875,237.728516 97.497513,233.600891 101.541542,229.608154 
M356.127808,145.203598 
	C353.289032,140.204468 353.639496,136.978195 357.243408,134.933319 
	C360.821533,132.903091 364.715027,134.628113 367.321259,139.219925 
	C367.973267,140.368652 369.098206,141.248947 370.567566,142.873886 
	C371.059875,136.402313 369.316284,133.446167 364.745636,131.601593 
	C360.210663,129.771423 356.275421,130.645752 353.117706,134.377365 
	C350.237061,137.781586 349.746216,141.590439 352.193878,145.385132 
	C354.433746,148.857758 357.526306,151.090668 361.506775,151.401581 
	C361.775940,150.952850 362.045105,150.504135 362.314270,150.055405 
	C360.419556,148.624969 358.524841,147.194534 356.127808,145.203598 
M257.487366,86.713120 
	C252.170120,81.977959 245.959503,82.275993 241.911301,87.460587 
	C238.555740,91.758118 239.537155,98.735794 243.909286,101.665688 
	C248.235672,104.564926 255.316589,103.465378 258.091888,98.909721 
	C255.755768,99.323242 253.891663,99.733978 252.005692,99.969727 
	C248.402039,100.420212 245.066330,99.524872 243.685944,96.007492 
	C243.033295,94.344521 243.423767,91.568054 244.467422,90.092224 
	C246.545761,87.153259 249.653824,86.294327 253.330124,87.785698 
	C254.501373,88.260826 256.146729,87.567322 257.487366,86.713120 
M193.521820,98.820404 
	C193.068710,103.559860 192.615601,108.299316 192.142014,113.252960 
	C193.390121,113.057167 193.630112,113.091934 193.702652,112.997742 
	C197.170731,108.494568 200.926636,104.933205 207.144485,108.451721 
	C207.513504,108.660538 208.744965,108.229179 208.794434,107.954910 
	C208.949753,107.093742 209.080856,105.862984 208.602829,105.311043 
	C205.019028,101.172989 201.358231,97.095009 197.570206,93.143265 
	C195.680893,91.172295 194.315430,91.988419 193.854248,94.468048 
	C193.643082,95.603500 193.675201,96.784210 193.521820,98.820404 
M226.751389,88.038322 
	C227.874893,87.598320 228.998383,87.158325 231.100998,86.334862 
	C223.716080,83.865189 216.199799,85.545883 214.037827,90.006729 
	C216.414474,89.838791 218.439178,89.695724 220.696884,89.536194 
	C221.425659,94.068016 222.078537,98.634407 222.959976,103.156250 
	C223.124481,104.000160 224.205948,104.665321 224.864243,105.412979 
	C225.319275,104.509361 226.239120,103.556000 226.148666,102.710754 
	C225.761795,99.095627 224.912354,95.526932 224.592957,91.909401 
	C224.486115,90.698914 225.454926,89.393463 226.751389,88.038322 
M396.643372,285.826721 
	C400.352631,286.618347 404.061920,287.409943 407.670349,288.180054 
	C407.396942,290.467468 407.156250,292.481049 406.843536,295.097168 
	C411.827118,291.618286 413.689758,282.463440 410.209259,278.428894 
	C409.485962,280.728790 408.892334,282.616364 408.210663,284.783875 
	C402.990356,283.642883 397.740967,282.495544 392.491577,281.348175 
	C392.194611,281.952972 391.897675,282.557739 391.600708,283.162506 
	C393.019073,283.981812 394.437469,284.801117 396.643372,285.826721 
M142.315216,137.421921 
	C138.419144,137.099609 132.820175,142.505203 132.592407,147.831284 
	C136.999985,145.021286 140.444458,142.237152 142.315216,137.421921 
M146.148819,126.885719 
	C147.287308,128.259720 148.425812,129.633713 149.564316,131.007706 
	C149.745697,130.828934 149.927094,130.650146 150.108475,130.471375 
	C150.413879,132.074432 150.719299,133.677490 151.024704,135.280548 
	C151.686798,135.312408 152.348907,135.344269 153.011002,135.376114 
	C153.501633,132.744873 153.992279,130.113632 154.609711,126.802338 
	C151.505539,126.636955 149.086365,126.508064 146.148819,126.885719 
M385.117432,320.610107 
	C384.279785,322.233582 383.216522,323.793365 382.730438,325.516022 
	C382.566528,326.096832 383.979645,327.842316 384.479340,327.767548 
	C386.786774,327.422363 390.228638,318.210022 388.807892,314.956268 
	C387.544067,316.881561 386.519257,318.442719 385.117432,320.610107 
M328.198639,117.935570 
	C326.818329,118.575348 325.437988,119.215126 324.057678,119.854904 
	C324.180573,120.435646 324.303467,121.016388 324.426361,121.597137 
	C326.136353,121.494057 327.921844,121.657257 329.531616,121.200775 
	C330.744476,120.856857 332.692139,119.646103 332.639160,118.948174 
	C332.483337,116.894180 331.494202,114.903419 330.831299,112.887901 
	C329.986877,113.281929 328.584503,113.520195 328.421417,114.104446 
	C328.137085,115.122856 328.616333,116.354454 328.198639,117.935570 
M109.686096,316.854919 
	C106.995209,315.058044 106.211258,316.584991 107.029732,318.804993 
	C108.161591,321.875000 109.867760,324.750946 111.530907,327.591156 
	C111.829865,328.101746 113.108894,328.038422 115.427452,328.604126 
	C113.262581,324.120514 111.657814,320.796906 109.686096,316.854919 
M100.080162,303.672211 
	C99.722038,305.620483 99.363914,307.568787 99.005791,309.517059 
	C99.525948,309.601471 100.046104,309.685852 100.566261,309.770264 
	C101.515366,308.495300 102.464462,307.220367 103.143997,306.307526 
	C105.292336,306.307526 106.982002,306.307526 108.671669,306.307526 
	C106.283409,303.574036 104.370911,299.996735 100.080162,303.672211 
M382.360260,337.642609 
	C380.787354,337.373627 379.214447,337.104614 377.576935,336.824585 
	C376.883789,335.451080 376.141663,333.980591 375.399536,332.510071 
	C374.736481,332.658508 374.073425,332.806946 373.410370,332.955414 
	C373.687103,335.557861 373.963837,338.160339 374.406525,342.323395 
	C377.800385,340.692841 380.226929,339.527039 382.360260,337.642609 
M115.877396,172.270050 
	C116.573792,173.222168 117.270180,174.174271 117.966576,175.126389 
	C118.480988,174.888916 118.995392,174.651443 119.509804,174.413971 
	C119.016685,171.822021 118.523567,169.230072 117.859077,165.737366 
	C114.646217,167.008575 112.165543,167.990082 109.684868,168.971588 
	C109.851837,169.458511 110.018799,169.945450 110.185768,170.432373 
	C112.000038,170.787399 113.814308,171.142426 115.877396,172.270050 
M104.058189,188.410858 
	C103.981514,189.805084 103.904839,191.199310 103.828171,192.593536 
	C104.445511,192.713333 105.062859,192.833130 105.680199,192.952927 
	C107.311066,189.622635 109.019020,186.326172 110.507729,182.933487 
	C110.805519,182.254837 110.267418,181.209427 110.114731,180.333130 
	C109.197441,180.731384 107.880615,180.877365 107.439362,181.576187 
	C106.219795,183.507690 105.365837,185.670059 104.058189,188.410858 
M313.247925,111.296577 
	C314.968201,111.952759 316.688477,112.608948 318.762878,113.400208 
	C318.092285,108.961685 311.195618,105.412018 305.335266,106.949112 
	C308.346466,108.636703 310.452057,109.816742 313.247925,111.296577 
z"/>
<path fill="#FF5959" opacity="1.000000" stroke="none" 
	d="
M242.215408,202.000549 
	C241.107422,199.093704 239.329086,196.254395 239.028015,193.266251 
	C238.356323,186.599579 242.469254,181.061264 248.919937,178.791397 
	C253.863312,177.051910 260.957428,179.412262 264.538605,183.987976 
	C267.968201,188.370010 268.117279,195.354828 264.861145,200.346878 
	C264.227539,201.318283 263.500122,202.228485 262.562744,203.453888 
	C261.754486,203.953217 261.199432,204.165573 260.644379,204.377930 
	C260.771698,204.608109 260.899048,204.838287 261.026367,205.068466 
	C261.686584,204.715530 262.346802,204.362595 263.007019,204.009644 
	C267.032532,204.695786 271.058044,205.381927 275.595795,206.337616 
	C276.353027,206.616058 276.598022,206.624924 276.843018,206.633789 
	C276.696014,206.281174 276.548981,205.928574 276.401978,205.575958 
	C271.705750,194.604248 277.530029,184.043320 288.378448,183.859497 
	C297.230072,183.709518 304.092041,191.556396 302.751740,200.321884 
	C302.581879,201.432739 302.277954,202.523102 302.030701,203.647614 
	C310.859894,204.564301 319.173187,210.020309 320.432648,215.805298 
	C326.626404,216.318405 332.090179,214.222778 337.218689,210.925537 
	C338.759125,209.935150 340.197937,208.261169 341.825317,208.062286 
	C343.938751,207.804016 346.946747,208.017059 348.148438,209.328995 
	C349.097260,210.364914 348.715942,214.361099 347.526062,215.337799 
	C338.230743,222.967545 327.973724,228.025818 315.393097,224.827148 
	C314.161133,224.513916 312.918091,224.244034 310.477478,223.672287 
	C313.223114,238.109818 315.438934,251.840424 318.512482,265.376282 
	C322.044983,280.933411 326.544891,296.270782 330.083588,311.826660 
	C330.640869,314.276489 329.097778,318.313812 327.136841,319.899719 
	C325.347565,321.346832 321.368408,321.268036 318.929962,320.343597 
	C317.093781,319.647552 315.553314,316.720581 314.938141,314.494568 
	C311.441010,301.839661 308.261383,289.097015 304.974487,276.384003 
	C303.937347,272.372528 303.009583,268.327820 301.802399,264.368225 
	C301.433441,263.158051 300.299713,262.181061 299.516235,261.097260 
	C298.821259,262.378296 297.534943,263.653351 297.521912,264.941284 
	C297.376831,279.271790 297.442596,293.604309 297.413422,307.936218 
	C297.408661,310.263306 297.409668,312.618042 297.072418,314.910645 
	C296.476257,318.963531 292.835968,322.162262 289.168762,321.699371 
	C284.884064,321.158478 282.110748,318.696289 281.911163,314.179230 
	C281.720062,309.854431 281.845306,305.515961 281.816376,301.183594 
	C281.730713,288.353088 282.309937,275.472595 281.359131,262.706207 
	C280.398773,249.811127 278.019684,237.013260 275.994507,224.215149 
	C275.695679,222.326889 273.920380,220.672272 272.828186,218.909561 
	C272.309662,218.936417 271.791107,218.963272 271.272552,218.990143 
	C270.870270,221.219849 270.122955,223.448807 270.118042,225.679413 
	C270.056396,253.676544 270.103546,281.673920 270.116760,309.671234 
	C270.117523,311.337067 270.185425,313.015167 270.015808,314.666382 
	C269.576874,318.938690 266.502289,322.006958 262.552429,321.956238 
	C258.037598,321.898254 255.316040,319.338074 254.810547,315.001190 
	C254.369339,311.215912 254.566849,307.351044 254.559753,303.521179 
	C254.538422,292.022339 254.580338,280.523315 254.528198,269.024658 
	C254.520813,267.395477 254.127731,265.768066 253.913162,264.139832 
	C253.401978,264.140289 252.890793,264.140778 252.379608,264.141235 
	C252.166092,265.777740 251.772888,267.413635 251.767395,269.050842 
	C251.721451,282.716003 251.760544,296.381439 251.734406,310.046692 
	C251.730927,311.868256 251.711456,313.732361 251.341843,315.502106 
	C250.482361,319.617584 247.744507,321.826782 243.598343,321.956482 
	C240.001617,322.069000 236.509766,318.548035 236.044083,314.586731 
	C235.889374,313.270813 235.995239,311.923340 235.995560,310.590271 
	C236.002426,282.259644 236.048477,253.928909 235.949646,225.598679 
	C235.941650,223.307861 234.942337,221.020508 234.403656,218.731537 
	C233.640732,218.736816 232.877808,218.742096 232.114868,218.747375 
	C231.053619,222.392639 229.744049,225.986145 228.971405,229.691605 
	C223.968704,253.683350 224.474396,278.009674 224.733505,302.317963 
	C224.770798,305.816284 224.749924,309.319061 224.617325,312.814514 
	C224.425827,317.862671 220.737732,321.896271 216.472076,321.881226 
	C212.343826,321.866669 209.054428,318.066589 209.028366,312.819641 
	C208.954712,297.988190 209.019897,283.156036 209.030731,268.324158 
	C209.031586,267.157623 209.304337,265.906311 208.970306,264.845734 
	C208.541702,263.484955 207.626312,262.277557 206.920670,261.004059 
	C205.985519,262.151825 204.633499,263.161865 204.199600,264.475220 
	C203.212891,267.461853 202.728088,270.610443 201.949402,273.670349 
	C198.504974,287.205688 195.120224,300.757294 191.521500,314.251740 
	C189.966965,320.080841 185.966217,322.728516 181.505402,321.441589 
	C176.740280,320.066895 174.784851,316.305878 176.301239,310.197784 
	C180.588440,292.928680 185.400955,275.783936 189.375381,258.445496 
	C191.884064,247.501495 193.260880,236.298035 195.302872,224.284546 
	C191.740417,224.894577 189.055954,225.674438 186.349274,225.761246 
	C175.691116,226.103104 166.386139,222.414993 158.657257,215.217117 
	C157.476349,214.117355 157.195770,210.688416 158.033035,209.199570 
	C158.749130,207.926224 162.124802,206.856674 163.533463,207.481003 
	C170.928177,210.758270 178.071533,214.602692 185.693451,218.447464 
	C186.302582,210.217331 196.136566,203.138107 204.145493,204.623993 
	C202.258041,195.739502 203.617279,188.084595 212.932571,184.362885 
	C218.097305,182.299438 224.741089,184.443436 228.320618,188.726059 
	C232.477417,193.699417 232.753220,198.900314 228.790527,205.819031 
	C228.065918,206.967224 227.720459,207.609924 227.492004,208.291794 
	C227.472244,208.350739 228.550323,208.871613 228.572174,208.836609 
	C229.094162,208.001175 229.541367,207.119003 230.002167,206.245346 
	C233.793930,205.244781 237.585678,204.244217 241.923462,203.459000 
	C243.181396,204.182938 243.893326,204.691528 244.605240,205.200119 
	C244.818039,204.940506 245.030823,204.680893 245.243622,204.421280 
	C244.234222,203.614365 243.224808,202.807449 242.215408,202.000549 
M208.976456,209.514130 
	C208.857681,209.240067 208.738922,208.966019 208.620148,208.691971 
	C208.497040,208.779373 208.262604,208.937515 208.266754,208.944061 
	C208.496429,209.305527 208.746078,209.654312 209.081207,210.642242 
	C210.012466,211.426590 210.943710,212.210953 211.874969,212.995316 
	C212.132660,212.573593 212.390350,212.151871 212.648056,211.730148 
	C211.434250,211.151169 210.220459,210.572174 208.976456,209.514130 
M300.220917,206.095932 
	C298.676422,207.461258 297.131958,208.826584 295.587494,210.191910 
	C296.144257,210.673874 296.701019,211.155823 297.257812,211.637787 
	C298.496796,209.780518 299.735809,207.923233 301.538239,205.852493 
	C301.532227,205.603149 301.526215,205.353821 301.520203,205.104477 
	C301.315063,205.416870 301.109924,205.729263 300.220917,206.095932 
M218.177216,212.730698 
	C217.431885,212.952438 216.686539,213.174179 215.941208,213.395920 
	C217.424133,213.893097 218.829010,213.841965 220.174179,213.531830 
	C220.375290,213.485458 220.296143,212.223465 220.346649,211.523819 
	C219.802979,211.791916 219.259308,212.059998 218.177216,212.730698 
M253.458893,206.064484 
	C252.893555,206.247421 252.328217,206.430359 251.762863,206.613281 
	C252.362808,207.032501 252.962753,207.451706 253.562683,207.870926 
	C253.731552,207.322601 253.900421,206.774277 253.458893,206.064484 
M205.395035,207.120834 
	C205.813400,207.074783 206.231781,207.028748 206.650146,206.982697 
	C206.476700,206.722397 206.224182,206.216858 206.143112,206.242996 
	C205.725189,206.377762 205.351227,206.648834 205.395035,207.120834 
M223.531601,210.758118 
	C223.403519,211.149323 223.254379,211.535828 223.165314,211.935715 
	C223.147675,212.014908 223.360916,212.145508 223.467682,212.252411 
	C223.595581,211.861221 223.723480,211.470032 223.531601,210.758118 
M225.821838,210.969940 
	C225.726700,210.563873 225.631561,210.157806 225.536392,209.751724 
	C225.415741,209.840744 225.183121,209.945175 225.192902,210.016235 
	C225.249710,210.428452 225.363586,210.832794 225.821838,210.969940 
M246.815186,206.738663 
	C246.973022,206.624023 247.130859,206.509399 247.288712,206.394775 
	C247.069107,206.417984 246.849487,206.441208 246.815186,206.738663 
M249.516968,207.411743 
	C249.516968,207.411743 249.583572,207.523102 249.516968,207.411743 
M294.411438,212.482819 
	C294.411438,212.482819 294.523071,212.416000 294.411438,212.482819 
z"/>
<path fill="#626262" opacity="1.000000" stroke="none" 
	d="
M163.463379,115.457581 
	C164.384155,119.494843 165.304916,123.532104 166.225693,127.569374 
	C165.789505,127.742912 165.353333,127.916451 164.917145,128.089996 
	C164.291534,127.511124 163.304016,127.038147 163.098648,126.336311 
	C161.698425,121.551155 160.355927,116.742004 159.256668,111.881371 
	C159.012878,110.803368 159.567749,109.302269 160.263916,108.380386 
	C160.521698,108.039017 162.357010,108.597023 163.272293,109.105766 
	C165.094376,110.118546 166.777512,111.381317 168.866943,112.773224 
	C169.139603,109.002632 169.355865,106.012100 169.572128,103.021561 
	C170.098709,102.747383 170.625290,102.473213 171.151871,102.199036 
	C176.227585,106.711662 181.303314,111.224281 186.379028,115.736908 
	C185.998749,116.330025 185.618454,116.923141 185.238174,117.516258 
	C183.383072,116.331635 181.426987,115.276482 179.699081,113.928780 
	C177.656235,112.335434 175.810455,110.489456 172.994751,107.957680 
	C172.994751,110.673317 173.124069,112.249992 172.956329,113.794395 
	C172.805527,115.182938 172.328644,116.536072 171.995590,117.904823 
	C170.689590,117.440208 169.324554,117.092911 168.095825,116.474724 
	C167.069992,115.958603 166.203812,115.125175 164.778748,114.090294 
	C163.912460,113.701714 163.534393,113.655113 163.156311,113.608521 
	C163.258667,114.224876 163.361023,114.841225 163.463379,115.457581 
z"/>
<path fill="#616161" opacity="1.000000" stroke="none" 
	d="
M393.341217,190.341583 
	C396.809662,189.695251 399.896851,186.434158 404.031189,189.305176 
	C398.244049,191.794571 392.456940,194.283966 385.693329,197.193405 
	C386.149292,190.471512 390.683136,186.076431 392.414032,179.679565 
	C389.134094,181.355942 386.633209,182.835846 383.966156,183.899063 
	C382.884155,184.330414 381.440399,183.854279 380.161255,183.791077 
	C380.856293,182.870972 381.355164,181.548401 382.279144,181.098022 
	C387.190125,178.704254 392.207672,176.529205 397.188293,174.278427 
	C397.655823,174.795822 398.123352,175.313217 398.590881,175.830627 
	C396.455536,180.157562 394.320221,184.484497 391.971130,189.420074 
	C392.285339,190.132996 392.813263,190.237289 393.341217,190.341583 
z"/>
<path fill="#626262" opacity="1.000000" stroke="none" 
	d="
M91.599152,262.710999 
	C90.280212,263.465881 89.233665,263.973328 87.655998,264.738312 
	C93.113045,267.558380 97.913574,262.839722 101.463264,266.512634 
	C101.454391,267.081573 101.445518,267.650513 101.436653,268.219452 
	C95.736443,268.736603 90.041710,269.543365 84.333771,269.651154 
	C81.390915,269.706757 81.149567,267.620728 83.175346,265.697601 
	C86.383759,262.651764 89.717659,259.738098 93.341286,256.458160 
	C89.002434,254.816360 84.238449,257.763550 81.082634,253.207687 
	C87.360741,252.893982 93.638840,252.580292 100.741531,252.225388 
	C99.144661,257.483398 94.558182,259.191742 91.599152,262.710999 
z"/>
<path fill="#616161" opacity="1.000000" stroke="none" 
	d="
M388.612976,164.378265 
	C385.801056,170.540726 381.535400,172.969177 376.419495,171.619354 
	C370.712311,170.113510 367.058563,164.758499 368.020172,159.309174 
	C368.895264,154.350204 373.314056,151.207443 378.597870,151.785995 
	C385.177460,152.506439 388.965363,157.073242 388.612976,164.378265 
M384.738739,163.755447 
	C386.102081,159.507446 384.634369,156.557526 380.443604,155.245377 
	C376.946899,154.150574 372.499664,157.180740 371.432129,161.219360 
	C370.318542,165.432175 373.098541,167.409149 376.335938,168.582458 
	C380.241089,169.997772 382.465485,167.389175 384.738739,163.755447 
z"/>
<path fill="#616161" opacity="1.000000" stroke="none" 
	d="
M397.897766,202.002167 
	C401.386169,201.174866 404.475769,200.427063 407.565338,199.679245 
	C407.936218,200.198837 408.307129,200.718430 408.678009,201.238022 
	C405.524323,205.722046 402.370667,210.206070 399.002716,214.994751 
	C403.480316,214.390839 407.547363,213.842316 411.614410,213.293793 
	C411.716736,214.015961 411.819092,214.738144 411.921417,215.460327 
	C405.816956,216.982254 399.712524,218.504181 392.767517,220.235672 
	C393.410645,213.761520 399.226929,210.779144 400.999908,205.461746 
	C396.896332,203.688873 392.977142,209.514297 387.771515,205.293411 
	C391.717438,203.990570 394.608215,203.036118 397.897766,202.002167 
z"/>
<path fill="#636363" opacity="1.000000" stroke="none" 
	d="
M278.396545,103.690842 
	C278.717102,101.503601 278.970703,99.702728 279.305084,97.328026 
	C276.588531,96.869949 274.065887,96.444572 271.156830,95.954025 
	C270.454529,98.396507 269.908234,100.613373 269.144653,102.752693 
	C268.925018,103.368042 268.078857,103.759758 267.519958,104.254013 
	C267.066254,103.511208 266.131165,102.691422 266.235657,102.037895 
	C267.013306,97.175720 267.893799,92.322540 269.006592,87.527954 
	C269.219757,86.609505 270.601898,85.962364 271.444763,85.190048 
	C271.727905,86.177902 272.198975,87.156639 272.247437,88.155876 
	C272.310364,89.452812 272.036926,90.766060 271.882568,92.333511 
	C274.432953,92.908463 276.808411,93.443970 279.425385,94.033928 
	C280.321899,91.608299 281.191315,89.255997 282.060730,86.903687 
	C282.636108,87.021690 283.211517,87.139687 283.786896,87.257683 
	C283.625031,90.718712 283.584900,94.191353 283.256500,97.636513 
	C283.053314,99.767784 282.527985,101.891869 281.915314,103.950142 
	C281.630859,104.905762 280.793976,105.696953 280.207520,106.562683 
	C279.581543,105.734192 278.955566,104.905701 278.396545,103.690842 
z"/>
<path fill="#656565" opacity="1.000000" stroke="none" 
	d="
M90.449875,294.521484 
	C84.679062,291.150879 83.262291,285.416290 87.282448,279.117828 
	C87.709465,282.530334 87.744774,285.068542 88.429771,287.417267 
	C88.823334,288.766693 90.269943,289.808990 91.242516,290.989563 
	C91.952927,289.678680 93.007095,288.437469 93.290321,287.039978 
	C93.680557,285.114502 93.297432,283.042542 93.589195,281.084503 
	C94.060539,277.921265 96.446320,275.765594 99.146416,277.158264 
	C101.394058,278.317596 103.104645,281.311005 104.120316,283.863281 
	C105.363022,286.986115 105.405746,290.439056 102.052498,293.398499 
	C99.507034,289.178223 103.292000,283.468750 97.317596,280.114105 
	C97.091789,283.474487 96.941956,286.192841 96.718796,288.905182 
	C96.421570,292.517822 94.956177,294.978302 90.449875,294.521484 
z"/>
<path fill="#616161" opacity="1.000000" stroke="none" 
	d="
M405.277069,227.101807 
	C408.197815,227.177902 410.671570,227.177902 413.114227,227.177902 
	C415.772003,233.474884 415.781311,237.595581 412.543976,241.689621 
	C412.195312,238.878479 412.003754,236.712921 411.640625,234.576538 
	C411.256897,232.319199 411.160767,229.538223 407.443237,231.193207 
	C407.132233,234.221451 406.817780,237.283463 406.503296,240.345474 
	C405.877411,240.349197 405.251495,240.352921 404.625610,240.356644 
	C404.404236,238.588211 404.510681,236.685547 403.858795,235.093384 
	C403.327393,233.795395 401.889008,232.868790 400.852783,231.777512 
	C400.088867,233.068909 398.811523,234.311386 398.682648,235.663315 
	C398.494598,237.636093 399.131866,239.687561 398.793762,241.840958 
	C394.951111,239.231277 394.847382,235.131546 395.431946,231.526520 
	C395.667419,230.074371 399.003876,229.017105 401.041626,228.007339 
	C402.185669,227.440430 403.559692,227.337616 405.277069,227.101807 
z"/>
<path fill="#626262" opacity="1.000000" stroke="none" 
	d="
M398.836670,263.496338 
	C398.899139,265.253479 398.899139,266.611969 398.899139,268.424377 
	C395.068207,264.770142 394.240662,259.859955 396.448517,255.524002 
	C398.611725,251.275757 402.262939,249.824142 406.813873,250.564941 
	C411.568024,251.338806 414.687042,254.821701 415.206726,259.698242 
	C415.659637,263.948212 414.236237,266.523071 409.870880,268.429565 
	C410.200439,262.566101 415.015350,254.607101 404.400299,253.697006 
	C400.639343,253.374557 398.644073,257.289276 398.836670,263.496338 
z"/>
<path fill="#626262" opacity="1.000000" stroke="none" 
	d="
M98.953232,199.775848 
	C100.209564,204.411362 101.117332,208.841080 102.025101,213.270798 
	C101.553078,213.442520 101.081055,213.614258 100.609032,213.785995 
	C101.678413,214.171524 102.838455,214.411499 103.781944,214.999130 
	C104.316345,215.332001 104.739120,216.230911 104.750923,216.883224 
	C104.759117,217.336136 103.866066,218.267975 103.572495,218.194931 
	C98.499023,216.932404 92.972984,216.355804 88.653183,213.775513 
	C87.010620,212.794388 87.071350,206.655716 88.371552,203.778656 
	C89.424423,201.448883 93.455841,200.402252 96.265862,198.984161 
	C96.808662,198.710220 97.813156,199.351151 98.953232,199.775848 
M98.942795,205.888794 
	C97.535751,204.638779 96.128716,203.388748 94.721680,202.138733 
	C93.106865,204.215179 90.993912,206.106308 90.119102,208.458023 
	C89.762398,209.416946 91.788315,212.195007 93.250755,212.734573 
	C99.246651,214.946762 98.261383,209.898743 98.942795,205.888794 
z"/>
<path fill="#626262" opacity="1.000000" stroke="none" 
	d="
M101.226013,229.789566 
	C97.497513,233.600891 97.434875,237.728516 100.705818,243.457458 
	C100.466431,243.876694 100.227051,244.295914 99.987663,244.715149 
	C93.915909,241.248123 87.844147,237.781097 80.822556,233.771698 
	C82.935455,232.452850 83.897385,231.575943 85.026512,231.196136 
	C89.578316,229.665070 94.189003,228.310120 98.763397,226.844681 
	C101.544609,225.953705 103.126106,226.161514 101.226013,229.789566 
M88.181534,234.903976 
	C90.326302,235.964676 92.471062,237.025391 95.012558,238.282303 
	C95.294136,235.822739 95.492424,234.090698 95.788719,231.502579 
	C92.692558,232.614380 90.267632,233.485138 88.181534,234.903976 
z"/>
<path fill="#5F5F5F" opacity="1.000000" stroke="none" 
	d="
M356.378967,145.483841 
	C358.524841,147.194534 360.419556,148.624969 362.314270,150.055405 
	C362.045105,150.504135 361.775940,150.952850 361.506775,151.401581 
	C357.526306,151.090668 354.433746,148.857758 352.193878,145.385132 
	C349.746216,141.590439 350.237061,137.781586 353.117706,134.377365 
	C356.275421,130.645752 360.210663,129.771423 364.745636,131.601593 
	C369.316284,133.446167 371.059875,136.402313 370.567566,142.873886 
	C369.098206,141.248947 367.973267,140.368652 367.321259,139.219925 
	C364.715027,134.628113 360.821533,132.903091 357.243408,134.933319 
	C353.639496,136.978195 353.289032,140.204468 356.378967,145.483841 
z"/>
<path fill="#5E5E5E" opacity="1.000000" stroke="none" 
	d="
M257.531250,87.060837 
	C256.146729,87.567322 254.501373,88.260826 253.330124,87.785698 
	C249.653824,86.294327 246.545761,87.153259 244.467422,90.092224 
	C243.423767,91.568054 243.033295,94.344521 243.685944,96.007492 
	C245.066330,99.524872 248.402039,100.420212 252.005692,99.969727 
	C253.891663,99.733978 255.755768,99.323242 258.091888,98.909721 
	C255.316589,103.465378 248.235672,104.564926 243.909286,101.665688 
	C239.537155,98.735794 238.555740,91.758118 241.911301,87.460587 
	C245.959503,82.275993 252.170120,81.977959 257.531250,87.060837 
z"/>
<path fill="#5F5F5F" opacity="1.000000" stroke="none" 
	d="
M193.559402,98.382401 
	C193.675201,96.784210 193.643082,95.603500 193.854248,94.468048 
	C194.315430,91.988419 195.680893,91.172295 197.570206,93.143265 
	C201.358231,97.095009 205.019028,101.172989 208.602829,105.311043 
	C209.080856,105.862984 208.949753,107.093742 208.794434,107.954910 
	C208.744965,108.229179 207.513504,108.660538 207.144485,108.451721 
	C200.926636,104.933205 197.170731,108.494568 193.702652,112.997742 
	C193.630112,113.091934 193.390121,113.057167 192.142014,113.252960 
	C192.615601,108.299316 193.068710,103.559860 193.559402,98.382401 
M199.331268,100.242195 
	C198.452148,99.407867 197.573029,98.573532 196.249359,97.317307 
	C196.249359,100.589447 196.249359,103.116302 196.249359,106.034035 
	C198.345932,105.261803 200.116226,104.609749 202.164429,103.855339 
	C201.171829,102.567307 200.477997,101.666962 199.331268,100.242195 
z"/>
<path fill="#616161" opacity="1.000000" stroke="none" 
	d="
M226.341705,88.084869 
	C225.454926,89.393463 224.486115,90.698914 224.592957,91.909401 
	C224.912354,95.526932 225.761795,99.095627 226.148666,102.710754 
	C226.239120,103.556000 225.319275,104.509361 224.864243,105.412979 
	C224.205948,104.665321 223.124481,104.000160 222.959976,103.156250 
	C222.078537,98.634407 221.425659,94.068016 220.696884,89.536194 
	C218.439178,89.695724 216.414474,89.838791 214.037827,90.006729 
	C216.199799,85.545883 223.716080,83.865189 231.100998,86.334862 
	C228.998383,87.158325 227.874893,87.598320 226.341705,88.084869 
z"/>
<path fill="#616161" opacity="1.000000" stroke="none" 
	d="
M396.249603,285.723572 
	C394.437469,284.801117 393.019073,283.981812 391.600708,283.162506 
	C391.897675,282.557739 392.194611,281.952972 392.491577,281.348175 
	C397.740967,282.495544 402.990356,283.642883 408.210663,284.783875 
	C408.892334,282.616364 409.485962,280.728790 410.209259,278.428894 
	C413.689758,282.463440 411.827118,291.618286 406.843536,295.097168 
	C407.156250,292.481049 407.396942,290.467468 407.670349,288.180054 
	C404.061920,287.409943 400.352631,286.618347 396.249603,285.723572 
z"/>
<path fill="#656565" opacity="1.000000" stroke="none" 
	d="
M142.455048,137.703674 
	C140.444458,142.237152 136.999985,145.021286 132.592407,147.831284 
	C132.820175,142.505203 138.419144,137.099609 142.455048,137.703674 
z"/>
<path fill="#646464" opacity="1.000000" stroke="none" 
	d="
M146.408005,126.632446 
	C149.086365,126.508064 151.505539,126.636955 154.609711,126.802338 
	C153.992279,130.113632 153.501633,132.744873 153.011002,135.376114 
	C152.348907,135.344269 151.686798,135.312408 151.024704,135.280548 
	C150.719299,133.677490 150.413879,132.074432 150.108475,130.471375 
	C149.927094,130.650146 149.745697,130.828934 149.564316,131.007706 
	C148.425812,129.633713 147.287308,128.259720 146.408005,126.632446 
z"/>
<path fill="#626262" opacity="1.000000" stroke="none" 
	d="
M385.305969,320.307007 
	C386.519257,318.442719 387.544067,316.881561 388.807892,314.956268 
	C390.228638,318.210022 386.786774,327.422363 384.479340,327.767548 
	C383.979645,327.842316 382.566528,326.096832 382.730438,325.516022 
	C383.216522,323.793365 384.279785,322.233582 385.305969,320.307007 
z"/>
<path fill="#666666" opacity="1.000000" stroke="none" 
	d="
M328.487061,117.716125 
	C328.616333,116.354454 328.137085,115.122856 328.421417,114.104446 
	C328.584503,113.520195 329.986877,113.281929 330.831299,112.887901 
	C331.494202,114.903419 332.483337,116.894180 332.639160,118.948174 
	C332.692139,119.646103 330.744476,120.856857 329.531616,121.200775 
	C327.921844,121.657257 326.136353,121.494057 324.426361,121.597137 
	C324.303467,121.016388 324.180573,120.435646 324.057678,119.854904 
	C325.437988,119.215126 326.818329,118.575348 328.487061,117.716125 
z"/>
<path fill="#5F5F5F" opacity="1.000000" stroke="none" 
	d="
M109.869568,317.164124 
	C111.657814,320.796906 113.262581,324.120514 115.427452,328.604126 
	C113.108894,328.038422 111.829865,328.101746 111.530907,327.591156 
	C109.867760,324.750946 108.161591,321.875000 107.029732,318.804993 
	C106.211258,316.584991 106.995209,315.058044 109.869568,317.164124 
z"/>
<path fill="#656565" opacity="1.000000" stroke="none" 
	d="
M100.243256,303.375000 
	C104.370911,299.996735 106.283409,303.574036 108.671669,306.307526 
	C106.982002,306.307526 105.292336,306.307526 103.143997,306.307526 
	C102.464462,307.220367 101.515366,308.495300 100.566261,309.770264 
	C100.046104,309.685852 99.525948,309.601471 99.005791,309.517059 
	C99.363914,307.568787 99.722038,305.620483 100.243256,303.375000 
z"/>
<path fill="#646464" opacity="1.000000" stroke="none" 
	d="
M382.506897,338.001923 
	C380.226929,339.527039 377.800385,340.692841 374.406525,342.323395 
	C373.963837,338.160339 373.687103,335.557861 373.410370,332.955414 
	C374.073425,332.806946 374.736481,332.658508 375.399536,332.510071 
	C376.141663,333.980591 376.883789,335.451080 377.576935,336.824585 
	C379.214447,337.104614 380.787354,337.373627 382.506897,338.001923 
z"/>
<path fill="#636363" opacity="1.000000" stroke="none" 
	d="
M115.752991,171.883759 
	C113.814308,171.142426 112.000038,170.787399 110.185768,170.432373 
	C110.018799,169.945450 109.851837,169.458511 109.684868,168.971588 
	C112.165543,167.990082 114.646217,167.008575 117.859077,165.737366 
	C118.523567,169.230072 119.016685,171.822021 119.509804,174.413971 
	C118.995392,174.651443 118.480988,174.888916 117.966576,175.126389 
	C117.270180,174.174271 116.573792,173.222168 115.752991,171.883759 
z"/>
<path fill="#646464" opacity="1.000000" stroke="none" 
	d="
M104.212753,188.076004 
	C105.365837,185.670059 106.219795,183.507690 107.439362,181.576187 
	C107.880615,180.877365 109.197441,180.731384 110.114731,180.333130 
	C110.267418,181.209427 110.805519,182.254837 110.507729,182.933487 
	C109.019020,186.326172 107.311066,189.622635 105.680199,192.952927 
	C105.062859,192.833130 104.445511,192.713333 103.828171,192.593536 
	C103.904839,191.199310 103.981514,189.805084 104.212753,188.076004 
z"/>
<path fill="#5D5D5D" opacity="1.000000" stroke="none" 
	d="
M312.902771,111.146683 
	C310.452057,109.816742 308.346466,108.636703 305.335266,106.949112 
	C311.195618,105.412018 318.092285,108.961685 318.762878,113.400208 
	C316.688477,112.608948 314.968201,111.952759 312.902771,111.146683 
z"/>
<path fill="#FF5A5A" opacity="1.000000" stroke="none" 
	d="
M229.740906,206.188171 
	C229.541367,207.119003 229.094162,208.001175 228.572174,208.836609 
	C228.550323,208.871613 227.472244,208.350739 227.492004,208.291794 
	C227.720459,207.609924 228.065918,206.967224 228.668457,206.166626 
	C229.130981,206.056427 229.305328,206.093719 229.740906,206.188171 
z"/>
<path fill="#FF5A5A" opacity="1.000000" stroke="none" 
	d="
M242.146637,202.306854 
	C243.224808,202.807449 244.234222,203.614365 245.243622,204.421280 
	C245.030823,204.680893 244.818039,204.940506 244.605240,205.200119 
	C243.893326,204.691528 243.181396,204.182938 242.297775,203.456741 
	C242.110001,203.030487 242.093918,202.821823 242.146637,202.306854 
z"/>
<path fill="#FF5A5A" opacity="1.000000" stroke="none" 
	d="
M300.974823,206.065964 
	C299.735809,207.923233 298.496796,209.780518 297.257812,211.637787 
	C296.701019,211.155823 296.144257,210.673874 295.587494,210.191910 
	C297.131958,208.826584 298.676422,207.461258 300.591492,206.043198 
	C300.962036,205.990463 300.974823,206.065964 300.974823,206.065964 
z"/>
<path fill="#FF5A5A" opacity="1.000000" stroke="none" 
	d="
M218.446426,212.529388 
	C219.259308,212.059998 219.802979,211.791916 220.346649,211.523819 
	C220.296143,212.223465 220.375290,213.485458 220.174179,213.531830 
	C218.829010,213.841965 217.424133,213.893097 215.941208,213.395920 
	C216.686539,213.174179 217.431885,212.952438 218.446426,212.529388 
z"/>
<path fill="#FF5A5A" opacity="1.000000" stroke="none" 
	d="
M209.006668,209.993195 
	C210.220459,210.572174 211.434250,211.151169 212.648056,211.730148 
	C212.390350,212.151871 212.132660,212.573593 211.874969,212.995316 
	C210.943710,212.210953 210.012466,211.426590 209.040680,210.321045 
	C209.000168,209.999847 209.006668,209.993195 209.006668,209.993195 
z"/>
<path fill="#FF5A5A" opacity="1.000000" stroke="none" 
	d="
M253.764099,206.145218 
	C253.900421,206.774277 253.731552,207.322601 253.562683,207.870926 
	C252.962753,207.451706 252.362808,207.032501 251.762863,206.613281 
	C252.328217,206.430359 252.893555,206.247421 253.764099,206.145218 
z"/>
<path fill="#FF5A5A" opacity="1.000000" stroke="none" 
	d="
M205.178497,206.996582 
	C205.351227,206.648834 205.725189,206.377762 206.143112,206.242996 
	C206.224182,206.216858 206.476700,206.722397 206.650146,206.982697 
	C206.231781,207.028748 205.813400,207.074783 205.178497,206.996582 
z"/>
<path fill="#FF5A5A" opacity="1.000000" stroke="none" 
	d="
M223.691483,210.918488 
	C223.723480,211.470032 223.595581,211.861221 223.467682,212.252411 
	C223.360916,212.145508 223.147675,212.014908 223.165314,211.935715 
	C223.254379,211.535828 223.403519,211.149323 223.691483,210.918488 
z"/>
<path fill="#FF5A5A" opacity="1.000000" stroke="none" 
	d="
M225.639999,211.104874 
	C225.363586,210.832794 225.249710,210.428452 225.192902,210.016235 
	C225.183121,209.945175 225.415741,209.840744 225.536407,209.751740 
	C225.631561,210.157806 225.726700,210.563873 225.639999,211.104874 
z"/>
<path fill="#FFFFFF" opacity="1.000000" stroke="none" 
	d="
M262.983978,203.979523 
	C262.346802,204.362595 261.686584,204.715530 261.026367,205.068466 
	C260.899048,204.838287 260.771698,204.608109 260.644379,204.377930 
	C261.199432,204.165573 261.754486,203.953217 262.613190,203.814285 
	C262.916870,203.887695 262.960938,203.949402 262.983978,203.979523 
z"/>
<path fill="#FF5A5A" opacity="1.000000" stroke="none" 
	d="
M246.722534,206.601532 
	C246.849487,206.441208 247.069107,206.417984 247.288696,206.394775 
	C247.130859,206.509399 246.973022,206.624023 246.722534,206.601532 
z"/>
<path fill="#FF5A5A" opacity="1.000000" stroke="none" 
	d="
M208.996933,210.002121 
	C208.746078,209.654312 208.496429,209.305527 208.266754,208.944061 
	C208.262604,208.937515 208.497040,208.779373 208.620148,208.691956 
	C208.738922,208.966019 208.857681,209.240067 208.991562,209.753662 
	C209.006668,209.993195 209.000168,209.999847 208.996933,210.002121 
z"/>
<path fill="#FFFFFF" opacity="1.000000" stroke="none" 
	d="
M276.283264,205.700500 
	C276.548981,205.928574 276.696014,206.281174 276.843018,206.633789 
	C276.598022,206.624924 276.353027,206.616058 276.019226,206.342148 
	C275.930420,206.077103 276.164581,205.825027 276.283264,205.700500 
z"/>
<path fill="#FF5A5A" opacity="1.000000" stroke="none" 
	d="
M249.550262,207.467422 
	C249.583572,207.523102 249.516968,207.411743 249.550262,207.467422 
z"/>
<path fill="#FFFFFF" opacity="1.000000" stroke="none" 
	d="
M300.933411,206.016068 
	C301.109924,205.729263 301.315063,205.416870 301.520203,205.104477 
	C301.526215,205.353821 301.532227,205.603149 301.256531,205.959229 
	C300.974823,206.065964 300.962036,205.990463 300.933411,206.016068 
z"/>
<path fill="#FF5A5A" opacity="1.000000" stroke="none" 
	d="
M294.467255,212.449402 
	C294.523071,212.416000 294.411438,212.482819 294.467255,212.449402 
z"/>
<path fill="#FFFFFF" opacity="1.000000" stroke="none" 
	d="
M163.776733,115.154266 
	C163.361023,114.841225 163.258667,114.224876 163.156311,113.608521 
	C163.534393,113.655113 163.912460,113.701714 164.466675,113.962296 
	C164.458557,114.401169 164.274323,114.626068 163.776733,115.154266 
z"/>
<path fill="#FFFFFF" opacity="1.000000" stroke="none" 
	d="
M393.051605,190.114487 
	C392.813263,190.237289 392.285339,190.132996 391.933197,189.788239 
	C392.326660,189.660995 392.544312,189.774185 393.051605,190.114487 
z"/>
<path fill="#FBFBFB" opacity="1.000000" stroke="none" 
	d="
M384.526489,164.092682 
	C382.465485,167.389175 380.241089,169.997772 376.335938,168.582458 
	C373.098541,167.409149 370.318542,165.432175 371.432129,161.219360 
	C372.499664,157.180740 376.946899,154.150574 380.443604,155.245377 
	C384.634369,156.557526 386.102081,159.507446 384.526489,164.092682 
z"/>
<path fill="#F8F8F8" opacity="1.000000" stroke="none" 
	d="
M98.956924,206.296890 
	C98.261383,209.898743 99.246651,214.946762 93.250755,212.734573 
	C91.788315,212.195007 89.762398,209.416946 90.119102,208.458023 
	C90.993912,206.106308 93.106865,204.215179 94.721680,202.138733 
	C96.128716,203.388748 97.535751,204.638779 98.956924,206.296890 
z"/>
<path fill="#E7E7E7" opacity="1.000000" stroke="none" 
	d="
M88.012123,234.629944 
	C90.267632,233.485138 92.692558,232.614380 95.788719,231.502579 
	C95.492424,234.090698 95.294136,235.822739 95.012558,238.282303 
	C92.471062,237.025391 90.326302,235.964676 88.012123,234.629944 
z"/>
<path fill="#E8E8E8" opacity="1.000000" stroke="none" 
	d="
M199.557709,100.504410 
	C200.477997,101.666962 201.171829,102.567307 202.164429,103.855339 
	C200.116226,104.609749 198.345932,105.261803 196.249359,106.034035 
	C196.249359,103.116302 196.249359,100.589447 196.249359,97.317307 
	C197.573029,98.573532 198.452148,99.407867 199.557709,100.504410 
z"/>
</svg>