<svg xmlns="http://www.w3.org/2000/svg" xmlns:xlink="http://www.w3.org/1999/xlink" width="500" zoomAndPan="magnify" viewBox="0 0 375 374.999991" height="500" preserveAspectRatio="xMidYMid meet" version="1.0"><path fill="#ff3434" d="M 172.914062 141.300781 C 172.832031 141.371094 172.75 141.441406 172.671875 141.515625 L 147.585938 163.8125 C 142.902344 167.972656 139.023438 171.421875 136.359375 174.554688 C 133.558594 177.84375 131.566406 181.386719 131.566406 185.773438 C 131.566406 190.15625 133.558594 193.699219 136.359375 196.988281 C 139.023438 200.121094 142.902344 203.570312 147.585938 207.730469 L 172.671875 230.027344 C 172.75 230.101562 172.832031 230.171875 172.914062 230.242188 C 174.941406 232.046875 176.832031 233.730469 178.46875 234.808594 C 180.074219 235.867188 182.992188 237.410156 186.261719 235.941406 C 189.535156 234.472656 190.320312 231.265625 190.597656 229.363281 C 190.875 227.421875 190.875 224.890625 190.875 222.175781 C 190.875 222.070312 190.875 221.960938 190.875 221.855469 L 190.875 212.050781 C 199.945312 212.675781 209.140625 215.085938 217.179688 219.003906 C 226.636719 223.609375 234.1875 230.144531 238.285156 237.949219 C 239.289062 239.859375 241.464844 240.839844 243.558594 240.324219 C 245.652344 239.804688 247.125 237.929688 247.125 235.769531 C 247.125 206.265625 238.492188 187.054688 226.148438 175.242188 C 215.386719 164.945312 202.273438 160.722656 190.875 159.839844 L 190.875 149.691406 C 190.875 149.582031 190.875 149.472656 190.875 149.367188 C 190.875 146.652344 190.875 144.121094 190.597656 142.183594 C 190.320312 140.277344 189.535156 137.074219 186.261719 135.605469 C 182.992188 134.136719 180.074219 135.675781 178.46875 136.734375 C 176.832031 137.8125 174.941406 139.496094 172.914062 141.300781 Z M 181.480469 146.253906 C 180.773438 146.859375 179.929688 147.605469 178.898438 148.523438 L 154.074219 170.589844 C 149.066406 175.039062 145.6875 178.058594 143.5 180.628906 C 141.398438 183.101562 140.941406 184.542969 140.941406 185.773438 C 140.941406 187 141.398438 188.445312 143.5 190.914062 C 145.6875 193.484375 149.066406 196.503906 154.074219 200.953125 L 178.898438 223.023438 C 179.929688 223.9375 180.773438 224.683594 181.480469 225.289062 C 181.496094 224.359375 181.5 223.234375 181.5 221.855469 L 181.5 207.199219 C 181.5 204.609375 183.597656 202.511719 186.1875 202.511719 C 198.140625 202.511719 210.5625 205.351562 221.289062 210.574219 C 227.03125 213.375 232.375 216.902344 236.914062 221.128906 C 234.609375 202.082031 227.796875 189.796875 219.664062 182.015625 C 209.539062 172.328125 196.746094 169.03125 186.1875 169.03125 C 183.597656 169.03125 181.5 166.933594 181.5 164.34375 L 181.5 149.691406 C 181.5 148.308594 181.496094 147.183594 181.480469 146.253906 Z M 181.480469 146.253906 " fill-opacity="1" fill-rule="evenodd"/></svg>