<svg xmlns="http://www.w3.org/2000/svg" xmlns:xlink="http://www.w3.org/1999/xlink" width="500" zoomAndPan="magnify" viewBox="0 0 375 374.999991" height="500" preserveAspectRatio="xMidYMid meet" version="1.0"><path fill="#ff3434" d="M 289.0625 19.53125 C 295.535156 19.53125 300.78125 24.777344 300.78125 31.25 L 300.78125 74.21875 L 343.75 74.21875 C 350.222656 74.21875 355.46875 79.464844 355.46875 85.9375 C 355.46875 92.410156 350.222656 97.65625 343.75 97.65625 L 300.78125 97.65625 L 300.78125 140.625 C 300.78125 147.097656 295.535156 152.34375 289.0625 152.34375 C 282.589844 152.34375 277.34375 147.097656 277.34375 140.625 L 277.34375 97.65625 L 234.375 97.65625 C 227.902344 97.65625 222.65625 92.410156 222.65625 85.9375 C 222.65625 79.464844 227.902344 74.21875 234.375 74.21875 L 277.34375 74.21875 L 277.34375 31.25 C 277.34375 24.777344 282.589844 19.53125 289.0625 19.53125 Z M 289.0625 19.53125 " fill-opacity="1" fill-rule="evenodd"/><path fill="#ff3434" d="M 187.5 19.53125 L 186.601562 19.53125 C 150.535156 19.53125 122.269531 19.53125 100.214844 22.496094 C 77.640625 25.53125 59.828125 31.863281 45.847656 45.847656 C 31.863281 59.828125 25.53125 77.640625 22.496094 100.214844 C 19.53125 122.269531 19.53125 150.535156 19.53125 186.601562 L 19.53125 188.398438 C 19.53125 224.464844 19.53125 252.730469 22.496094 274.785156 C 25.53125 297.359375 31.863281 315.171875 45.847656 329.15625 C 59.828125 343.136719 77.640625 349.46875 100.214844 352.503906 C 122.269531 355.46875 150.535156 355.46875 186.601562 355.46875 L 188.398438 355.46875 C 224.464844 355.46875 252.730469 355.46875 274.785156 352.503906 C 297.359375 349.46875 315.171875 343.136719 329.15625 329.15625 C 343.136719 315.171875 349.46875 297.359375 352.503906 274.785156 C 355.46875 252.730469 355.46875 224.464844 355.46875 188.398438 L 355.46875 187.5 C 355.46875 181.027344 350.222656 175.78125 343.75 175.78125 C 337.277344 175.78125 332.03125 181.027344 332.03125 187.5 C 332.03125 224.660156 332.007812 251.351562 329.273438 271.664062 C 329.167969 272.464844 329.054688 273.253906 328.941406 274.027344 L 285.597656 235.019531 C 265.292969 216.746094 235.058594 214.925781 212.710938 230.632812 L 208.050781 233.90625 C 200.285156 239.363281 189.71875 238.449219 183.007812 231.738281 L 115.980469 164.710938 C 98.242188 146.96875 69.785156 146.023438 50.902344 162.542969 L 42.984375 169.472656 C 43.054688 141.46875 43.457031 120.203125 45.726562 103.335938 C 48.410156 83.363281 53.519531 71.320312 62.417969 62.417969 C 71.320312 53.519531 83.363281 48.410156 103.335938 45.722656 C 123.648438 42.992188 150.339844 42.96875 187.5 42.96875 C 193.972656 42.96875 199.21875 37.722656 199.21875 31.25 C 199.21875 24.777344 193.972656 19.53125 187.5 19.53125 Z M 45.726562 271.664062 C 48.410156 291.636719 53.519531 303.679688 62.417969 312.582031 C 71.320312 321.484375 83.363281 326.589844 103.335938 329.273438 C 123.648438 332.007812 150.339844 332.03125 187.5 332.03125 C 224.660156 332.03125 251.351562 332.007812 271.664062 329.273438 C 291.636719 326.589844 303.679688 321.484375 312.582031 312.582031 C 316.386719 308.777344 319.5 304.398438 322.023438 299.070312 C 321.417969 298.695312 320.835938 298.265625 320.285156 297.773438 L 269.917969 252.441406 C 257.734375 241.476562 239.59375 240.382812 226.1875 249.808594 L 221.527344 253.082031 C 204.441406 265.089844 181.199219 263.078125 166.4375 248.3125 L 99.410156 181.285156 C 90.394531 172.269531 75.929688 171.789062 66.335938 180.183594 L 42.976562 200.625 C 43.015625 231.070312 43.328125 253.824219 45.726562 271.664062 Z M 45.726562 271.664062 " fill-opacity="1" fill-rule="evenodd"/></svg>