<svg xmlns="http://www.w3.org/2000/svg" xmlns:xlink="http://www.w3.org/1999/xlink" width="40" zoomAndPan="magnify" viewBox="0 0 30 30.000001" height="40" preserveAspectRatio="xMidYMid meet" version="1.0"><path fill="#ff3434" d="M 12.25 5.574219 C 12.234375 5.589844 12.21875 5.601562 12.203125 5.617188 L 7.347656 9.933594 C 6.441406 10.738281 5.691406 11.40625 5.175781 12.011719 C 4.632812 12.648438 4.246094 13.332031 4.246094 14.183594 C 4.246094 15.03125 4.632812 15.714844 5.175781 16.351562 C 5.691406 16.957031 6.441406 17.625 7.347656 18.429688 L 12.203125 22.746094 C 12.21875 22.761719 12.234375 22.773438 12.25 22.789062 C 12.640625 23.136719 13.007812 23.464844 13.324219 23.671875 C 13.636719 23.878906 14.199219 24.175781 14.832031 23.890625 C 15.464844 23.605469 15.617188 22.988281 15.671875 22.617188 C 15.726562 22.242188 15.726562 21.753906 15.726562 21.226562 C 15.726562 21.207031 15.726562 21.1875 15.726562 21.164062 L 15.726562 19.269531 C 17.480469 19.390625 19.261719 19.855469 20.816406 20.613281 C 22.648438 21.503906 24.109375 22.769531 24.902344 24.28125 C 25.097656 24.652344 25.515625 24.839844 25.921875 24.738281 C 26.328125 24.640625 26.613281 24.277344 26.613281 23.859375 C 26.613281 18.148438 24.941406 14.429688 22.550781 12.144531 C 20.46875 10.152344 17.933594 9.332031 15.726562 9.164062 L 15.726562 7.199219 C 15.726562 7.175781 15.726562 7.15625 15.726562 7.136719 C 15.726562 6.609375 15.726562 6.121094 15.671875 5.746094 C 15.617188 5.375 15.464844 4.757812 14.832031 4.472656 C 14.199219 4.1875 13.636719 4.484375 13.324219 4.691406 C 13.007812 4.898438 12.640625 5.226562 12.25 5.574219 Z M 13.90625 6.53125 C 13.769531 6.648438 13.609375 6.792969 13.40625 6.972656 L 8.601562 11.242188 C 7.632812 12.105469 6.980469 12.6875 6.554688 13.1875 C 6.148438 13.664062 6.0625 13.945312 6.0625 14.183594 C 6.0625 14.417969 6.148438 14.699219 6.554688 15.175781 C 6.980469 15.675781 7.632812 16.257812 8.601562 17.121094 L 13.40625 21.390625 C 13.609375 21.570312 13.769531 21.714844 13.90625 21.832031 C 13.910156 21.648438 13.910156 21.433594 13.910156 21.164062 L 13.910156 18.328125 C 13.910156 17.828125 14.316406 17.421875 14.820312 17.421875 C 17.132812 17.421875 19.535156 17.972656 21.613281 18.984375 C 22.722656 19.523438 23.757812 20.207031 24.636719 21.023438 C 24.191406 17.339844 22.871094 14.960938 21.296875 13.453125 C 19.339844 11.578125 16.863281 10.941406 14.820312 10.941406 C 14.316406 10.941406 13.910156 10.535156 13.910156 10.035156 L 13.910156 7.199219 C 13.910156 6.929688 13.910156 6.714844 13.90625 6.53125 Z M 13.90625 6.53125 " fill-opacity="1" fill-rule="evenodd"/></svg>