<svg xmlns="http://www.w3.org/2000/svg" xmlns:xlink="http://www.w3.org/1999/xlink" width="500" zoomAndPan="magnify" viewBox="0 0 375 374.999991" height="500" preserveAspectRatio="xMidYMid meet" version="1.0"><path fill="#ff3434" d="M 151.96875 72 C 151.769531 72.179688 151.566406 72.359375 151.363281 72.539062 L 88.648438 128.285156 C 76.945312 138.6875 67.246094 147.308594 60.585938 155.136719 C 53.585938 163.363281 48.601562 172.21875 48.601562 183.179688 C 48.601562 194.140625 53.585938 202.996094 60.585938 211.222656 C 67.246094 219.050781 76.945312 227.671875 88.648438 238.074219 L 151.363281 293.820312 C 151.566406 294 151.769531 294.179688 151.96875 294.359375 C 157.039062 298.867188 161.769531 303.074219 165.855469 305.769531 C 169.871094 308.421875 177.167969 312.273438 185.34375 308.597656 C 193.519531 304.925781 195.492188 296.914062 196.179688 292.15625 C 196.875 287.308594 196.875 280.976562 196.875 274.191406 C 196.875 273.925781 196.875 273.65625 196.875 273.382812 L 196.875 248.875 C 219.554688 250.441406 242.535156 256.460938 262.640625 266.257812 C 286.28125 277.777344 305.160156 294.109375 315.40625 313.628906 C 317.910156 318.402344 323.351562 320.847656 328.585938 319.558594 C 333.820312 318.265625 337.5 313.570312 337.5 308.179688 C 337.5 234.414062 315.917969 186.382812 285.054688 156.855469 C 258.152344 131.117188 225.371094 120.554688 196.875 118.34375 L 196.875 92.972656 C 196.875 92.703125 196.875 92.433594 196.875 92.164062 C 196.875 85.382812 196.875 79.050781 196.179688 74.203125 C 195.492188 69.445312 193.519531 61.429688 185.34375 57.757812 C 177.167969 54.089844 169.871094 57.9375 165.855469 60.585938 C 161.769531 63.285156 157.039062 67.492188 151.96875 72 Z M 173.390625 84.382812 C 171.621094 85.894531 169.511719 87.761719 166.9375 90.054688 L 104.867188 145.226562 C 92.351562 156.351562 83.90625 163.894531 78.433594 170.324219 C 73.179688 176.5 72.039062 180.105469 72.039062 183.179688 C 72.039062 186.253906 73.179688 189.859375 78.433594 196.035156 C 83.90625 202.464844 92.351562 210.007812 104.867188 221.132812 L 166.9375 276.304688 C 169.511719 278.59375 171.621094 280.460938 173.390625 281.976562 C 173.433594 279.652344 173.4375 276.835938 173.4375 273.382812 L 173.4375 236.75 C 173.4375 230.277344 178.683594 225.03125 185.15625 225.03125 C 215.039062 225.03125 246.09375 232.125 272.90625 245.191406 C 287.261719 252.1875 300.628906 261.007812 311.96875 271.566406 C 306.207031 223.957031 289.179688 193.242188 268.851562 173.789062 C 243.539062 149.570312 211.554688 141.328125 185.15625 141.328125 C 178.683594 141.328125 173.4375 136.082031 173.4375 129.609375 L 173.4375 92.972656 C 173.4375 89.527344 173.433594 86.707031 173.390625 84.382812 Z M 173.390625 84.382812 " fill-opacity="1" fill-rule="evenodd"/></svg>