<svg xmlns="http://www.w3.org/2000/svg" xmlns:xlink="http://www.w3.org/1999/xlink" width="500" zoomAndPan="magnify" viewBox="0 0 375 374.999991" height="500" preserveAspectRatio="xMidYMid meet" version="1.0"><path fill="#ff3434" d="M 140.625 82.03125 C 134.152344 82.03125 128.90625 87.277344 128.90625 93.75 C 128.90625 100.222656 134.152344 105.46875 140.625 105.46875 L 234.375 105.46875 C 240.847656 105.46875 246.09375 100.222656 246.09375 93.75 C 246.09375 87.277344 240.847656 82.03125 234.375 82.03125 Z M 140.625 82.03125 " fill-opacity="1" fill-rule="nonzero"/><path fill="#ff3434" d="M 186.601562 19.53125 C 154.21875 19.53125 128.707031 19.53125 108.769531 22.238281 C 88.300781 25.023438 71.96875 30.855469 59.136719 43.824219 C 46.324219 56.777344 40.578125 73.234375 37.832031 93.867188 C 35.15625 113.992188 35.15625 139.757812 35.15625 172.515625 L 35.15625 252.171875 C 35.15625 275.726562 35.15625 294.378906 36.65625 308.417969 C 38.140625 322.296875 41.320312 334.8125 50.402344 343.183594 C 57.691406 349.902344 66.90625 354.132812 76.746094 355.261719 C 89.046875 356.667969 100.539062 350.792969 111.855469 342.777344 C 123.308594 334.664062 137.199219 322.375 154.726562 306.875 L 155.296875 306.367188 C 163.421875 299.179688 168.925781 294.332031 173.515625 290.976562 C 177.953125 287.730469 180.660156 286.558594 182.945312 286.097656 C 185.953125 285.492188 189.046875 285.492188 192.054688 286.097656 C 194.339844 286.558594 197.046875 287.730469 201.484375 290.976562 C 206.074219 294.332031 211.578125 299.179688 219.703125 306.367188 L 220.273438 306.875 C 237.800781 322.375 251.695312 334.664062 263.144531 342.777344 C 274.460938 350.792969 285.953125 356.667969 298.253906 355.261719 C 308.09375 354.132812 317.308594 349.902344 324.597656 343.183594 C 333.679688 334.8125 336.859375 322.296875 338.34375 308.417969 C 339.84375 294.378906 339.84375 275.726562 339.84375 252.171875 L 339.84375 172.515625 C 339.84375 139.757812 339.84375 113.992188 337.167969 93.867188 C 334.421875 73.234375 328.675781 56.777344 315.863281 43.824219 C 303.03125 30.855469 286.699219 25.023438 266.230469 22.238281 C 246.292969 19.53125 220.78125 19.53125 188.398438 19.53125 Z M 75.800781 60.308594 C 83.5625 52.460938 94.101562 47.886719 111.925781 45.464844 C 130.101562 42.996094 154.019531 42.96875 187.5 42.96875 C 220.980469 42.96875 244.898438 42.996094 263.074219 45.464844 C 280.898438 47.886719 291.4375 52.460938 299.199219 60.308594 C 306.980469 68.171875 311.53125 78.878906 313.933594 96.957031 C 316.382812 115.359375 316.40625 139.566406 316.40625 173.398438 L 316.40625 251.421875 C 316.40625 275.894531 316.390625 293.285156 315.039062 305.929688 C 313.65625 318.886719 311.101562 323.75 308.710938 325.949219 C 305.058594 329.316406 300.464844 331.417969 295.589844 331.976562 C 292.472656 332.332031 287.242188 331.125 276.691406 323.652344 C 266.402344 316.363281 253.453125 304.933594 235.230469 288.8125 L 234.820312 288.453125 C 227.207031 281.71875 220.894531 276.132812 215.320312 272.054688 C 209.492188 267.792969 203.613281 264.519531 196.683594 263.121094 C 190.621094 261.902344 184.378906 261.902344 178.316406 263.121094 C 171.386719 264.519531 165.507812 267.792969 159.679688 272.054688 C 154.105469 276.132812 147.792969 281.71875 140.179688 288.453125 L 139.769531 288.8125 C 121.542969 304.933594 108.597656 316.363281 98.308594 323.652344 C 87.757812 331.125 82.527344 332.332031 79.410156 331.976562 C 74.535156 331.417969 69.941406 329.316406 66.285156 325.949219 C 63.902344 323.75 61.347656 318.886719 59.960938 305.929688 C 58.609375 293.285156 58.59375 275.894531 58.59375 251.421875 L 58.59375 173.398438 C 58.59375 139.566406 58.617188 115.359375 61.066406 96.957031 C 63.46875 78.878906 68.019531 68.171875 75.800781 60.308594 Z M 75.800781 60.308594 " fill-opacity="1" fill-rule="evenodd"/></svg>