<svg xmlns="http://www.w3.org/2000/svg" xmlns:xlink="http://www.w3.org/1999/xlink" width="40" zoomAndPan="magnify" viewBox="0 0 30 30.000001" height="40" preserveAspectRatio="xMidYMid meet" version="1.0"><path fill="#ff3434" d="M 11.371094 6.351562 C 10.871094 6.351562 10.464844 6.757812 10.464844 7.257812 C 10.464844 7.757812 10.871094 8.164062 11.371094 8.164062 L 18.628906 8.164062 C 19.128906 8.164062 19.535156 7.757812 19.535156 7.257812 C 19.535156 6.757812 19.128906 6.351562 18.628906 6.351562 Z M 11.371094 6.351562 " fill-opacity="1" fill-rule="nonzero"/><path fill="#ff3434" d="M 14.929688 1.511719 C 12.421875 1.511719 10.449219 1.511719 8.90625 1.722656 C 7.320312 1.9375 6.054688 2.390625 5.0625 3.394531 C 4.070312 4.394531 3.625 5.667969 3.414062 7.265625 C 3.207031 8.824219 3.207031 10.820312 3.207031 13.355469 L 3.207031 19.523438 C 3.207031 21.347656 3.207031 22.789062 3.320312 23.878906 C 3.4375 24.953125 3.683594 25.921875 4.386719 26.570312 C 4.949219 27.089844 5.664062 27.417969 6.425781 27.503906 C 7.378906 27.613281 8.265625 27.160156 9.144531 26.539062 C 10.03125 25.910156 11.105469 24.957031 12.460938 23.757812 L 12.507812 23.71875 C 13.136719 23.164062 13.5625 22.785156 13.917969 22.527344 C 14.261719 22.277344 14.46875 22.183594 14.648438 22.148438 C 14.878906 22.101562 15.121094 22.101562 15.351562 22.148438 C 15.53125 22.183594 15.738281 22.277344 16.082031 22.527344 C 16.4375 22.785156 16.863281 23.164062 17.492188 23.71875 L 17.539062 23.757812 C 18.894531 24.957031 19.96875 25.910156 20.855469 26.539062 C 21.734375 27.160156 22.621094 27.613281 23.574219 27.503906 C 24.335938 27.417969 25.050781 27.089844 25.613281 26.570312 C 26.316406 25.921875 26.5625 24.953125 26.679688 23.878906 C 26.792969 22.789062 26.792969 21.347656 26.792969 19.523438 L 26.792969 13.355469 C 26.792969 10.820312 26.792969 8.824219 26.585938 7.265625 C 26.375 5.667969 25.929688 4.394531 24.9375 3.394531 C 23.945312 2.390625 22.679688 1.9375 21.09375 1.722656 C 19.550781 1.511719 17.578125 1.511719 15.070312 1.511719 Z M 6.351562 4.667969 C 6.953125 4.0625 7.769531 3.707031 9.148438 3.519531 C 10.554688 3.328125 12.40625 3.328125 15 3.328125 C 17.59375 3.328125 19.445312 3.328125 20.851562 3.519531 C 22.230469 3.707031 23.046875 4.0625 23.648438 4.667969 C 24.25 5.277344 24.601562 6.105469 24.789062 7.507812 C 24.976562 8.929688 24.980469 10.804688 24.980469 13.425781 L 24.980469 19.464844 C 24.980469 21.359375 24.980469 22.707031 24.875 23.683594 C 24.765625 24.6875 24.570312 25.066406 24.382812 25.234375 C 24.101562 25.496094 23.746094 25.65625 23.367188 25.703125 C 23.125 25.730469 22.722656 25.636719 21.90625 25.058594 C 21.109375 24.492188 20.105469 23.609375 18.695312 22.359375 L 18.664062 22.332031 C 18.074219 21.808594 17.585938 21.378906 17.152344 21.0625 C 16.703125 20.730469 16.246094 20.480469 15.710938 20.371094 C 15.242188 20.277344 14.757812 20.277344 14.289062 20.371094 C 13.753906 20.480469 13.296875 20.730469 12.847656 21.0625 C 12.414062 21.378906 11.925781 21.808594 11.335938 22.332031 L 11.304688 22.359375 C 9.894531 23.609375 8.890625 24.492188 8.09375 25.058594 C 7.277344 25.636719 6.875 25.730469 6.632812 25.703125 C 6.253906 25.65625 5.898438 25.496094 5.617188 25.234375 C 5.429688 25.066406 5.234375 24.6875 5.125 23.683594 C 5.019531 22.707031 5.019531 21.359375 5.019531 19.464844 L 5.019531 13.425781 C 5.019531 10.804688 5.023438 8.929688 5.210938 7.507812 C 5.398438 6.105469 5.75 5.277344 6.351562 4.667969 Z M 6.351562 4.667969 " fill-opacity="1" fill-rule="evenodd"/></svg>