<svg xmlns="http://www.w3.org/2000/svg" xmlns:xlink="http://www.w3.org/1999/xlink" width="40" zoomAndPan="magnify" viewBox="0 0 30 30.000001" height="40" preserveAspectRatio="xMidYMid meet" version="1.0"><path fill="#ff3434" d="M 11.308594 14.457031 C 11.308594 15.125 10.769531 15.664062 10.101562 15.664062 C 9.433594 15.664062 8.890625 15.125 8.890625 14.457031 C 8.890625 13.789062 9.433594 13.246094 10.101562 13.246094 C 10.769531 13.246094 11.308594 13.789062 11.308594 14.457031 Z M 11.308594 14.457031 " fill-opacity="1" fill-rule="nonzero"/><path fill="#ff3434" d="M 16.148438 14.457031 C 16.148438 15.125 15.609375 15.664062 14.941406 15.664062 C 14.269531 15.664062 13.730469 15.125 13.730469 14.457031 C 13.730469 13.789062 14.269531 13.246094 14.941406 13.246094 C 15.609375 13.246094 16.148438 13.789062 16.148438 14.457031 Z M 16.148438 14.457031 " fill-opacity="1" fill-rule="nonzero"/><path fill="#ff3434" d="M 20.988281 14.457031 C 20.988281 15.125 20.445312 15.664062 19.777344 15.664062 C 19.109375 15.664062 18.570312 15.125 18.570312 14.457031 C 18.570312 13.789062 19.109375 13.246094 19.777344 13.246094 C 20.445312 13.246094 20.988281 13.789062 20.988281 14.457031 Z M 20.988281 14.457031 " fill-opacity="1" fill-rule="nonzero"/><path fill="#ff3434" d="M 27.945312 14.457031 C 27.945312 7.273438 22.121094 1.453125 14.941406 1.453125 C 7.757812 1.453125 1.933594 7.273438 1.933594 14.457031 C 1.933594 16.535156 2.425781 18.5 3.292969 20.246094 C 3.421875 20.507812 3.449219 20.773438 3.390625 20.996094 L 2.667969 23.6875 C 2.175781 25.53125 3.863281 27.21875 5.707031 26.726562 L 8.398438 26.003906 C 8.621094 25.945312 8.886719 25.972656 9.148438 26.101562 C 10.894531 26.972656 12.859375 27.460938 14.941406 27.460938 C 22.121094 27.460938 27.945312 21.636719 27.945312 14.457031 Z M 14.941406 3.265625 C 21.121094 3.265625 26.128906 8.277344 26.128906 14.457031 C 26.128906 20.636719 21.121094 25.644531 14.941406 25.644531 C 13.148438 25.644531 11.457031 25.226562 9.957031 24.476562 C 9.355469 24.179688 8.636719 24.0625 7.929688 24.253906 L 5.238281 24.972656 C 4.742188 25.105469 4.289062 24.652344 4.421875 24.15625 L 5.144531 21.464844 C 5.332031 20.757812 5.214844 20.039062 4.917969 19.4375 C 4.171875 17.9375 3.75 16.246094 3.75 14.457031 C 3.75 8.277344 8.757812 3.265625 14.941406 3.265625 Z M 14.941406 3.265625 " fill-opacity="1" fill-rule="evenodd"/></svg>