<svg xmlns="http://www.w3.org/2000/svg" xmlns:xlink="http://www.w3.org/1999/xlink" width="500" zoomAndPan="magnify" viewBox="0 0 375 374.999991" height="500" preserveAspectRatio="xMidYMid meet" version="1.0"><path fill="#ff3434" d="M 139.84375 186.71875 C 139.84375 195.347656 132.847656 202.34375 124.21875 202.34375 C 115.589844 202.34375 108.59375 195.347656 108.59375 186.71875 C 108.59375 178.089844 115.589844 171.09375 124.21875 171.09375 C 132.847656 171.09375 139.84375 178.089844 139.84375 186.71875 Z M 139.84375 186.71875 " fill-opacity="1" fill-rule="nonzero"/><path fill="#ff3434" d="M 202.34375 186.71875 C 202.34375 195.347656 195.347656 202.34375 186.71875 202.34375 C 178.089844 202.34375 171.09375 195.347656 171.09375 186.71875 C 171.09375 178.089844 178.089844 171.09375 186.71875 171.09375 C 195.347656 171.09375 202.34375 178.089844 202.34375 186.71875 Z M 202.34375 186.71875 " fill-opacity="1" fill-rule="nonzero"/><path fill="#ff3434" d="M 264.84375 186.71875 C 264.84375 195.347656 257.847656 202.34375 249.21875 202.34375 C 240.589844 202.34375 233.59375 195.347656 233.59375 186.71875 C 233.59375 178.089844 240.589844 171.09375 249.21875 171.09375 C 257.847656 171.09375 264.84375 178.089844 264.84375 186.71875 Z M 264.84375 186.71875 " fill-opacity="1" fill-rule="nonzero"/><path fill="#ff3434" d="M 354.6875 186.71875 C 354.6875 93.953125 279.484375 18.75 186.71875 18.75 C 93.953125 18.75 18.75 93.953125 18.75 186.71875 C 18.75 213.566406 25.058594 238.976562 36.28125 261.515625 C 37.957031 264.875 38.3125 268.3125 37.539062 271.199219 L 28.234375 305.980469 C 21.863281 329.792969 43.644531 351.574219 67.457031 345.203125 L 102.238281 335.898438 C 105.128906 335.125 108.5625 335.480469 111.925781 337.15625 C 134.460938 348.378906 159.871094 354.6875 186.71875 354.6875 C 279.484375 354.6875 354.6875 279.484375 354.6875 186.71875 Z M 186.71875 42.1875 C 266.539062 42.1875 331.25 106.894531 331.25 186.71875 C 331.25 266.539062 266.539062 331.25 186.71875 331.25 C 163.578125 331.25 141.738281 325.820312 122.375 316.175781 C 114.601562 312.304688 105.308594 310.8125 96.179688 313.257812 L 61.398438 322.5625 C 55.011719 324.273438 49.167969 318.425781 50.875 312.039062 L 60.183594 277.257812 C 62.625 268.128906 61.132812 258.835938 57.261719 251.0625 C 47.617188 231.699219 42.1875 209.859375 42.1875 186.71875 C 42.1875 106.894531 106.894531 42.1875 186.71875 42.1875 Z M 186.71875 42.1875 " fill-opacity="1" fill-rule="evenodd"/></svg>