<svg xmlns="http://www.w3.org/2000/svg" xmlns:xlink="http://www.w3.org/1999/xlink" width="500" zoomAndPan="magnify" viewBox="0 0 375 374.999991" height="500" preserveAspectRatio="xMidYMid meet" version="1.0"><path fill="#ff3434" d="M 79.949219 121.121094 C 86.40625 120.691406 91.992188 125.574219 92.421875 132.035156 L 99.609375 239.832031 C 101.011719 260.894531 102.011719 275.546875 104.210938 286.570312 C 106.339844 297.265625 109.3125 302.925781 113.585938 306.921875 C 117.859375 310.921875 123.703125 313.511719 134.515625 314.925781 C 145.664062 316.382812 160.351562 316.40625 181.457031 316.40625 L 193.542969 316.40625 C 214.648438 316.40625 229.335938 316.382812 240.484375 314.925781 C 251.296875 313.511719 257.144531 310.921875 261.414062 306.921875 C 265.6875 302.925781 268.660156 297.265625 270.792969 286.570312 C 272.988281 275.546875 273.988281 260.894531 275.390625 239.832031 L 282.578125 132.035156 C 283.007812 125.574219 288.59375 120.691406 295.050781 121.121094 C 301.507812 121.550781 306.394531 127.136719 305.964844 133.59375 L 298.722656 242.214844 C 297.386719 262.257812 296.308594 278.445312 293.777344 291.148438 C 291.144531 304.359375 286.671875 315.390625 277.425781 324.039062 C 268.183594 332.6875 256.875 336.417969 243.523438 338.164062 C 230.679688 339.84375 214.453125 339.84375 194.367188 339.84375 L 180.632812 339.84375 C 160.546875 339.84375 144.320312 339.84375 131.476562 338.164062 C 118.125 336.417969 106.816406 332.6875 97.574219 324.039062 C 88.332031 315.390625 83.855469 304.359375 81.222656 291.148438 C 78.691406 278.445312 77.613281 262.257812 76.277344 242.214844 L 69.035156 133.59375 C 68.605469 127.136719 73.492188 121.550781 79.949219 121.121094 Z M 79.949219 121.121094 " fill-opacity="1" fill-rule="evenodd"/><path fill="#ff3434" d="M 161.800781 35.15625 L 161.082031 35.15625 C 157.703125 35.15625 154.757812 35.152344 151.976562 35.597656 C 140.984375 37.351562 131.476562 44.207031 126.335938 54.074219 C 125.035156 56.574219 124.105469 59.371094 123.039062 62.578125 L 122.8125 63.257812 L 121.292969 67.808594 C 121 68.699219 120.914062 68.945312 120.84375 69.144531 C 118.105469 76.707031 111.011719 81.820312 102.972656 82.027344 C 102.761719 82.03125 102.5 82.03125 101.5625 82.03125 L 54.6875 82.03125 C 48.214844 82.03125 42.96875 87.277344 42.96875 93.75 C 42.96875 100.222656 48.214844 105.46875 54.6875 105.46875 L 320.3125 105.46875 C 326.785156 105.46875 332.03125 100.222656 332.03125 93.75 C 332.03125 87.277344 326.785156 82.03125 320.3125 82.03125 L 273.4375 82.03125 C 272.5 82.03125 272.242188 82.03125 272.027344 82.027344 C 263.988281 81.820312 256.894531 76.707031 254.15625 69.144531 C 254.085938 68.945312 254.003906 68.695312 253.707031 67.808594 L 252.1875 63.257812 L 251.960938 62.578125 C 250.894531 59.367188 249.964844 56.574219 248.664062 54.074219 C 243.523438 44.207031 234.015625 37.351562 223.027344 35.597656 C 220.246094 35.152344 217.300781 35.15625 213.917969 35.15625 Z M 142.882812 77.117188 C 142.269531 78.8125 141.554688 80.453125 140.75 82.03125 L 234.25 82.03125 C 233.445312 80.453125 232.730469 78.8125 232.117188 77.117188 L 231.515625 75.347656 L 229.953125 70.671875 C 228.53125 66.398438 228.203125 65.527344 227.875 64.902344 C 226.164062 61.609375 222.992188 59.324219 219.328125 58.742188 C 218.632812 58.628906 217.703125 58.59375 213.199219 58.59375 L 161.800781 58.59375 C 157.296875 58.59375 156.367188 58.628906 155.671875 58.742188 C 152.007812 59.324219 148.835938 61.609375 147.125 64.902344 C 146.800781 65.527344 146.472656 66.398438 145.046875 70.671875 L 143.488281 75.347656 C 143.253906 76.054688 143.070312 76.601562 142.882812 77.117188 Z M 142.882812 77.117188 " fill-opacity="1" fill-rule="evenodd"/></svg>