<svg xmlns="http://www.w3.org/2000/svg" xmlns:xlink="http://www.w3.org/1999/xlink" width="40" zoomAndPan="magnify" viewBox="0 0 30 30.000001" height="40" preserveAspectRatio="xMidYMid meet" version="1.0"><path fill="#ff5050" d="M 6.671875 9.378906 C 7.171875 9.34375 7.605469 9.722656 7.640625 10.222656 L 8.195312 18.566406 C 8.304688 20.199219 8.382812 21.332031 8.550781 22.1875 C 8.714844 23.015625 8.945312 23.453125 9.277344 23.761719 C 9.609375 24.070312 10.0625 24.273438 10.898438 24.382812 C 11.761719 24.496094 12.898438 24.496094 14.53125 24.496094 L 15.46875 24.496094 C 17.101562 24.496094 18.238281 24.496094 19.101562 24.382812 C 19.9375 24.273438 20.390625 24.070312 20.722656 23.761719 C 21.054688 23.453125 21.285156 23.015625 21.449219 22.1875 C 21.617188 21.332031 21.695312 20.199219 21.804688 18.566406 L 22.359375 10.222656 C 22.394531 9.722656 22.828125 9.34375 23.328125 9.378906 C 23.828125 9.410156 24.203125 9.84375 24.171875 10.34375 L 23.609375 18.753906 C 23.507812 20.304688 23.425781 21.558594 23.226562 22.539062 C 23.023438 23.5625 22.675781 24.417969 21.960938 25.085938 C 21.246094 25.757812 20.371094 26.046875 19.335938 26.179688 C 18.34375 26.3125 17.085938 26.308594 15.53125 26.308594 L 14.46875 26.308594 C 12.914062 26.308594 11.65625 26.3125 10.664062 26.179688 C 9.628906 26.046875 8.753906 25.757812 8.039062 25.085938 C 7.324219 24.417969 6.976562 23.5625 6.773438 22.539062 C 6.578125 21.558594 6.492188 20.304688 6.390625 18.753906 L 5.828125 10.34375 C 5.796875 9.84375 6.171875 9.410156 6.671875 9.378906 Z M 6.671875 9.378906 " fill-opacity="1" fill-rule="evenodd"/><path fill="#ff5050" d="M 13.011719 2.722656 L 12.953125 2.722656 C 12.691406 2.722656 12.464844 2.722656 12.25 2.757812 C 11.398438 2.890625 10.664062 3.421875 10.265625 4.1875 C 10.164062 4.378906 10.09375 4.597656 10.007812 4.84375 L 9.992188 4.898438 L 9.875 5.25 C 9.851562 5.320312 9.84375 5.335938 9.839844 5.351562 C 9.628906 5.9375 9.078125 6.335938 8.457031 6.351562 C 8.441406 6.351562 8.417969 6.351562 8.347656 6.351562 L 4.71875 6.351562 C 4.214844 6.351562 3.808594 6.757812 3.808594 7.257812 C 3.808594 7.757812 4.214844 8.164062 4.71875 8.164062 L 25.28125 8.164062 C 25.785156 8.164062 26.191406 7.757812 26.191406 7.257812 C 26.191406 6.757812 25.785156 6.351562 25.28125 6.351562 L 21.652344 6.351562 C 21.582031 6.351562 21.5625 6.351562 21.542969 6.351562 C 20.921875 6.335938 20.371094 5.9375 20.160156 5.351562 C 20.15625 5.335938 20.148438 5.320312 20.125 5.25 L 20.007812 4.898438 L 19.992188 4.84375 C 19.90625 4.597656 19.835938 4.378906 19.734375 4.1875 C 19.335938 3.421875 18.601562 2.890625 17.75 2.757812 C 17.535156 2.722656 17.308594 2.722656 17.046875 2.722656 Z M 11.546875 5.96875 C 11.5 6.101562 11.441406 6.230469 11.378906 6.351562 L 18.621094 6.351562 C 18.558594 6.230469 18.5 6.101562 18.453125 5.96875 L 18.40625 5.832031 L 18.285156 5.472656 C 18.175781 5.140625 18.152344 5.074219 18.125 5.023438 C 17.992188 4.769531 17.746094 4.59375 17.464844 4.546875 C 17.410156 4.539062 17.339844 4.535156 16.988281 4.535156 L 13.011719 4.535156 C 12.660156 4.535156 12.589844 4.539062 12.535156 4.546875 C 12.253906 4.59375 12.007812 4.769531 11.875 5.023438 C 11.847656 5.074219 11.824219 5.140625 11.714844 5.472656 L 11.59375 5.832031 C 11.574219 5.886719 11.558594 5.929688 11.546875 5.96875 Z M 11.546875 5.96875 " fill-opacity="1" fill-rule="evenodd"/></svg>