<svg xmlns="http://www.w3.org/2000/svg" xmlns:xlink="http://www.w3.org/1999/xlink" width="40" zoomAndPan="magnify" viewBox="0 0 30 30.000001" height="40" preserveAspectRatio="xMidYMid meet" version="1.0"><defs><clipPath id="5ead010be9"><path d="M 0.484375 0 L 29.515625 0 L 29.515625 29.03125 L 0.484375 29.03125 Z M 0.484375 0 " clip-rule="nonzero"/></clipPath></defs><g clip-path="url(#5ead010be9)"><path fill="#ffffff" d="M 0.484375 0 L 29.515625 0 L 29.515625 29.03125 L 0.484375 29.03125 Z M 0.484375 0 " fill-opacity="1" fill-rule="nonzero"/><path fill="#ffffff" d="M 0.484375 0 L 29.515625 0 L 29.515625 29.03125 L 0.484375 29.03125 Z M 0.484375 0 " fill-opacity="1" fill-rule="nonzero"/><path fill="#ff3434" d="M 26.070312 20.105469 C 30.664062 15.511719 30.664062 8.039062 26.070312 3.445312 C 21.476562 -1.148438 14.003906 -1.148438 9.410156 3.445312 C 5.515625 7.339844 4.925781 13.136719 7.640625 17.664062 C 7.640625 17.664062 7.835938 17.988281 7.570312 18.253906 C 6.070312 19.753906 1.5625 24.261719 1.5625 24.261719 C 0.363281 25.460938 0.078125 27.132812 1.140625 28.191406 L 1.324219 28.375 C 2.382812 29.4375 4.058594 29.152344 5.253906 27.957031 C 5.253906 27.957031 9.75 23.457031 11.25 21.957031 C 11.527344 21.683594 11.855469 21.875 11.855469 21.875 C 16.378906 24.589844 22.175781 24 26.070312 20.105469 Z M 11.585938 17.929688 C 8.191406 14.535156 8.191406 9.015625 11.585938 5.621094 C 14.980469 2.226562 20.503906 2.226562 23.894531 5.621094 C 27.289062 9.015625 27.289062 14.535156 23.894531 17.929688 C 20.503906 21.324219 14.980469 21.324219 11.585938 17.929688 Z M 11.585938 17.929688 " fill-opacity="1" fill-rule="nonzero"/></g><path fill="#ff3434" d="M 12.339844 11.074219 C 12.179688 11.074219 12.019531 11.042969 11.863281 10.980469 C 11.246094 10.71875 10.957031 10.003906 11.21875 9.386719 C 12.863281 5.5 17.363281 3.675781 21.25 5.320312 C 21.867188 5.582031 22.160156 6.292969 21.898438 6.914062 C 21.636719 7.53125 20.921875 7.820312 20.304688 7.558594 C 17.652344 6.4375 14.582031 7.679688 13.457031 10.332031 C 13.261719 10.796875 12.8125 11.074219 12.339844 11.074219 Z M 12.339844 11.074219 " fill-opacity="1" fill-rule="nonzero"/></svg>