<svg xmlns="http://www.w3.org/2000/svg" xmlns:xlink="http://www.w3.org/1999/xlink" width="40" zoomAndPan="magnify" viewBox="0 0 30 30.000001" height="40" preserveAspectRatio="xMidYMid meet" version="1.0"><path fill="#ff3434" d="M 14.929688 1.511719 L 16.816406 1.511719 C 17.316406 1.511719 17.722656 1.917969 17.722656 2.417969 C 17.722656 2.921875 17.316406 3.328125 16.816406 3.328125 L 15 3.328125 C 12.125 3.328125 10.058594 3.328125 8.484375 3.539062 C 6.9375 3.746094 6.003906 4.144531 5.316406 4.832031 C 4.628906 5.523438 4.230469 6.453125 4.023438 8 C 3.8125 9.574219 3.808594 11.640625 3.808594 14.515625 C 3.808594 17.394531 3.8125 19.460938 4.023438 21.03125 C 4.230469 22.578125 4.628906 23.511719 5.316406 24.199219 C 6.003906 24.890625 6.9375 25.285156 8.484375 25.492188 C 10.058594 25.703125 12.125 25.707031 15 25.707031 C 17.875 25.707031 19.941406 25.703125 21.515625 25.492188 C 23.0625 25.285156 23.996094 24.890625 24.683594 24.199219 C 25.371094 23.511719 25.769531 22.578125 25.976562 21.03125 C 26.1875 19.460938 26.191406 17.394531 26.191406 14.515625 L 26.191406 12.703125 C 26.191406 12.199219 26.597656 11.792969 27.097656 11.792969 C 27.597656 11.792969 28.003906 12.199219 28.003906 12.703125 L 28.003906 14.585938 C 28.003906 17.378906 28.003906 19.566406 27.773438 21.273438 C 27.539062 23.019531 27.050781 24.402344 25.964844 25.484375 C 24.882812 26.566406 23.503906 27.054688 21.757812 27.289062 C 20.050781 27.519531 17.863281 27.519531 15.070312 27.519531 L 14.929688 27.519531 C 12.136719 27.519531 9.949219 27.519531 8.242188 27.289062 C 6.496094 27.054688 5.117188 26.566406 4.035156 25.484375 C 2.949219 24.402344 2.460938 23.019531 2.226562 21.273438 C 1.996094 19.566406 1.996094 17.378906 1.996094 14.585938 L 1.996094 14.445312 C 1.996094 11.652344 1.996094 9.464844 2.226562 7.757812 C 2.460938 6.011719 2.949219 4.632812 4.035156 3.550781 C 5.117188 2.46875 6.496094 1.976562 8.242188 1.742188 C 9.949219 1.511719 12.136719 1.511719 14.929688 1.511719 Z M 20.769531 2.753906 C 22.425781 1.097656 25.109375 1.097656 26.761719 2.753906 C 28.417969 4.40625 28.417969 7.089844 26.761719 8.746094 L 18.722656 16.789062 C 18.273438 17.238281 17.992188 17.519531 17.675781 17.761719 C 17.308594 18.050781 16.90625 18.296875 16.484375 18.5 C 16.125 18.671875 15.746094 18.796875 15.144531 19 L 11.628906 20.167969 C 10.980469 20.386719 10.265625 20.21875 9.78125 19.734375 C 9.300781 19.25 9.128906 18.535156 9.347656 17.886719 L 10.519531 14.371094 C 10.71875 13.769531 10.84375 13.390625 11.015625 13.03125 C 11.21875 12.609375 11.464844 12.210938 11.753906 11.839844 C 12 11.527344 12.28125 11.246094 12.730469 10.796875 Z M 25.480469 4.035156 C 24.535156 3.089844 23 3.089844 22.054688 4.035156 L 21.597656 4.492188 C 21.625 4.609375 21.664062 4.746094 21.71875 4.898438 C 21.890625 5.398438 22.21875 6.058594 22.839844 6.675781 C 23.457031 7.296875 24.117188 7.625 24.617188 7.796875 C 24.769531 7.851562 24.910156 7.890625 25.023438 7.917969 L 25.480469 7.460938 C 26.425781 6.515625 26.425781 4.980469 25.480469 4.035156 Z M 23.59375 9.347656 C 22.972656 9.078125 22.242188 8.648438 21.554688 7.960938 C 20.867188 7.273438 20.4375 6.546875 20.167969 5.921875 L 14.054688 12.035156 C 13.550781 12.539062 13.351562 12.742188 13.183594 12.957031 C 12.976562 13.222656 12.800781 13.507812 12.652344 13.8125 C 12.535156 14.058594 12.445312 14.324219 12.21875 15.003906 L 11.699219 16.570312 L 12.945312 17.816406 L 14.515625 17.296875 C 15.191406 17.070312 15.457031 16.980469 15.703125 16.863281 C 16.007812 16.71875 16.292969 16.539062 16.5625 16.332031 C 16.777344 16.164062 16.976562 15.964844 17.480469 15.460938 Z M 23.59375 9.347656 " fill-opacity="1" fill-rule="evenodd"/></svg>