<svg xmlns="http://www.w3.org/2000/svg" xmlns:xlink="http://www.w3.org/1999/xlink" width="500" zoomAndPan="magnify" viewBox="0 0 375 374.999991" height="500" preserveAspectRatio="xMidYMid meet" version="1.0"><path fill="#ff3434" d="M 186.601562 19.53125 L 210.9375 19.53125 C 217.410156 19.53125 222.65625 24.777344 222.65625 31.25 C 222.65625 37.722656 217.410156 42.96875 210.9375 42.96875 L 187.5 42.96875 C 150.339844 42.96875 123.648438 42.992188 103.335938 45.722656 C 83.363281 48.410156 71.320312 53.519531 62.417969 62.417969 C 53.519531 71.320312 48.410156 83.363281 45.722656 103.335938 C 42.992188 123.648438 42.96875 150.339844 42.96875 187.5 C 42.96875 224.660156 42.992188 251.351562 45.722656 271.664062 C 48.410156 291.636719 53.519531 303.679688 62.417969 312.582031 C 71.320312 321.480469 83.363281 326.589844 103.335938 329.273438 C 123.648438 332.007812 150.339844 332.03125 187.5 332.03125 C 224.660156 332.03125 251.351562 332.007812 271.664062 329.273438 C 291.636719 326.589844 303.679688 321.480469 312.582031 312.582031 C 321.480469 303.679688 326.589844 291.636719 329.273438 271.664062 C 332.007812 251.351562 332.03125 224.660156 332.03125 187.5 L 332.03125 164.0625 C 332.03125 157.589844 337.277344 152.34375 343.75 152.34375 C 350.222656 152.34375 355.46875 157.589844 355.46875 164.0625 L 355.46875 188.398438 C 355.46875 224.464844 355.46875 252.730469 352.503906 274.785156 C 349.46875 297.359375 343.136719 315.171875 329.152344 329.152344 C 315.171875 343.136719 297.359375 349.46875 274.785156 352.503906 C 252.730469 355.46875 224.464844 355.46875 188.398438 355.46875 L 186.601562 355.46875 C 150.535156 355.46875 122.269531 355.46875 100.214844 352.503906 C 77.640625 349.46875 59.828125 343.136719 45.847656 329.152344 C 31.863281 315.171875 25.53125 297.359375 22.496094 274.785156 C 19.53125 252.730469 19.53125 224.464844 19.53125 188.398438 L 19.53125 186.601562 C 19.53125 150.535156 19.53125 122.269531 22.496094 100.214844 C 25.53125 77.640625 31.863281 59.828125 45.847656 45.847656 C 59.828125 31.863281 77.640625 25.53125 100.214844 22.496094 C 122.269531 19.53125 150.535156 19.53125 186.601562 19.53125 Z M 262.039062 35.5625 C 283.414062 14.1875 318.066406 14.1875 339.4375 35.5625 C 360.8125 56.933594 360.8125 91.585938 339.4375 112.960938 L 235.5625 216.835938 C 229.761719 222.640625 226.128906 226.273438 222.070312 229.4375 C 217.292969 233.164062 212.128906 236.355469 206.660156 238.960938 C 202.015625 241.175781 197.140625 242.800781 189.355469 245.394531 L 143.972656 260.523438 C 135.59375 263.316406 126.355469 261.132812 120.113281 254.886719 C 113.867188 248.644531 111.683594 239.40625 114.476562 231.027344 L 129.605469 185.644531 C 132.199219 177.859375 133.824219 172.984375 136.039062 168.339844 C 138.644531 162.871094 141.835938 157.707031 145.5625 152.929688 C 148.726562 148.871094 152.363281 145.238281 158.164062 139.4375 Z M 322.867188 52.132812 C 310.644531 39.914062 290.832031 39.914062 278.613281 52.132812 L 272.726562 58.019531 C 273.082031 59.515625 273.578125 61.300781 274.269531 63.292969 C 276.507812 69.746094 280.746094 78.246094 288.75 86.25 C 296.753906 94.253906 305.253906 98.492188 311.707031 100.730469 C 313.699219 101.421875 315.484375 101.917969 316.980469 102.273438 L 322.867188 96.386719 C 335.085938 84.167969 335.085938 64.355469 322.867188 52.132812 Z M 298.519531 120.734375 C 290.457031 117.269531 281.066406 111.710938 272.175781 102.824219 C 263.289062 93.933594 257.730469 84.542969 254.265625 76.480469 L 175.273438 155.472656 C 168.765625 161.980469 166.214844 164.5625 164.042969 167.34375 C 161.367188 170.777344 159.070312 174.492188 157.195312 178.425781 C 155.675781 181.609375 154.511719 185.046875 151.601562 193.777344 L 144.851562 214.023438 L 160.976562 230.148438 L 181.222656 223.398438 C 189.953125 220.488281 193.390625 219.320312 196.574219 217.804688 C 200.507812 215.929688 204.222656 213.632812 207.65625 210.957031 C 210.4375 208.785156 213.019531 206.234375 219.527344 199.726562 Z M 298.519531 120.734375 " fill-opacity="1" fill-rule="evenodd"/></svg>