<svg xmlns="http://www.w3.org/2000/svg" xmlns:xlink="http://www.w3.org/1999/xlink" width="40" zoomAndPan="magnify" viewBox="0 0 30 30.000001" height="40" preserveAspectRatio="xMidYMid meet" version="1.0"><path fill="#ff3434" d="M 5.589844 10.101562 L 5.679688 10.101562 C 6.503906 10.042969 7.121094 9.339844 7.089844 8.515625 C 7.03125 7.691406 6.328125 7.074219 5.503906 7.105469 C 4.679688 7.132812 4.0625 7.867188 4.09375 8.691406 C 4.121094 9.484375 4.796875 10.101562 5.589844 10.101562 Z M 4.886719 7.984375 C 5.035156 7.808594 5.269531 7.691406 5.503906 7.691406 L 5.5625 7.691406 C 6.0625 7.691406 6.472656 8.101562 6.472656 8.601562 C 6.472656 9.101562 6.0625 9.515625 5.5625 9.515625 C 5.0625 9.515625 4.652344 9.101562 4.652344 8.601562 C 4.652344 8.367188 4.738281 8.164062 4.886719 7.984375 Z M 4.886719 7.984375 " fill-opacity="1" fill-rule="nonzero"/><path fill="#ff3434" d="M 25.695312 8.457031 L 17.847656 8.015625 L 17.789062 7.132812 C 17.703125 5.457031 16.261719 4.164062 14.558594 4.253906 L 4.59375 4.8125 C 2.917969 4.898438 1.625 6.371094 1.710938 8.042969 L 2.269531 18.039062 L 2.269531 18.273438 C 2.476562 19.800781 3.769531 20.949219 5.296875 20.949219 L 5.472656 20.949219 L 11.851562 20.597656 L 11.851562 20.773438 C 11.765625 22.449219 13.027344 23.917969 14.734375 24.003906 L 24.726562 24.59375 L 24.902344 24.59375 C 26.519531 24.59375 27.871094 23.328125 27.960938 21.710938 L 28.546875 11.71875 C 28.664062 10.015625 27.371094 8.574219 25.695312 8.457031 Z M 2.917969 6.222656 C 3.359375 5.722656 3.976562 5.429688 4.621094 5.398438 L 14.617188 4.839844 C 15.96875 4.753906 17.144531 5.8125 17.230469 7.164062 L 17.289062 7.984375 L 15.734375 7.898438 C 14.058594 7.808594 12.585938 9.074219 12.5 10.777344 L 12.324219 13.570312 L 9.53125 16.714844 C 9.472656 16.804688 9.355469 16.832031 9.238281 16.863281 C 9.117188 16.863281 9.03125 16.832031 8.941406 16.746094 L 6.648438 14.6875 C 6.238281 14.304688 5.621094 14.363281 5.238281 14.777344 L 2.859375 17.449219 L 2.328125 8.042969 C 2.269531 7.367188 2.503906 6.722656 2.917969 6.222656 Z M 5.472656 20.332031 C 4.210938 20.390625 3.09375 19.507812 2.886719 18.246094 L 5.652344 15.15625 C 5.710938 15.070312 5.828125 15.039062 5.945312 15.011719 C 6.0625 15.011719 6.148438 15.039062 6.238281 15.128906 L 8.53125 17.1875 C 8.738281 17.363281 9 17.449219 9.265625 17.449219 C 9.53125 17.449219 9.765625 17.304688 9.941406 17.128906 L 12.234375 14.539062 L 11.910156 20.007812 Z M 27.960938 11.660156 L 27.371094 21.652344 C 27.285156 23.007812 26.109375 24.0625 24.757812 23.976562 L 14.761719 23.386719 C 13.410156 23.300781 12.351562 22.125 12.441406 20.773438 L 13.027344 10.777344 C 13.117188 9.484375 14.175781 8.457031 15.496094 8.457031 L 15.644531 8.457031 L 25.636719 9.042969 C 27.019531 9.132812 28.046875 10.308594 27.960938 11.660156 Z M 27.960938 11.660156 " fill-opacity="1" fill-rule="nonzero"/><path fill="#ff3434" d="M 23.785156 15.277344 L 18.820312 12.011719 C 18.203125 11.601562 17.378906 11.777344 16.996094 12.394531 C 16.878906 12.601562 16.789062 12.804688 16.789062 13.042969 L 16.4375 18.949219 C 16.410156 19.683594 16.9375 20.300781 17.671875 20.359375 L 17.761719 20.359375 C 17.964844 20.359375 18.171875 20.300781 18.347656 20.214844 L 23.640625 17.566406 C 24.285156 17.246094 24.550781 16.453125 24.226562 15.804688 C 24.109375 15.597656 23.964844 15.421875 23.785156 15.277344 Z M 23.375 17.039062 L 18.085938 19.683594 C 17.964844 19.742188 17.847656 19.773438 17.703125 19.773438 C 17.585938 19.773438 17.4375 19.714844 17.347656 19.65625 C 17.144531 19.507812 16.996094 19.273438 17.027344 19.007812 L 17.378906 13.101562 C 17.40625 12.835938 17.554688 12.601562 17.789062 12.484375 C 18.027344 12.367188 18.289062 12.394531 18.523438 12.511719 L 23.433594 15.773438 C 23.785156 16.011719 23.875 16.453125 23.640625 16.773438 C 23.582031 16.890625 23.492188 16.980469 23.375 17.039062 Z M 23.375 17.039062 " fill-opacity="1" fill-rule="nonzero"/></svg>