<svg xmlns="http://www.w3.org/2000/svg" xmlns:xlink="http://www.w3.org/1999/xlink" width="500" zoomAndPan="magnify" viewBox="0 0 375 374.999991" height="500" preserveAspectRatio="xMidYMid meet" version="1.0"><path fill="#ff3434" d="M 65.785156 170.453125 L 66.929688 170.453125 C 77.574219 169.691406 85.5625 160.566406 85.179688 149.917969 C 84.417969 139.269531 75.292969 131.285156 64.644531 131.664062 C 54 132.046875 46.011719 141.550781 46.394531 152.199219 C 46.773438 162.464844 55.519531 170.453125 65.785156 170.453125 Z M 56.660156 143.074219 C 58.5625 140.792969 61.605469 139.269531 64.644531 139.269531 L 65.40625 139.269531 C 71.871094 139.269531 77.195312 144.59375 77.195312 151.058594 C 77.195312 157.523438 71.871094 162.847656 65.40625 162.847656 C 58.941406 162.847656 53.617188 157.523438 53.617188 151.058594 C 53.617188 148.015625 54.757812 145.355469 56.660156 143.074219 Z M 56.660156 143.074219 " fill-opacity="1" fill-rule="nonzero"/><path fill="#ff3434" d="M 325.886719 149.15625 L 224.355469 143.453125 L 223.597656 132.046875 C 222.457031 110.371094 203.824219 93.640625 181.769531 94.78125 L 52.859375 102.003906 C 31.183594 103.144531 14.453125 122.160156 15.59375 143.832031 L 22.820312 273.121094 L 22.820312 276.164062 C 25.480469 295.9375 42.214844 310.765625 61.988281 310.765625 L 64.269531 310.765625 L 146.785156 306.203125 L 146.785156 308.484375 C 145.644531 330.160156 161.996094 349.171875 184.050781 350.3125 L 313.339844 357.917969 L 315.621094 357.917969 C 336.535156 357.917969 354.027344 341.566406 355.167969 320.652344 L 362.773438 191.367188 C 364.292969 169.3125 347.5625 150.679688 325.886719 149.15625 Z M 31.183594 120.257812 C 36.890625 113.792969 44.875 109.988281 53.242188 109.609375 L 182.527344 102.386719 C 200.019531 101.246094 215.230469 114.933594 216.371094 132.425781 L 217.132812 143.074219 L 196.980469 141.933594 C 175.304688 140.792969 156.289062 157.140625 155.148438 179.199219 L 152.867188 215.320312 L 116.742188 256.007812 C 115.984375 257.152344 114.460938 257.53125 112.941406 257.910156 C 111.421875 257.910156 110.28125 257.53125 109.140625 256.390625 L 79.480469 229.773438 C 74.15625 224.828125 66.167969 225.589844 61.226562 230.914062 L 30.425781 265.515625 L 23.582031 143.832031 C 22.820312 135.085938 25.863281 126.722656 31.183594 120.257812 Z M 64.269531 302.78125 C 47.917969 303.542969 33.46875 292.132812 30.804688 275.785156 L 66.550781 235.855469 C 67.308594 234.714844 68.832031 234.335938 70.351562 233.953125 C 71.875 233.953125 73.015625 234.335938 74.15625 235.476562 L 103.816406 262.09375 C 106.476562 264.375 109.898438 265.515625 113.320312 265.515625 C 116.742188 265.515625 119.785156 263.613281 122.066406 261.332031 L 151.726562 227.871094 L 147.542969 298.597656 Z M 355.167969 190.605469 L 347.5625 319.894531 C 346.421875 337.386719 331.210938 351.074219 313.71875 349.933594 L 184.429688 342.328125 C 166.9375 341.1875 153.25 325.976562 154.390625 308.484375 L 161.996094 179.199219 C 163.136719 162.464844 176.824219 149.15625 193.9375 149.15625 L 195.835938 149.15625 L 325.125 156.761719 C 343 157.902344 356.308594 173.113281 355.167969 190.605469 Z M 355.167969 190.605469 " fill-opacity="1" fill-rule="nonzero"/><path fill="#ff3434" d="M 301.171875 237.375 L 236.90625 195.167969 C 228.921875 189.84375 218.273438 192.125 213.328125 200.113281 C 211.808594 202.773438 210.667969 205.433594 210.667969 208.476562 L 206.105469 284.910156 C 205.722656 294.414062 212.570312 302.402344 222.074219 303.160156 L 223.214844 303.160156 C 225.878906 303.160156 228.539062 302.402344 230.820312 301.261719 L 299.269531 267.039062 C 307.632812 262.855469 311.054688 252.585938 306.875 244.222656 C 305.351562 241.558594 303.453125 239.277344 301.171875 237.375 Z M 295.847656 260.191406 L 227.398438 294.414062 C 225.878906 295.175781 224.355469 295.558594 222.457031 295.558594 C 220.933594 295.558594 219.035156 294.796875 217.894531 294.035156 C 215.230469 292.132812 213.332031 289.09375 213.710938 285.667969 L 218.273438 209.238281 C 218.652344 205.816406 220.554688 202.773438 223.597656 201.253906 C 226.640625 199.730469 230.0625 200.113281 233.101562 201.632812 L 296.605469 243.839844 C 301.171875 246.882812 302.308594 252.585938 299.269531 256.769531 C 298.507812 258.292969 297.367188 259.433594 295.847656 260.191406 Z M 295.847656 260.191406 " fill-opacity="1" fill-rule="nonzero"/></svg>