<svg xmlns="http://www.w3.org/2000/svg" xmlns:xlink="http://www.w3.org/1999/xlink" width="500" zoomAndPan="magnify" viewBox="0 0 375 374.999991" height="500" preserveAspectRatio="xMidYMid meet" version="1.0"><path fill="#ff3434" d="M 355.46875 109.378906 C 355.46875 115.851562 350.222656 121.097656 343.75 121.097656 L 31.25 121.097656 C 24.777344 121.097656 19.53125 115.851562 19.53125 109.378906 C 19.53125 102.90625 24.777344 97.660156 31.25 97.660156 L 343.75 97.660156 C 350.222656 97.660156 355.46875 102.90625 355.46875 109.378906 Z M 355.46875 109.378906 " fill-opacity="1" fill-rule="evenodd"/><path fill="#ff3434" d="M 308.59375 187.5 C 308.59375 193.972656 303.347656 199.21875 296.875 199.21875 L 78.125 199.21875 C 71.652344 199.21875 66.40625 193.972656 66.40625 187.5 C 66.40625 181.027344 71.652344 175.78125 78.125 175.78125 L 296.875 175.78125 C 303.347656 175.78125 308.59375 181.027344 308.59375 187.5 Z M 308.59375 187.5 " fill-opacity="1" fill-rule="evenodd"/><path fill="#ff3434" d="M 261.71875 265.621094 C 261.71875 272.09375 256.472656 277.339844 250 277.339844 L 125 277.339844 C 118.527344 277.339844 113.28125 272.09375 113.28125 265.621094 C 113.28125 259.148438 118.527344 253.902344 125 253.902344 L 250 253.902344 C 256.472656 253.902344 261.71875 259.148438 261.71875 265.621094 Z M 261.71875 265.621094 " fill-opacity="1" fill-rule="evenodd"/></svg>