<svg xmlns="http://www.w3.org/2000/svg" xmlns:xlink="http://www.w3.org/1999/xlink" width="40" zoomAndPan="magnify" viewBox="0 0 30 30.000001" height="40" preserveAspectRatio="xMidYMid meet" version="1.0"><path fill="#ff3434" d="M 28.003906 8.46875 C 28.003906 8.96875 27.597656 9.375 27.097656 9.375 L 2.902344 9.375 C 2.402344 9.375 1.996094 8.96875 1.996094 8.46875 C 1.996094 7.96875 2.402344 7.5625 2.902344 7.5625 L 27.097656 7.5625 C 27.597656 7.5625 28.003906 7.96875 28.003906 8.46875 Z M 28.003906 8.46875 " fill-opacity="1" fill-rule="evenodd"/><path fill="#ff3434" d="M 24.375 14.515625 C 24.375 15.015625 23.96875 15.421875 23.46875 15.421875 L 6.53125 15.421875 C 6.03125 15.421875 5.625 15.015625 5.625 14.515625 C 5.625 14.015625 6.03125 13.609375 6.53125 13.609375 L 23.46875 13.609375 C 23.96875 13.609375 24.375 14.015625 24.375 14.515625 Z M 24.375 14.515625 " fill-opacity="1" fill-rule="evenodd"/><path fill="#ff3434" d="M 20.746094 20.5625 C 20.746094 21.066406 20.339844 21.472656 19.839844 21.472656 L 10.160156 21.472656 C 9.660156 21.472656 9.253906 21.066406 9.253906 20.5625 C 9.253906 20.0625 9.660156 19.65625 10.160156 19.65625 L 19.839844 19.65625 C 20.339844 19.65625 20.746094 20.0625 20.746094 20.5625 Z M 20.746094 20.5625 " fill-opacity="1" fill-rule="evenodd"/></svg>