<svg xmlns="http://www.w3.org/2000/svg" xmlns:xlink="http://www.w3.org/1999/xlink" width="500" zoomAndPan="magnify" viewBox="0 0 375 374.999991" height="500" preserveAspectRatio="xMidYMid meet" version="1.0"><path fill="#ff3434" d="M 187.5 19.527344 C 146.511719 19.527344 113.28125 52.757812 113.28125 93.746094 C 113.28125 134.738281 146.511719 167.964844 187.5 167.964844 C 228.492188 167.964844 261.71875 134.738281 261.71875 93.746094 C 261.71875 52.757812 228.492188 19.527344 187.5 19.527344 Z M 136.71875 93.746094 C 136.71875 65.703125 159.453125 42.964844 187.5 42.964844 C 215.546875 42.964844 238.28125 65.703125 238.28125 93.746094 C 238.28125 121.792969 215.546875 144.527344 187.5 144.527344 C 159.453125 144.527344 136.71875 121.792969 136.71875 93.746094 Z M 136.71875 93.746094 " fill-opacity="1" fill-rule="evenodd"/><path fill="#ff3434" d="M 187.5 191.402344 C 151.351562 191.402344 118.046875 199.621094 93.367188 213.503906 C 69.054688 227.175781 50.78125 247.90625 50.78125 273.433594 L 50.78125 275.027344 C 50.761719 293.179688 50.742188 315.964844 70.726562 332.242188 C 80.5625 340.25 94.320312 345.945312 112.910156 349.707031 C 131.550781 353.480469 155.847656 355.464844 187.5 355.464844 C 219.152344 355.464844 243.449219 353.480469 262.089844 349.707031 C 280.679688 345.945312 294.441406 340.25 304.273438 332.242188 C 324.261719 315.964844 324.238281 293.179688 324.222656 275.027344 L 324.21875 273.433594 C 324.21875 247.90625 305.945312 227.175781 281.632812 213.503906 C 256.957031 199.621094 223.648438 191.402344 187.5 191.402344 Z M 74.21875 273.433594 C 74.21875 260.132812 83.929688 245.703125 104.859375 233.929688 C 125.417969 222.363281 154.613281 214.839844 187.5 214.839844 C 220.386719 214.839844 249.582031 222.363281 270.144531 233.929688 C 291.074219 245.703125 300.78125 260.132812 300.78125 273.433594 C 300.78125 293.867188 300.152344 305.371094 289.476562 314.066406 C 283.6875 318.78125 274.007812 323.382812 257.441406 326.734375 C 240.925781 330.078125 218.347656 332.027344 187.5 332.027344 C 156.652344 332.027344 134.074219 330.078125 117.558594 326.734375 C 100.992188 323.382812 91.316406 318.78125 85.523438 314.066406 C 74.847656 305.371094 74.21875 293.867188 74.21875 273.433594 Z M 74.21875 273.433594 " fill-opacity="1" fill-rule="evenodd"/></svg>