<svg xmlns="http://www.w3.org/2000/svg" xmlns:xlink="http://www.w3.org/1999/xlink" width="40" zoomAndPan="magnify" viewBox="0 0 30 30.000001" height="40" preserveAspectRatio="xMidYMid meet" version="1.0"><path fill="#ff3434" d="M 15 1.511719 C 11.828125 1.511719 9.253906 4.085938 9.253906 7.257812 C 9.253906 10.429688 11.828125 13.003906 15 13.003906 C 18.171875 13.003906 20.746094 10.429688 20.746094 7.257812 C 20.746094 4.085938 18.171875 1.511719 15 1.511719 Z M 11.070312 7.257812 C 11.070312 5.085938 12.828125 3.328125 15 3.328125 C 17.171875 3.328125 18.929688 5.085938 18.929688 7.257812 C 18.929688 9.429688 17.171875 11.1875 15 11.1875 C 12.828125 11.1875 11.070312 9.429688 11.070312 7.257812 Z M 11.070312 7.257812 " fill-opacity="1" fill-rule="evenodd"/><path fill="#ff3434" d="M 15 14.816406 C 12.203125 14.816406 9.621094 15.453125 7.710938 16.527344 C 5.828125 17.585938 4.414062 19.191406 4.414062 21.167969 L 4.414062 21.292969 C 4.414062 22.699219 4.414062 24.460938 5.960938 25.722656 C 6.722656 26.34375 7.785156 26.78125 9.226562 27.074219 C 10.667969 27.367188 12.550781 27.519531 15 27.519531 C 17.449219 27.519531 19.332031 27.367188 20.773438 27.074219 C 22.214844 26.78125 23.277344 26.34375 24.039062 25.722656 C 25.589844 24.460938 25.585938 22.699219 25.585938 21.292969 L 25.585938 21.167969 C 25.585938 19.191406 24.171875 17.585938 22.289062 16.527344 C 20.378906 15.453125 17.796875 14.816406 15 14.816406 Z M 6.230469 21.167969 C 6.230469 20.140625 6.980469 19.023438 8.601562 18.109375 C 10.195312 17.214844 12.453125 16.632812 15 16.632812 C 17.546875 16.632812 19.804688 17.214844 21.398438 18.109375 C 23.019531 19.023438 23.769531 20.140625 23.769531 21.167969 C 23.769531 22.75 23.722656 23.640625 22.894531 24.316406 C 22.445312 24.679688 21.699219 25.035156 20.414062 25.296875 C 19.136719 25.554688 17.386719 25.707031 15 25.707031 C 12.613281 25.707031 10.863281 25.554688 9.585938 25.296875 C 8.300781 25.035156 7.554688 24.679688 7.105469 24.316406 C 6.277344 23.640625 6.230469 22.75 6.230469 21.167969 Z M 6.230469 21.167969 " fill-opacity="1" fill-rule="evenodd"/></svg>