<svg xmlns="http://www.w3.org/2000/svg" xmlns:xlink="http://www.w3.org/1999/xlink" width="500" zoomAndPan="magnify" viewBox="0 0 375 374.999991" height="500" preserveAspectRatio="xMidYMid meet" version="1.0"><defs><clipPath id="aabafa8472"><path d="M 30 214 L 311 214 L 311 360 L 30 360 Z M 30 214 " clip-rule="nonzero"/></clipPath></defs><path fill="#4285f4" d="M 363.988281 184.144531 C 363.988281 171.910156 363 159.609375 360.882812 147.570312 L 191.101562 147.570312 L 191.101562 216.886719 L 288.324219 216.886719 C 284.292969 239.242188 271.328125 259.015625 252.34375 271.582031 L 252.34375 316.558594 L 310.351562 316.558594 C 344.410156 285.207031 363.988281 238.910156 363.988281 184.144531 Z M 363.988281 184.144531 " fill-opacity="1" fill-rule="nonzero"/><g clip-path="url(#aabafa8472)"><path fill="#34a853" d="M 191.101562 360.011719 C 239.648438 360.011719 280.589844 344.074219 310.417969 316.558594 L 252.414062 271.582031 C 236.277344 282.5625 215.441406 288.78125 191.167969 288.78125 C 144.207031 288.78125 104.390625 257.097656 90.105469 214.503906 L 30.25 214.503906 L 30.25 260.867188 C 60.804688 321.652344 123.042969 360.011719 191.101562 360.011719 Z M 191.101562 360.011719 " fill-opacity="1" fill-rule="nonzero"/></g><path fill="#fbbc04" d="M 90.039062 214.503906 C 82.496094 192.148438 82.496094 167.941406 90.039062 145.585938 L 90.039062 99.222656 L 30.246094 99.222656 C 4.71875 150.085938 4.71875 210.007812 30.246094 260.867188 Z M 90.039062 214.503906 " fill-opacity="1" fill-rule="nonzero"/><path fill="#ea4335" d="M 191.101562 71.246094 C 216.761719 70.847656 241.566406 80.503906 260.152344 98.230469 L 311.542969 46.839844 C 279 16.28125 235.8125 -0.515625 191.101562 0.0117188 C 123.042969 0.0117188 60.804688 38.375 30.25 99.222656 L 90.039062 145.585938 C 104.257812 102.925781 144.140625 71.246094 191.101562 71.246094 Z M 191.101562 71.246094 " fill-opacity="1" fill-rule="nonzero"/></svg>