<svg xmlns="http://www.w3.org/2000/svg" xmlns:xlink="http://www.w3.org/1999/xlink" width="40" zoomAndPan="magnify" viewBox="0 0 30 30.000001" height="40" preserveAspectRatio="xMidYMid meet" version="1.0"><defs><clipPath id="2d6f526c2c"><path d="M 15 12 L 28.933594 12 L 28.933594 26 L 15 26 Z M 15 12 " clip-rule="nonzero"/></clipPath><clipPath id="6228ed172c"><path d="M 2 17 L 25 17 L 25 28.742188 L 2 28.742188 Z M 2 17 " clip-rule="nonzero"/></clipPath><clipPath id="60d76c6035"><path d="M 1.066406 8 L 8 8 L 8 22 L 1.066406 22 Z M 1.066406 8 " clip-rule="nonzero"/></clipPath><clipPath id="3521842620"><path d="M 2 1.160156 L 25 1.160156 L 25 13 L 2 13 Z M 2 1.160156 " clip-rule="nonzero"/></clipPath></defs><g clip-path="url(#2d6f526c2c)"><path fill="#4285f4" d="M 28.660156 15.269531 C 28.660156 14.332031 28.582031 13.390625 28.417969 12.46875 L 15.277344 12.46875 L 15.277344 17.777344 L 22.804688 17.777344 C 22.492188 19.492188 21.488281 21.003906 20.019531 21.96875 L 20.019531 25.414062 L 24.507812 25.414062 C 27.144531 23.011719 28.660156 19.464844 28.660156 15.269531 Z M 28.660156 15.269531 " fill-opacity="1" fill-rule="nonzero"/></g><g clip-path="url(#6228ed172c)"><path fill="#34a853" d="M 15.277344 28.742188 C 19.035156 28.742188 22.207031 27.523438 24.515625 25.414062 L 20.023438 21.96875 C 18.773438 22.808594 17.164062 23.285156 15.285156 23.285156 C 11.648438 23.285156 8.566406 20.859375 7.460938 17.59375 L 2.828125 17.59375 L 2.828125 21.148438 C 5.195312 25.804688 10.011719 28.742188 15.277344 28.742188 Z M 15.277344 28.742188 " fill-opacity="1" fill-rule="nonzero"/></g><g clip-path="url(#60d76c6035)"><path fill="#fbbc04" d="M 7.457031 17.59375 C 6.871094 15.882812 6.871094 14.027344 7.457031 12.316406 L 7.457031 8.761719 L 2.828125 8.761719 C 0.851562 12.660156 0.851562 17.25 2.828125 21.148438 Z M 7.457031 17.59375 " fill-opacity="1" fill-rule="nonzero"/></g><g clip-path="url(#3521842620)"><path fill="#ea4335" d="M 15.277344 6.621094 C 17.265625 6.589844 19.183594 7.328125 20.625 8.6875 L 24.601562 4.75 C 22.082031 2.410156 18.738281 1.121094 15.277344 1.164062 C 10.011719 1.164062 5.195312 4.101562 2.828125 8.761719 L 7.457031 12.316406 C 8.558594 9.046875 11.644531 6.621094 15.277344 6.621094 Z M 15.277344 6.621094 " fill-opacity="1" fill-rule="nonzero"/></g></svg>