<svg xmlns="http://www.w3.org/2000/svg" xmlns:xlink="http://www.w3.org/1999/xlink" width="40" zoomAndPan="magnify" viewBox="0 0 30 30.000001" height="40" preserveAspectRatio="xMidYMid meet" version="1.0"><path fill="#ff3434" d="M 11.371094 20.867188 C 10.871094 20.867188 10.464844 21.273438 10.464844 21.773438 C 10.464844 22.273438 10.871094 22.679688 11.371094 22.679688 L 18.628906 22.679688 C 19.128906 22.679688 19.535156 22.273438 19.535156 21.773438 C 19.535156 21.273438 19.128906 20.867188 18.628906 20.867188 Z M 11.371094 20.867188 " fill-opacity="1" fill-rule="nonzero"/><path fill="#ff3434" d="M 15 1.511719 C 14.144531 1.511719 13.363281 1.757812 12.519531 2.167969 C 11.703125 2.566406 10.761719 3.148438 9.585938 3.882812 L 7.085938 5.433594 C 5.96875 6.125 5.078125 6.679688 4.390625 7.203125 C 3.675781 7.75 3.128906 8.304688 2.734375 9.027344 C 2.339844 9.746094 2.164062 10.515625 2.078125 11.421875 C 1.996094 12.296875 1.996094 13.371094 1.996094 14.71875 L 1.996094 16.667969 C 1.996094 18.972656 1.996094 20.789062 2.179688 22.210938 C 2.371094 23.667969 2.769531 24.847656 3.667969 25.777344 C 4.570312 26.710938 5.722656 27.128906 7.144531 27.328125 C 8.527344 27.519531 10.289062 27.519531 12.511719 27.519531 L 17.488281 27.519531 C 19.710938 27.519531 21.472656 27.519531 22.855469 27.328125 C 24.277344 27.128906 25.429688 26.710938 26.332031 25.777344 C 27.230469 24.847656 27.628906 23.667969 27.820312 22.210938 C 28.003906 20.789062 28.003906 18.972656 28.003906 16.667969 L 28.003906 14.71875 C 28.003906 13.371094 28.003906 12.296875 27.921875 11.421875 C 27.835938 10.515625 27.660156 9.746094 27.265625 9.027344 C 26.871094 8.304688 26.324219 7.75 25.609375 7.203125 C 24.921875 6.679688 24.03125 6.125 22.914062 5.433594 L 20.414062 3.882812 C 19.238281 3.148438 18.296875 2.566406 17.480469 2.167969 C 16.636719 1.757812 15.855469 1.511719 15 1.511719 Z M 10.5 5.449219 C 11.726562 4.6875 12.59375 4.152344 13.3125 3.800781 C 14.019531 3.457031 14.515625 3.328125 15 3.328125 C 15.484375 3.328125 15.980469 3.457031 16.6875 3.800781 C 17.40625 4.152344 18.273438 4.6875 19.5 5.449219 L 21.921875 6.949219 C 23.082031 7.671875 23.898438 8.179688 24.507812 8.644531 C 25.097656 9.097656 25.441406 9.472656 25.671875 9.898438 C 25.90625 10.324219 26.042969 10.824219 26.113281 11.589844 C 26.1875 12.375 26.191406 13.363281 26.191406 14.761719 L 26.191406 16.601562 C 26.191406 18.988281 26.1875 20.6875 26.019531 21.976562 C 25.855469 23.246094 25.542969 23.980469 25.027344 24.515625 C 24.515625 25.046875 23.816406 25.363281 22.605469 25.53125 C 21.363281 25.703125 19.726562 25.707031 17.417969 25.707031 L 12.582031 25.707031 C 10.273438 25.707031 8.636719 25.703125 7.394531 25.53125 C 6.183594 25.363281 5.484375 25.046875 4.972656 24.515625 C 4.457031 23.980469 4.144531 23.246094 3.980469 21.976562 C 3.8125 20.6875 3.808594 18.988281 3.808594 16.601562 L 3.808594 14.761719 C 3.808594 13.363281 3.8125 12.375 3.886719 11.589844 C 3.957031 10.824219 4.09375 10.324219 4.328125 9.898438 C 4.558594 9.472656 4.902344 9.097656 5.492188 8.644531 C 6.101562 8.179688 6.917969 7.671875 8.078125 6.949219 Z M 10.5 5.449219 " fill-opacity="1" fill-rule="evenodd"/></svg>