<svg xmlns="http://www.w3.org/2000/svg" xmlns:xlink="http://www.w3.org/1999/xlink" width="500" zoomAndPan="magnify" viewBox="0 0 375 374.999991" height="500" preserveAspectRatio="xMidYMid meet" version="1.0"><path fill="#ff3434" d="M 140.625 269.53125 C 134.152344 269.53125 128.90625 274.777344 128.90625 281.25 C 128.90625 287.722656 134.152344 292.96875 140.625 292.96875 L 234.375 292.96875 C 240.847656 292.96875 246.09375 287.722656 246.09375 281.25 C 246.09375 274.777344 240.847656 269.53125 234.375 269.53125 Z M 140.625 269.53125 " fill-opacity="1" fill-rule="nonzero"/><path fill="#ff3434" d="M 187.5 19.53125 C 176.4375 19.53125 166.382812 22.699219 155.476562 28.003906 C 144.933594 33.128906 132.757812 40.6875 117.542969 50.128906 L 85.253906 70.171875 C 70.859375 79.101562 59.335938 86.257812 50.453125 93.058594 C 41.253906 100.105469 34.1875 107.28125 29.082031 116.605469 C 23.988281 125.90625 21.695312 135.808594 20.597656 147.511719 C 19.53125 158.851562 19.53125 172.71875 19.53125 190.113281 L 19.53125 215.3125 C 19.53125 245.058594 19.53125 268.539062 21.917969 286.898438 C 24.363281 305.734375 29.507812 320.9375 41.128906 332.960938 C 52.804688 345.039062 67.664062 350.433594 86.054688 352.992188 C 103.882812 355.46875 126.648438 355.46875 155.339844 355.46875 L 219.65625 355.46875 C 248.351562 355.46875 271.117188 355.46875 288.945312 352.992188 C 307.335938 350.433594 322.195312 345.039062 333.867188 332.960938 C 345.492188 320.9375 350.632812 305.734375 353.082031 286.898438 C 355.46875 268.539062 355.46875 245.058594 355.46875 215.3125 L 355.46875 190.113281 C 355.46875 172.71875 355.46875 158.851562 354.402344 147.511719 C 353.304688 135.808594 351.007812 125.90625 345.917969 116.605469 C 340.8125 107.28125 333.75 100.105469 324.546875 93.058594 C 315.664062 86.257812 304.140625 79.101562 289.746094 70.171875 L 257.453125 50.128906 C 242.242188 40.6875 230.0625 33.128906 219.523438 28.003906 C 208.617188 22.699219 198.5625 19.53125 187.5 19.53125 Z M 129.367188 70.375 C 145.238281 60.527344 156.398438 53.617188 165.726562 49.082031 C 174.816406 44.660156 181.253906 42.96875 187.5 42.96875 C 193.746094 42.96875 200.183594 44.660156 209.273438 49.082031 C 218.601562 53.617188 229.761719 60.527344 245.632812 70.375 L 276.882812 89.769531 C 291.894531 99.089844 302.4375 105.644531 310.296875 111.667969 C 317.949219 117.527344 322.347656 122.359375 325.359375 127.855469 C 328.378906 133.375 330.140625 139.824219 331.070312 149.703125 C 332.019531 159.820312 332.03125 172.589844 332.03125 190.6875 L 332.03125 214.453125 C 332.03125 245.25 332.007812 267.207031 329.839844 283.878906 C 327.710938 300.253906 323.703125 309.757812 317.019531 316.671875 C 310.390625 323.527344 301.359375 327.601562 285.714844 329.777344 C 269.691406 332.003906 248.554688 332.03125 218.75 332.03125 L 156.25 332.03125 C 126.445312 332.03125 105.308594 332.003906 89.285156 329.777344 C 73.636719 327.601562 64.613281 323.527344 57.980469 316.671875 C 51.296875 309.757812 47.289062 300.253906 45.160156 283.878906 C 42.992188 267.207031 42.96875 245.25 42.96875 214.453125 L 42.96875 190.6875 C 42.96875 172.589844 42.980469 159.820312 43.929688 149.703125 C 44.859375 139.824219 46.621094 133.375 49.640625 127.855469 C 52.652344 122.359375 57.050781 117.527344 64.703125 111.667969 C 72.5625 105.644531 83.105469 99.089844 98.117188 89.769531 Z M 129.367188 70.375 " fill-opacity="1" fill-rule="evenodd"/></svg>