<svg xmlns="http://www.w3.org/2000/svg" xmlns:xlink="http://www.w3.org/1999/xlink" width="500" zoomAndPan="magnify" viewBox="0 0 375 374.999991" height="500" preserveAspectRatio="xMidYMid meet" version="1.0"><defs><clipPath id="58b62a7c81"><path d="M 0 0 L 375 0 L 375 333 L 0 333 Z M 0 0 " clip-rule="nonzero"/></clipPath></defs><g clip-path="url(#58b62a7c81)"><path fill="#ff3434" d="M 76.296875 33.660156 C 47.363281 47.164062 26.164062 79.289062 26.164062 117.597656 C 26.164062 156.734375 41.847656 186.898438 64.332031 212.75 C 82.863281 234.058594 105.296875 251.71875 127.171875 268.9375 C 132.367188 273.027344 137.53125 277.09375 142.605469 281.179688 C 151.78125 288.5625 159.964844 295.046875 167.855469 299.753906 C 175.746094 304.460938 182.101562 306.613281 187.5 306.613281 C 192.898438 306.613281 199.253906 304.460938 207.144531 299.753906 C 215.035156 295.046875 223.21875 288.5625 232.394531 281.179688 C 237.46875 277.09375 242.632812 273.027344 247.828125 268.9375 C 269.703125 251.714844 292.136719 234.058594 310.667969 212.75 C 333.152344 186.898438 348.835938 156.734375 348.835938 117.597656 C 348.835938 79.289062 327.636719 47.164062 298.699219 33.660156 C 270.589844 20.539062 232.820312 24.011719 196.925781 62.09375 C 194.457031 64.710938 191.054688 66.1875 187.5 66.1875 C 183.945312 66.1875 180.542969 64.710938 178.074219 62.09375 C 142.179688 24.011719 104.410156 20.539062 76.296875 33.660156 Z M 187.5 34.277344 C 147.175781 -2.566406 102.019531 -7.71875 65.421875 9.363281 C 26.769531 27.402344 0.00390625 69.292969 0.00390625 117.597656 C 0.00390625 165.070312 19.371094 201.285156 44.769531 230.488281 C 65.109375 253.878906 90.003906 273.449219 111.992188 290.738281 C 116.976562 294.65625 121.8125 298.457031 126.410156 302.15625 C 135.34375 309.347656 144.933594 317.019531 154.65625 322.816406 C 164.371094 328.617188 175.457031 333.328125 187.5 333.328125 C 199.542969 333.328125 210.632812 328.617188 220.34375 322.816406 C 230.066406 317.019531 239.65625 309.347656 248.589844 302.15625 C 253.1875 298.457031 258.023438 294.65625 263.007812 290.738281 C 284.996094 273.449219 309.890625 253.878906 330.230469 230.488281 C 355.628906 201.285156 374.996094 165.070312 374.996094 117.597656 C 374.996094 69.292969 348.230469 27.402344 309.578125 9.363281 C 272.980469 -7.71875 227.828125 -2.566406 187.5 34.277344 Z M 187.5 34.277344 " fill-opacity="1" fill-rule="evenodd"/></g></svg>