<svg xmlns="http://www.w3.org/2000/svg" xmlns:xlink="http://www.w3.org/1999/xlink" width="40" zoomAndPan="magnify" viewBox="0 0 30 30.000001" height="40" preserveAspectRatio="xMidYMid meet" version="1.0"><defs><clipPath id="96a3e52628"><path d="M 0.484375 2.902344 L 29.515625 2.902344 L 29.515625 28.304688 L 0.484375 28.304688 Z M 0.484375 2.902344 " clip-rule="nonzero"/></clipPath></defs><g clip-path="url(#96a3e52628)"><path fill="#ff3434" d="M 6.40625 5.503906 C 4.171875 6.546875 2.535156 9.03125 2.535156 11.988281 C 2.535156 15.011719 3.746094 17.34375 5.484375 19.339844 C 6.914062 20.988281 8.648438 22.351562 10.339844 23.683594 C 10.738281 24 11.140625 24.3125 11.53125 24.628906 C 12.238281 25.199219 12.871094 25.699219 13.480469 26.0625 C 14.09375 26.425781 14.582031 26.59375 15 26.59375 C 15.417969 26.59375 15.90625 26.425781 16.519531 26.0625 C 17.128906 25.699219 17.761719 25.199219 18.46875 24.628906 C 18.859375 24.3125 19.261719 24 19.660156 23.683594 C 21.351562 22.351562 23.085938 20.988281 24.515625 19.339844 C 26.253906 17.34375 27.464844 15.011719 27.464844 11.988281 C 27.464844 9.03125 25.828125 6.546875 23.59375 5.503906 C 21.421875 4.488281 18.5 4.757812 15.726562 7.699219 C 15.539062 7.902344 15.273438 8.015625 15 8.015625 C 14.726562 8.015625 14.460938 7.902344 14.273438 7.699219 C 11.5 4.757812 8.578125 4.488281 6.40625 5.503906 Z M 15 5.550781 C 11.882812 2.703125 8.394531 2.308594 5.566406 3.625 C 2.582031 5.019531 0.511719 8.257812 0.511719 11.988281 C 0.511719 15.65625 2.007812 18.457031 3.972656 20.710938 C 5.542969 22.519531 7.46875 24.03125 9.164062 25.367188 C 9.550781 25.671875 9.925781 25.964844 10.28125 26.25 C 10.96875 26.804688 11.710938 27.398438 12.460938 27.847656 C 13.210938 28.292969 14.070312 28.65625 15 28.65625 C 15.929688 28.65625 16.789062 28.292969 17.539062 27.847656 C 18.289062 27.398438 19.03125 26.804688 19.71875 26.25 C 20.074219 25.964844 20.449219 25.671875 20.835938 25.367188 C 22.53125 24.03125 24.457031 22.519531 26.027344 20.710938 C 27.992188 18.457031 29.488281 15.65625 29.488281 11.988281 C 29.488281 8.257812 27.417969 5.019531 24.433594 3.625 C 21.605469 2.308594 18.117188 2.703125 15 5.550781 Z M 15 5.550781 " fill-opacity="1" fill-rule="evenodd"/></g></svg>