<svg xmlns="http://www.w3.org/2000/svg" xmlns:xlink="http://www.w3.org/1999/xlink" width="500" zoomAndPan="magnify" viewBox="0 0 375 374.999991" height="500" preserveAspectRatio="xMidYMid meet" version="1.0"><path fill="#ff3434" d="M 85.464844 195.785156 C 80.886719 191.210938 80.886719 183.789062 85.464844 179.214844 L 116.714844 147.964844 C 121.289062 143.386719 128.710938 143.386719 133.285156 147.964844 C 137.863281 152.539062 137.863281 159.960938 133.285156 164.535156 L 122.042969 175.78125 L 234.375 175.78125 C 240.847656 175.78125 246.09375 181.027344 246.09375 187.5 C 246.09375 193.972656 240.847656 199.21875 234.375 199.21875 L 122.042969 199.21875 L 133.285156 210.464844 C 137.863281 215.039062 137.863281 222.460938 133.285156 227.035156 C 128.710938 231.613281 121.289062 231.613281 116.714844 227.035156 Z M 85.464844 195.785156 " fill-opacity="1" fill-rule="nonzero"/><path fill="#ff3434" d="M 217.894531 19.53125 L 235.234375 19.53125 C 256.605469 19.53125 273.828125 19.53125 287.375 21.351562 C 301.4375 23.242188 313.28125 27.289062 322.6875 36.691406 C 332.089844 46.097656 336.136719 57.941406 338.027344 72.003906 C 339.847656 85.550781 339.847656 102.773438 339.847656 124.144531 L 339.847656 250.859375 C 339.847656 272.226562 339.847656 289.449219 338.027344 302.996094 C 336.136719 317.0625 332.089844 328.902344 322.6875 338.308594 C 313.28125 347.710938 301.4375 351.757812 287.375 353.648438 C 273.828125 355.46875 256.605469 355.46875 235.234375 355.46875 L 217.894531 355.46875 C 196.527344 355.46875 179.304688 355.46875 165.757812 353.648438 C 151.691406 351.757812 139.851562 347.710938 130.445312 338.308594 C 124.214844 332.074219 120.324219 324.757812 117.859375 316.402344 C 102.996094 316.382812 90.609375 316.21875 80.578125 314.871094 C 68.640625 313.265625 58.289062 309.792969 50.03125 301.53125 C 41.769531 293.273438 38.296875 282.921875 36.691406 270.984375 C 35.15625 259.566406 35.15625 245.101562 35.15625 227.402344 L 35.15625 147.597656 C 35.15625 129.898438 35.15625 115.433594 36.691406 104.015625 C 38.296875 92.078125 41.769531 81.726562 50.03125 73.46875 C 58.289062 65.207031 68.640625 61.734375 80.578125 60.128906 C 90.609375 58.78125 102.996094 58.617188 117.859375 58.597656 C 120.324219 50.242188 124.214844 42.925781 130.445312 36.691406 C 139.851562 27.289062 151.691406 23.242188 165.757812 21.351562 C 179.304688 19.53125 196.527344 19.53125 217.894531 19.53125 Z M 113.3125 265.691406 C 113.367188 275.761719 113.535156 284.832031 114.105469 292.953125 C 101.066406 292.90625 91.375 292.675781 83.699219 291.644531 C 74.363281 290.386719 69.78125 288.140625 66.601562 284.960938 C 63.421875 281.78125 61.175781 277.203125 59.917969 267.863281 C 58.617188 258.1875 58.59375 245.308594 58.59375 226.5625 L 58.59375 148.4375 C 58.59375 129.691406 58.617188 116.8125 59.917969 107.136719 C 61.175781 97.800781 63.421875 93.21875 66.601562 90.039062 C 69.78125 86.859375 74.363281 84.613281 83.699219 83.355469 C 91.375 82.324219 101.066406 82.097656 114.105469 82.046875 C 113.535156 90.167969 113.367188 99.238281 113.3125 109.308594 C 113.277344 115.78125 118.492188 121.058594 124.964844 121.09375 C 131.4375 121.128906 136.714844 115.914062 136.75 109.441406 C 136.84375 92.355469 137.289062 80.242188 138.976562 71.050781 C 140.601562 62.195312 143.214844 57.070312 147.019531 53.265625 C 151.34375 48.941406 157.414062 46.121094 168.878906 44.582031 C 180.683594 42.992188 196.324219 42.96875 218.753906 42.96875 L 234.378906 42.96875 C 256.804688 42.96875 272.449219 42.992188 284.25 44.582031 C 295.71875 46.121094 301.789062 48.941406 306.113281 53.265625 C 310.4375 57.589844 313.257812 63.660156 314.796875 75.125 C 316.382812 86.929688 316.410156 102.570312 316.410156 125 L 316.410156 250 C 316.410156 272.429688 316.382812 288.070312 314.796875 299.875 C 313.257812 311.339844 310.4375 317.410156 306.113281 321.734375 C 301.789062 326.058594 295.71875 328.878906 284.25 330.421875 C 272.449219 332.007812 256.804688 332.03125 234.378906 332.03125 L 218.753906 332.03125 C 196.324219 332.03125 180.683594 332.007812 168.878906 330.421875 C 157.414062 328.878906 151.34375 326.058594 147.019531 321.734375 C 143.214844 317.929688 140.601562 312.804688 138.976562 303.949219 C 137.289062 294.757812 136.84375 282.644531 136.75 265.558594 C 136.714844 259.085938 131.4375 253.871094 124.964844 253.90625 C 118.492188 253.941406 113.277344 259.21875 113.3125 265.691406 Z M 113.3125 265.691406 " fill-opacity="1" fill-rule="evenodd"/></svg>