<svg xmlns="http://www.w3.org/2000/svg" xmlns:xlink="http://www.w3.org/1999/xlink" width="40" zoomAndPan="magnify" viewBox="0 0 30 30.000001" height="40" preserveAspectRatio="xMidYMid meet" version="1.0"><path fill="#ff3434" d="M 7.101562 15.15625 C 6.746094 14.804688 6.746094 14.230469 7.101562 13.875 L 9.519531 11.457031 C 9.875 11.101562 10.449219 11.101562 10.804688 11.457031 C 11.15625 11.808594 11.15625 12.382812 10.804688 12.738281 L 9.933594 13.609375 L 18.628906 13.609375 C 19.128906 13.609375 19.535156 14.015625 19.535156 14.515625 C 19.535156 15.015625 19.128906 15.421875 18.628906 15.421875 L 9.933594 15.421875 L 10.804688 16.292969 C 11.15625 16.648438 11.15625 17.222656 10.804688 17.578125 C 10.449219 17.929688 9.875 17.929688 9.519531 17.578125 Z M 7.101562 15.15625 " fill-opacity="1" fill-rule="nonzero"/><path fill="#ff3434" d="M 17.351562 1.511719 L 18.695312 1.511719 C 20.351562 1.511719 21.683594 1.511719 22.730469 1.652344 C 23.820312 1.800781 24.738281 2.113281 25.464844 2.839844 C 26.195312 3.570312 26.507812 4.484375 26.652344 5.574219 C 26.792969 6.625 26.792969 7.957031 26.792969 9.609375 L 26.792969 19.421875 C 26.792969 21.074219 26.792969 22.410156 26.652344 23.457031 C 26.507812 24.546875 26.195312 25.464844 25.464844 26.191406 C 24.738281 26.917969 23.820312 27.234375 22.730469 27.378906 C 21.683594 27.519531 20.351562 27.519531 18.695312 27.519531 L 17.351562 27.519531 C 15.699219 27.519531 14.367188 27.519531 13.316406 27.378906 C 12.226562 27.234375 11.3125 26.917969 10.582031 26.191406 C 10.101562 25.707031 9.800781 25.140625 9.609375 24.496094 C 8.457031 24.496094 7.5 24.480469 6.722656 24.378906 C 5.796875 24.253906 4.996094 23.984375 4.355469 23.34375 C 3.71875 22.703125 3.449219 21.902344 3.324219 20.980469 C 3.207031 20.09375 3.207031 18.976562 3.207031 17.605469 L 3.207031 11.425781 C 3.207031 10.058594 3.207031 8.9375 3.324219 8.050781 C 3.449219 7.128906 3.71875 6.328125 4.355469 5.6875 C 4.996094 5.046875 5.796875 4.78125 6.722656 4.65625 C 7.5 4.550781 8.457031 4.539062 9.609375 4.535156 C 9.800781 3.890625 10.101562 3.324219 10.582031 2.839844 C 11.3125 2.113281 12.226562 1.800781 13.316406 1.652344 C 14.367188 1.511719 15.699219 1.511719 17.351562 1.511719 Z M 9.257812 20.570312 C 9.261719 21.347656 9.273438 22.050781 9.316406 22.679688 C 8.308594 22.675781 7.558594 22.660156 6.964844 22.578125 C 6.242188 22.480469 5.886719 22.308594 5.640625 22.0625 C 5.394531 21.816406 5.21875 21.460938 5.121094 20.738281 C 5.023438 19.988281 5.019531 18.992188 5.019531 17.539062 L 5.019531 11.492188 C 5.019531 10.039062 5.023438 9.042969 5.121094 8.292969 C 5.21875 7.570312 5.394531 7.21875 5.640625 6.972656 C 5.886719 6.726562 6.242188 6.550781 6.964844 6.453125 C 7.558594 6.375 8.308594 6.355469 9.316406 6.351562 C 9.273438 6.980469 9.261719 7.683594 9.257812 8.460938 C 9.253906 8.964844 9.65625 9.371094 10.160156 9.375 C 10.660156 9.378906 11.066406 8.972656 11.070312 8.472656 C 11.078125 7.148438 11.113281 6.210938 11.242188 5.5 C 11.371094 4.816406 11.570312 4.417969 11.867188 4.125 C 12.199219 3.789062 12.671875 3.570312 13.558594 3.453125 C 14.472656 3.328125 15.683594 3.328125 17.417969 3.328125 L 18.628906 3.328125 C 20.367188 3.328125 21.578125 3.328125 22.492188 3.453125 C 23.378906 3.570312 23.847656 3.789062 24.183594 4.125 C 24.519531 4.457031 24.734375 4.929688 24.855469 5.816406 C 24.976562 6.730469 24.980469 7.941406 24.980469 9.675781 L 24.980469 19.355469 C 24.980469 21.089844 24.976562 22.300781 24.855469 23.214844 C 24.734375 24.105469 24.519531 24.574219 24.183594 24.910156 C 23.847656 25.242188 23.378906 25.460938 22.492188 25.582031 C 21.578125 25.703125 20.367188 25.707031 18.628906 25.707031 L 17.417969 25.707031 C 15.683594 25.707031 14.472656 25.703125 13.558594 25.582031 C 12.671875 25.460938 12.199219 25.242188 11.867188 24.910156 C 11.570312 24.613281 11.371094 24.21875 11.242188 23.53125 C 11.113281 22.820312 11.078125 21.882812 11.070312 20.558594 C 11.066406 20.058594 10.660156 19.65625 10.160156 19.65625 C 9.65625 19.660156 9.253906 20.070312 9.257812 20.570312 Z M 9.257812 20.570312 " fill-opacity="1" fill-rule="evenodd"/></svg>