<svg xmlns="http://www.w3.org/2000/svg" xmlns:xlink="http://www.w3.org/1999/xlink" width="40" zoomAndPan="magnify" viewBox="0 0 30 30.000001" height="40" preserveAspectRatio="xMidYMid meet" version="1.0"><path fill="#ff3434" d="M 25.359375 3.382812 L 25.359375 2.734375 C 25.359375 2.488281 25.308594 2.25 25.214844 2.019531 C 25.117188 1.792969 24.984375 1.589844 24.808594 1.414062 C 24.632812 1.238281 24.429688 1.101562 24.203125 1.007812 C 23.972656 0.914062 23.734375 0.863281 23.484375 0.863281 C 23.238281 0.863281 23 0.910156 22.769531 1.007812 C 22.539062 1.101562 22.339844 1.238281 22.164062 1.414062 C 21.988281 1.589844 21.851562 1.789062 21.757812 2.019531 C 21.664062 2.25 21.613281 2.488281 21.613281 2.734375 L 21.613281 3.351562 L 19.699219 3.351562 L 19.699219 2.734375 C 19.699219 2.488281 19.652344 2.25 19.554688 2.019531 C 19.460938 1.792969 19.328125 1.589844 19.152344 1.414062 C 18.976562 1.238281 18.773438 1.101562 18.546875 1.007812 C 18.316406 0.914062 18.078125 0.863281 17.828125 0.863281 C 17.582031 0.863281 17.34375 0.910156 17.113281 1.007812 C 16.882812 1.101562 16.683594 1.238281 16.507812 1.414062 C 16.332031 1.589844 16.195312 1.789062 16.101562 2.019531 C 16.003906 2.25 15.957031 2.488281 15.957031 2.734375 L 15.957031 3.351562 L 14.042969 3.351562 L 14.042969 2.734375 C 14.042969 2.488281 13.996094 2.25 13.898438 2.019531 C 13.804688 1.789062 13.667969 1.589844 13.496094 1.414062 C 13.320312 1.238281 13.117188 1.101562 12.886719 1.007812 C 12.660156 0.914062 12.417969 0.867188 12.171875 0.867188 C 11.921875 0.867188 11.683594 0.914062 11.457031 1.007812 C 11.226562 1.101562 11.023438 1.238281 10.847656 1.414062 C 10.671875 1.589844 10.539062 1.789062 10.445312 2.019531 C 10.347656 2.25 10.300781 2.488281 10.300781 2.734375 L 10.300781 3.351562 L 8.386719 3.351562 L 8.386719 2.734375 C 8.386719 2.488281 8.335938 2.25 8.242188 2.019531 C 8.148438 1.792969 8.011719 1.589844 7.835938 1.414062 C 7.660156 1.238281 7.457031 1.101562 7.230469 1.007812 C 7 0.914062 6.761719 0.863281 6.515625 0.863281 C 6.265625 0.863281 6.027344 0.910156 5.796875 1.007812 C 5.570312 1.101562 5.367188 1.238281 5.191406 1.414062 C 5.015625 1.589844 4.878906 1.789062 4.785156 2.019531 C 4.691406 2.25 4.640625 2.488281 4.640625 2.734375 L 4.640625 3.382812 C 4.1875 3.4375 3.757812 3.574219 3.355469 3.785156 C 2.949219 4 2.59375 4.277344 2.292969 4.617188 C 1.988281 4.960938 1.753906 5.347656 1.59375 5.773438 C 1.429688 6.203125 1.347656 6.644531 1.347656 7.101562 L 1.347656 24.417969 C 1.347656 24.914062 1.445312 25.394531 1.632812 25.851562 C 1.824219 26.3125 2.097656 26.71875 2.449219 27.070312 C 2.800781 27.421875 3.203125 27.691406 3.664062 27.882812 C 4.121094 28.070312 4.601562 28.167969 5.097656 28.167969 L 24.902344 28.167969 C 25.398438 28.167969 25.878906 28.070312 26.335938 27.882812 C 26.796875 27.691406 27.199219 27.421875 27.550781 27.070312 C 27.902344 26.71875 28.175781 26.3125 28.367188 25.851562 C 28.554688 25.394531 28.652344 24.914062 28.652344 24.417969 L 28.652344 7.101562 C 28.652344 6.644531 28.570312 6.203125 28.40625 5.773438 C 28.246094 5.347656 28.011719 4.960938 27.707031 4.617188 C 27.40625 4.277344 27.050781 4 26.644531 3.785156 C 26.242188 3.574219 25.8125 3.4375 25.359375 3.382812 Z M 22.636719 2.734375 C 22.636719 2.5 22.71875 2.300781 22.886719 2.136719 C 23.050781 1.96875 23.25 1.886719 23.484375 1.886719 C 23.71875 1.886719 23.921875 1.972656 24.085938 2.136719 C 24.25 2.300781 24.335938 2.5 24.335938 2.734375 L 24.335938 4.992188 C 24.335938 5.226562 24.253906 5.425781 24.085938 5.589844 C 23.921875 5.757812 23.71875 5.839844 23.484375 5.839844 C 23.25 5.839844 23.050781 5.757812 22.886719 5.589844 C 22.71875 5.425781 22.636719 5.226562 22.636719 4.992188 Z M 16.980469 2.734375 C 16.980469 2.5 17.0625 2.300781 17.230469 2.136719 C 17.394531 1.96875 17.59375 1.886719 17.828125 1.886719 C 18.0625 1.886719 18.261719 1.96875 18.429688 2.136719 C 18.59375 2.300781 18.675781 2.5 18.675781 2.734375 L 18.675781 4.992188 C 18.675781 5.226562 18.59375 5.425781 18.429688 5.589844 C 18.261719 5.757812 18.0625 5.839844 17.828125 5.839844 C 17.59375 5.839844 17.394531 5.757812 17.226562 5.589844 C 17.0625 5.425781 16.980469 5.226562 16.980469 4.992188 Z M 11.324219 2.734375 C 11.324219 2.5 11.40625 2.300781 11.570312 2.136719 C 11.738281 1.96875 11.9375 1.886719 12.171875 1.886719 C 12.40625 1.886719 12.605469 1.96875 12.773438 2.136719 C 12.9375 2.300781 13.019531 2.5 13.019531 2.734375 L 13.019531 4.992188 C 13.019531 5.222656 12.9375 5.425781 12.773438 5.589844 C 12.605469 5.753906 12.40625 5.839844 12.171875 5.839844 C 11.9375 5.839844 11.738281 5.753906 11.570312 5.589844 C 11.40625 5.425781 11.324219 5.222656 11.324219 4.992188 Z M 5.664062 2.734375 C 5.664062 2.5 5.746094 2.300781 5.914062 2.136719 C 6.078125 1.96875 6.277344 1.886719 6.515625 1.886719 C 6.746094 1.886719 6.949219 1.972656 7.113281 2.136719 C 7.277344 2.300781 7.363281 2.5 7.363281 2.734375 L 7.363281 4.992188 C 7.363281 5.226562 7.28125 5.425781 7.113281 5.589844 C 6.949219 5.757812 6.75 5.839844 6.515625 5.839844 C 6.277344 5.839844 6.078125 5.757812 5.914062 5.589844 C 5.746094 5.425781 5.664062 5.226562 5.664062 4.992188 Z M 4.640625 4.414062 L 4.640625 4.992188 C 4.640625 5.238281 4.6875 5.476562 4.785156 5.707031 C 4.878906 5.9375 5.015625 6.136719 5.191406 6.3125 C 5.367188 6.488281 5.566406 6.625 5.796875 6.71875 C 6.027344 6.816406 6.265625 6.863281 6.515625 6.863281 C 6.761719 6.863281 7 6.816406 7.230469 6.71875 C 7.460938 6.625 7.660156 6.488281 7.835938 6.3125 C 8.011719 6.136719 8.148438 5.9375 8.242188 5.707031 C 8.339844 5.476562 8.386719 5.238281 8.386719 4.992188 L 8.386719 4.375 L 10.300781 4.375 L 10.300781 4.992188 C 10.300781 5.238281 10.347656 5.476562 10.445312 5.707031 C 10.539062 5.933594 10.671875 6.136719 10.847656 6.3125 C 11.023438 6.488281 11.226562 6.625 11.457031 6.71875 C 11.683594 6.8125 11.921875 6.859375 12.171875 6.859375 C 12.417969 6.859375 12.660156 6.8125 12.886719 6.71875 C 13.117188 6.625 13.320312 6.488281 13.496094 6.3125 C 13.667969 6.136719 13.804688 5.933594 13.898438 5.707031 C 13.996094 5.476562 14.042969 5.238281 14.042969 4.992188 L 14.042969 4.375 L 15.957031 4.375 L 15.957031 4.992188 C 15.957031 5.238281 16.003906 5.476562 16.101562 5.707031 C 16.195312 5.933594 16.332031 6.136719 16.503906 6.3125 C 16.679688 6.488281 16.882812 6.625 17.113281 6.71875 C 17.339844 6.8125 17.582031 6.859375 17.828125 6.859375 C 18.078125 6.859375 18.316406 6.8125 18.542969 6.71875 C 18.773438 6.625 18.976562 6.488281 19.152344 6.3125 C 19.328125 6.136719 19.460938 5.933594 19.554688 5.707031 C 19.652344 5.476562 19.699219 5.238281 19.699219 4.992188 L 19.699219 4.375 L 21.613281 4.375 L 21.613281 4.992188 C 21.613281 5.238281 21.660156 5.476562 21.757812 5.707031 C 21.851562 5.9375 21.988281 6.136719 22.164062 6.3125 C 22.339844 6.488281 22.539062 6.625 22.769531 6.71875 C 23 6.816406 23.238281 6.863281 23.484375 6.863281 C 23.734375 6.863281 23.972656 6.816406 24.203125 6.71875 C 24.433594 6.625 24.632812 6.488281 24.808594 6.3125 C 24.984375 6.136719 25.121094 5.9375 25.214844 5.707031 C 25.3125 5.476562 25.359375 5.238281 25.359375 4.992188 L 25.359375 4.414062 C 25.675781 4.46875 25.972656 4.574219 26.253906 4.734375 C 26.53125 4.894531 26.777344 5.097656 26.984375 5.34375 C 27.191406 5.589844 27.351562 5.863281 27.460938 6.164062 C 27.574219 6.46875 27.628906 6.78125 27.628906 7.101562 L 27.628906 8.640625 L 2.371094 8.640625 L 2.371094 7.101562 C 2.371094 6.78125 2.425781 6.46875 2.539062 6.164062 C 2.648438 5.863281 2.808594 5.589844 3.015625 5.34375 C 3.222656 5.097656 3.46875 4.894531 3.746094 4.734375 C 4.027344 4.574219 4.324219 4.46875 4.640625 4.414062 Z M 24.902344 27.144531 L 5.097656 27.144531 C 4.734375 27.144531 4.386719 27.078125 4.054688 26.9375 C 3.71875 26.800781 3.425781 26.601562 3.167969 26.347656 C 2.914062 26.089844 2.71875 25.796875 2.578125 25.460938 C 2.441406 25.128906 2.371094 24.78125 2.371094 24.417969 L 2.371094 9.664062 L 27.628906 9.664062 L 27.628906 24.417969 C 27.628906 24.78125 27.558594 25.128906 27.421875 25.460938 C 27.28125 25.796875 27.085938 26.089844 26.832031 26.347656 C 26.574219 26.601562 26.28125 26.800781 25.945312 26.9375 C 25.613281 27.078125 25.265625 27.144531 24.902344 27.144531 Z M 24.902344 27.144531 " fill-opacity="1" fill-rule="nonzero"/><path fill="#ff3434" d="M 8.484375 12.21875 L 6.417969 12.21875 C 6.238281 12.21875 6.066406 12.253906 5.902344 12.324219 C 5.734375 12.390625 5.589844 12.488281 5.460938 12.617188 C 5.335938 12.742188 5.238281 12.890625 5.167969 13.054688 C 5.097656 13.222656 5.066406 13.394531 5.066406 13.574219 L 5.066406 15.636719 C 5.066406 15.816406 5.097656 15.988281 5.167969 16.15625 C 5.238281 16.320312 5.335938 16.46875 5.460938 16.59375 C 5.589844 16.722656 5.734375 16.820312 5.902344 16.890625 C 6.066406 16.957031 6.238281 16.992188 6.417969 16.992188 L 8.484375 16.992188 C 8.664062 16.992188 8.835938 16.957031 9 16.890625 C 9.167969 16.820312 9.3125 16.722656 9.441406 16.59375 C 9.566406 16.46875 9.664062 16.320312 9.734375 16.15625 C 9.804688 15.988281 9.839844 15.816406 9.839844 15.636719 L 9.839844 13.574219 C 9.839844 13.394531 9.804688 13.222656 9.734375 13.054688 C 9.664062 12.890625 9.566406 12.742188 9.441406 12.617188 C 9.3125 12.488281 9.167969 12.390625 9 12.324219 C 8.835938 12.253906 8.664062 12.21875 8.484375 12.21875 Z M 8.816406 15.636719 C 8.816406 15.730469 8.785156 15.808594 8.71875 15.875 C 8.652344 15.9375 8.574219 15.96875 8.484375 15.96875 L 6.417969 15.96875 C 6.328125 15.96875 6.25 15.9375 6.183594 15.875 C 6.121094 15.808594 6.085938 15.730469 6.085938 15.636719 L 6.085938 13.574219 C 6.085938 13.484375 6.121094 13.402344 6.183594 13.339844 C 6.25 13.273438 6.328125 13.242188 6.417969 13.242188 L 8.484375 13.242188 C 8.574219 13.242188 8.652344 13.273438 8.71875 13.339844 C 8.785156 13.402344 8.816406 13.484375 8.816406 13.574219 Z M 8.816406 15.636719 " fill-opacity="1" fill-rule="nonzero"/><path fill="#ff3434" d="M 16.03125 12.21875 L 13.96875 12.21875 C 13.789062 12.21875 13.617188 12.253906 13.449219 12.324219 C 13.285156 12.390625 13.136719 12.488281 13.011719 12.617188 C 12.882812 12.742188 12.785156 12.890625 12.71875 13.054688 C 12.648438 13.222656 12.613281 13.394531 12.613281 13.574219 L 12.613281 15.636719 C 12.613281 15.816406 12.648438 15.988281 12.71875 16.15625 C 12.785156 16.320312 12.882812 16.46875 13.011719 16.59375 C 13.136719 16.722656 13.285156 16.820312 13.449219 16.890625 C 13.617188 16.957031 13.789062 16.992188 13.96875 16.992188 L 16.03125 16.992188 C 16.210938 16.992188 16.382812 16.957031 16.550781 16.890625 C 16.714844 16.820312 16.863281 16.722656 16.988281 16.59375 C 17.117188 16.46875 17.214844 16.320312 17.28125 16.15625 C 17.351562 15.988281 17.386719 15.816406 17.386719 15.636719 L 17.386719 13.574219 C 17.386719 13.394531 17.351562 13.222656 17.28125 13.054688 C 17.214844 12.890625 17.117188 12.742188 16.988281 12.617188 C 16.863281 12.488281 16.714844 12.390625 16.550781 12.324219 C 16.382812 12.253906 16.210938 12.21875 16.03125 12.21875 Z M 16.363281 15.636719 C 16.363281 15.730469 16.332031 15.808594 16.265625 15.875 C 16.203125 15.9375 16.125 15.96875 16.03125 15.96875 L 13.96875 15.96875 C 13.875 15.96875 13.796875 15.9375 13.734375 15.875 C 13.667969 15.808594 13.636719 15.730469 13.636719 15.636719 L 13.636719 13.574219 C 13.636719 13.484375 13.667969 13.402344 13.734375 13.339844 C 13.796875 13.273438 13.875 13.242188 13.96875 13.242188 L 16.03125 13.242188 C 16.125 13.242188 16.203125 13.273438 16.265625 13.339844 C 16.332031 13.402344 16.363281 13.484375 16.363281 13.574219 Z M 16.363281 15.636719 " fill-opacity="1" fill-rule="nonzero"/><path fill="#ff3434" d="M 23.582031 12.21875 L 21.515625 12.21875 C 21.335938 12.21875 21.164062 12.253906 21 12.324219 C 20.832031 12.390625 20.6875 12.488281 20.558594 12.617188 C 20.433594 12.742188 20.335938 12.890625 20.265625 13.054688 C 20.195312 13.222656 20.160156 13.394531 20.160156 13.574219 L 20.160156 15.636719 C 20.160156 15.816406 20.195312 15.988281 20.265625 16.15625 C 20.335938 16.320312 20.433594 16.46875 20.558594 16.59375 C 20.6875 16.722656 20.832031 16.820312 21 16.890625 C 21.164062 16.957031 21.335938 16.992188 21.515625 16.992188 L 23.582031 16.992188 C 23.761719 16.992188 23.933594 16.957031 24.097656 16.890625 C 24.265625 16.820312 24.410156 16.722656 24.539062 16.59375 C 24.664062 16.46875 24.761719 16.320312 24.832031 16.15625 C 24.902344 15.988281 24.933594 15.816406 24.933594 15.636719 L 24.933594 13.574219 C 24.933594 13.394531 24.902344 13.222656 24.832031 13.054688 C 24.761719 12.890625 24.664062 12.742188 24.539062 12.617188 C 24.410156 12.488281 24.265625 12.390625 24.097656 12.324219 C 23.933594 12.253906 23.761719 12.21875 23.582031 12.21875 Z M 23.914062 15.636719 C 23.914062 15.730469 23.878906 15.808594 23.816406 15.875 C 23.75 15.9375 23.671875 15.96875 23.582031 15.96875 L 21.515625 15.96875 C 21.425781 15.96875 21.347656 15.9375 21.28125 15.875 C 21.214844 15.808594 21.183594 15.730469 21.183594 15.636719 L 21.183594 13.574219 C 21.183594 13.484375 21.214844 13.402344 21.28125 13.339844 C 21.347656 13.273438 21.425781 13.242188 21.515625 13.242188 L 23.582031 13.242188 C 23.671875 13.242188 23.75 13.273438 23.816406 13.339844 C 23.878906 13.402344 23.914062 13.484375 23.914062 13.574219 Z M 23.914062 15.636719 " fill-opacity="1" fill-rule="nonzero"/><path fill="#ff3434" d="M 8.484375 19.257812 L 6.417969 19.257812 C 6.238281 19.257812 6.066406 19.292969 5.902344 19.363281 C 5.734375 19.429688 5.589844 19.527344 5.460938 19.65625 C 5.335938 19.785156 5.238281 19.929688 5.167969 20.09375 C 5.097656 20.261719 5.066406 20.433594 5.066406 20.613281 L 5.066406 22.675781 C 5.066406 22.855469 5.097656 23.03125 5.167969 23.195312 C 5.238281 23.363281 5.335938 23.507812 5.460938 23.636719 C 5.589844 23.761719 5.734375 23.859375 5.902344 23.929688 C 6.066406 23.996094 6.238281 24.03125 6.417969 24.03125 L 8.484375 24.03125 C 8.664062 24.03125 8.835938 23.996094 9 23.929688 C 9.167969 23.859375 9.3125 23.761719 9.441406 23.636719 C 9.566406 23.507812 9.664062 23.363281 9.734375 23.195312 C 9.804688 23.03125 9.839844 22.855469 9.839844 22.675781 L 9.839844 20.613281 C 9.839844 20.433594 9.804688 20.261719 9.734375 20.09375 C 9.664062 19.929688 9.566406 19.785156 9.441406 19.65625 C 9.3125 19.527344 9.167969 19.429688 9 19.363281 C 8.835938 19.292969 8.664062 19.257812 8.484375 19.257812 Z M 8.816406 22.675781 C 8.816406 22.769531 8.785156 22.847656 8.71875 22.914062 C 8.652344 22.976562 8.574219 23.011719 8.484375 23.011719 L 6.417969 23.011719 C 6.328125 23.011719 6.25 22.976562 6.183594 22.914062 C 6.121094 22.847656 6.085938 22.769531 6.085938 22.675781 L 6.085938 20.613281 C 6.085938 20.523438 6.121094 20.445312 6.183594 20.378906 C 6.25 20.3125 6.328125 20.28125 6.417969 20.28125 L 8.484375 20.28125 C 8.574219 20.28125 8.652344 20.3125 8.71875 20.378906 C 8.785156 20.445312 8.816406 20.523438 8.816406 20.613281 Z M 8.816406 22.675781 " fill-opacity="1" fill-rule="nonzero"/><path fill="#ff3434" d="M 16.03125 19.257812 L 13.96875 19.257812 C 13.789062 19.257812 13.617188 19.292969 13.449219 19.363281 C 13.285156 19.429688 13.136719 19.527344 13.011719 19.65625 C 12.882812 19.785156 12.785156 19.929688 12.71875 20.09375 C 12.648438 20.261719 12.613281 20.433594 12.613281 20.613281 L 12.613281 22.675781 C 12.613281 22.855469 12.648438 23.03125 12.71875 23.195312 C 12.785156 23.363281 12.882812 23.507812 13.011719 23.636719 C 13.136719 23.761719 13.285156 23.859375 13.449219 23.929688 C 13.617188 23.996094 13.789062 24.03125 13.96875 24.03125 L 16.03125 24.03125 C 16.210938 24.03125 16.382812 23.996094 16.550781 23.929688 C 16.714844 23.859375 16.863281 23.761719 16.988281 23.636719 C 17.117188 23.507812 17.214844 23.363281 17.28125 23.195312 C 17.351562 23.03125 17.386719 22.855469 17.386719 22.675781 L 17.386719 20.613281 C 17.386719 20.433594 17.351562 20.261719 17.28125 20.09375 C 17.214844 19.929688 17.117188 19.785156 16.988281 19.65625 C 16.863281 19.527344 16.714844 19.429688 16.550781 19.363281 C 16.382812 19.292969 16.210938 19.257812 16.03125 19.257812 Z M 16.363281 22.675781 C 16.363281 22.769531 16.332031 22.847656 16.265625 22.914062 C 16.203125 22.976562 16.125 23.011719 16.03125 23.011719 L 13.96875 23.011719 C 13.875 23.011719 13.796875 22.976562 13.734375 22.914062 C 13.667969 22.847656 13.636719 22.769531 13.636719 22.675781 L 13.636719 20.613281 C 13.636719 20.523438 13.667969 20.445312 13.734375 20.378906 C 13.796875 20.3125 13.875 20.28125 13.96875 20.28125 L 16.03125 20.28125 C 16.125 20.28125 16.203125 20.3125 16.265625 20.378906 C 16.332031 20.445312 16.363281 20.523438 16.363281 20.613281 Z M 16.363281 22.675781 " fill-opacity="1" fill-rule="nonzero"/><path fill="#ff3434" d="M 23.582031 19.257812 L 21.515625 19.257812 C 21.335938 19.257812 21.164062 19.292969 21 19.363281 C 20.832031 19.429688 20.6875 19.527344 20.558594 19.65625 C 20.433594 19.785156 20.335938 19.929688 20.265625 20.09375 C 20.195312 20.261719 20.160156 20.433594 20.160156 20.613281 L 20.160156 22.675781 C 20.160156 22.855469 20.195312 23.03125 20.265625 23.195312 C 20.335938 23.363281 20.433594 23.507812 20.558594 23.636719 C 20.6875 23.761719 20.832031 23.859375 21 23.929688 C 21.164062 23.996094 21.335938 24.03125 21.515625 24.03125 L 23.582031 24.03125 C 23.761719 24.03125 23.933594 23.996094 24.097656 23.929688 C 24.265625 23.859375 24.410156 23.761719 24.539062 23.636719 C 24.664062 23.507812 24.761719 23.363281 24.832031 23.195312 C 24.902344 23.03125 24.933594 22.855469 24.933594 22.675781 L 24.933594 20.613281 C 24.933594 20.433594 24.902344 20.261719 24.832031 20.09375 C 24.761719 19.929688 24.664062 19.785156 24.539062 19.65625 C 24.410156 19.527344 24.265625 19.429688 24.097656 19.363281 C 23.933594 19.292969 23.761719 19.257812 23.582031 19.257812 Z M 23.914062 22.675781 C 23.914062 22.769531 23.878906 22.847656 23.816406 22.914062 C 23.75 22.976562 23.671875 23.011719 23.582031 23.011719 L 21.515625 23.011719 C 21.425781 23.011719 21.347656 22.976562 21.28125 22.914062 C 21.214844 22.847656 21.183594 22.769531 21.183594 22.675781 L 21.183594 20.613281 C 21.183594 20.523438 21.214844 20.445312 21.28125 20.378906 C 21.347656 20.3125 21.425781 20.28125 21.515625 20.28125 L 23.582031 20.28125 C 23.671875 20.28125 23.75 20.3125 23.816406 20.378906 C 23.878906 20.445312 23.914062 20.523438 23.914062 20.613281 Z M 23.914062 22.675781 " fill-opacity="1" fill-rule="nonzero"/></svg>