<svg xmlns="http://www.w3.org/2000/svg" xmlns:xlink="http://www.w3.org/1999/xlink" width="40" zoomAndPan="magnify" viewBox="0 0 30 30.000001" height="40" preserveAspectRatio="xMidYMid meet" version="1.0"><path fill="#ff3434" d="M 11.371094 1.511719 C 8.199219 1.511719 5.625 4.085938 5.625 7.257812 C 5.625 10.429688 8.199219 13.003906 11.371094 13.003906 C 14.542969 13.003906 17.117188 10.429688 17.117188 7.257812 C 17.117188 4.085938 14.542969 1.511719 11.371094 1.511719 Z M 7.441406 7.257812 C 7.441406 5.085938 9.199219 3.328125 11.371094 3.328125 C 13.542969 3.328125 15.300781 5.085938 15.300781 7.257812 C 15.300781 9.429688 13.542969 11.191406 11.371094 11.191406 C 9.199219 11.191406 7.441406 9.429688 7.441406 7.257812 Z M 7.441406 7.257812 " fill-opacity="1" fill-rule="evenodd"/><path fill="#ff3434" d="M 18.628906 2.722656 C 18.128906 2.722656 17.722656 3.128906 17.722656 3.628906 C 17.722656 4.128906 18.128906 4.535156 18.628906 4.535156 C 20.132812 4.535156 21.351562 5.753906 21.351562 7.257812 C 21.351562 8.761719 20.132812 9.980469 18.628906 9.980469 C 18.128906 9.980469 17.722656 10.386719 17.722656 10.886719 C 17.722656 11.386719 18.128906 11.792969 18.628906 11.792969 C 21.132812 11.792969 23.164062 9.761719 23.164062 7.257812 C 23.164062 4.753906 21.132812 2.722656 18.628906 2.722656 Z M 18.628906 2.722656 " fill-opacity="1" fill-rule="nonzero"/><path fill="#ff3434" d="M 4.933594 16.355469 C 6.625 15.386719 8.902344 14.820312 11.371094 14.820312 C 13.835938 14.820312 16.117188 15.386719 17.808594 16.355469 C 19.476562 17.308594 20.746094 18.761719 20.746094 20.566406 C 20.746094 22.367188 19.476562 23.820312 17.808594 24.773438 C 16.117188 25.742188 13.835938 26.308594 11.371094 26.308594 C 8.902344 26.308594 6.625 25.742188 4.933594 24.773438 C 3.265625 23.820312 1.996094 22.367188 1.996094 20.566406 C 1.996094 18.761719 3.265625 17.308594 4.933594 16.355469 Z M 5.832031 17.929688 C 4.4375 18.730469 3.808594 19.695312 3.808594 20.566406 C 3.808594 21.433594 4.4375 22.398438 5.832031 23.199219 C 7.207031 23.980469 9.160156 24.496094 11.371094 24.496094 C 13.582031 24.496094 15.535156 23.980469 16.910156 23.199219 C 18.304688 22.398438 18.929688 21.433594 18.929688 20.566406 C 18.929688 19.695312 18.304688 18.730469 16.910156 17.929688 C 15.535156 17.148438 13.582031 16.632812 11.371094 16.632812 C 9.160156 16.632812 7.207031 17.148438 5.832031 17.929688 Z M 5.832031 17.929688 " fill-opacity="1" fill-rule="evenodd"/><path fill="#ff3434" d="M 22.453125 16.050781 C 21.964844 15.941406 21.480469 16.25 21.371094 16.742188 C 21.265625 17.230469 21.574219 17.714844 22.0625 17.820312 C 23.023438 18.03125 23.789062 18.394531 24.292969 18.804688 C 24.800781 19.222656 24.980469 19.625 24.980469 19.960938 C 24.980469 20.261719 24.832031 20.617188 24.433594 20.992188 C 24.027344 21.367188 23.402344 21.714844 22.601562 21.957031 C 22.121094 22.101562 21.851562 22.609375 21.992188 23.089844 C 22.136719 23.570312 22.644531 23.839844 23.125 23.695312 C 24.121094 23.394531 25.007812 22.933594 25.667969 22.320312 C 26.328125 21.707031 26.792969 20.902344 26.792969 19.960938 C 26.792969 18.914062 26.222656 18.039062 25.441406 17.402344 C 24.664062 16.765625 23.617188 16.304688 22.453125 16.050781 Z M 22.453125 16.050781 " fill-opacity="1" fill-rule="nonzero"/></svg>