<svg xmlns="http://www.w3.org/2000/svg" xmlns:xlink="http://www.w3.org/1999/xlink" width="500" zoomAndPan="magnify" viewBox="0 0 375 374.999991" height="500" preserveAspectRatio="xMidYMid meet" version="1.0"><path fill="#ff3434" d="M 140.625 19.53125 C 99.636719 19.53125 66.40625 52.761719 66.40625 93.75 C 66.40625 134.738281 99.636719 167.96875 140.625 167.96875 C 181.617188 167.96875 214.84375 134.738281 214.84375 93.75 C 214.84375 52.761719 181.617188 19.53125 140.625 19.53125 Z M 89.84375 93.75 C 89.84375 65.703125 112.578125 42.96875 140.625 42.96875 C 168.671875 42.96875 191.40625 65.703125 191.40625 93.75 C 191.40625 121.796875 168.671875 144.53125 140.625 144.53125 C 112.578125 144.53125 89.84375 121.796875 89.84375 93.75 Z M 89.84375 93.75 " fill-opacity="1" fill-rule="evenodd"/><path fill="#ff3434" d="M 234.375 35.15625 C 227.902344 35.15625 222.65625 40.402344 222.65625 46.875 C 222.65625 53.347656 227.902344 58.59375 234.375 58.59375 C 253.789062 58.59375 269.53125 74.332031 269.53125 93.75 C 269.53125 113.167969 253.789062 128.90625 234.375 128.90625 C 227.902344 128.90625 222.65625 134.152344 222.65625 140.625 C 222.65625 147.097656 227.902344 152.34375 234.375 152.34375 C 266.734375 152.34375 292.96875 126.109375 292.96875 93.75 C 292.96875 61.390625 266.734375 35.15625 234.375 35.15625 Z M 234.375 35.15625 " fill-opacity="1" fill-rule="nonzero"/><path fill="#ff3434" d="M 57.472656 211.257812 C 79.335938 198.761719 108.761719 191.40625 140.625 191.40625 C 172.488281 191.40625 201.914062 198.761719 223.78125 211.257812 C 245.3125 223.5625 261.71875 242.34375 261.71875 265.625 C 261.71875 288.90625 245.3125 307.6875 223.78125 319.992188 C 201.914062 332.488281 172.488281 339.84375 140.625 339.84375 C 108.761719 339.84375 79.335938 332.488281 57.472656 319.992188 C 35.9375 307.6875 19.53125 288.90625 19.53125 265.625 C 19.53125 242.34375 35.9375 223.5625 57.472656 211.257812 Z M 69.097656 231.605469 C 51.046875 241.921875 42.96875 254.386719 42.96875 265.625 C 42.96875 276.863281 51.046875 289.328125 69.097656 299.644531 C 86.820312 309.769531 112.082031 316.40625 140.625 316.40625 C 169.167969 316.40625 194.429688 309.769531 212.148438 299.644531 C 230.203125 289.328125 238.28125 276.863281 238.28125 265.625 C 238.28125 254.386719 230.203125 241.921875 212.148438 231.605469 C 194.429688 221.480469 169.167969 214.84375 140.625 214.84375 C 112.082031 214.84375 86.820312 221.480469 69.097656 231.605469 Z M 69.097656 231.605469 " fill-opacity="1" fill-rule="evenodd"/><path fill="#ff3434" d="M 283.761719 207.304688 C 277.4375 205.917969 271.1875 209.917969 269.804688 216.238281 C 268.417969 222.5625 272.417969 228.8125 278.738281 230.195312 C 291.121094 232.914062 301.015625 237.574219 307.546875 242.917969 C 314.085938 248.269531 316.40625 253.496094 316.40625 257.8125 C 316.40625 261.730469 314.523438 266.328125 309.328125 271.15625 C 304.09375 276.015625 296.054688 280.507812 285.683594 283.628906 C 279.484375 285.496094 275.976562 292.03125 277.839844 298.230469 C 279.707031 304.425781 286.242188 307.9375 292.441406 306.070312 C 305.292969 302.203125 316.785156 296.214844 325.277344 288.328125 C 333.808594 280.402344 339.84375 269.976562 339.84375 257.8125 C 339.84375 244.300781 332.433594 233 322.386719 224.78125 C 312.332031 216.550781 298.789062 210.597656 283.761719 207.304688 Z M 283.761719 207.304688 " fill-opacity="1" fill-rule="nonzero"/></svg>