<svg xmlns="http://www.w3.org/2000/svg" xmlns:xlink="http://www.w3.org/1999/xlink" width="500" zoomAndPan="magnify" viewBox="0 0 375 374.999991" height="500" preserveAspectRatio="xMidYMid meet" version="1.0"><defs><clipPath id="15217f66ad"><path d="M 209.417969 7.007812 L 368 7.007812 L 368 173 L 209.417969 173 Z M 209.417969 7.007812 " clip-rule="nonzero"/></clipPath><clipPath id="336a4e7f4a"><path d="M 361.5 113.625 C 353.625 131.8125 348.9375 140.4375 343.5 146.4375 C 338.0625 152.4375 331.3125 157.875 324.1875 162 C 317.0625 165.9375 309 169.125 300.9375 170.625 C 292.875 172.125 284.25 172.5 276.1875 171.375 C 268.125 170.25 259.875 167.625 252.5625 164.0625 C 245.25 160.5 238.125 155.4375 232.3125 149.625 C 226.5 143.8125 221.4375 136.875 217.875 129.5625 C 214.3125 122.25 211.6875 114 210.5625 105.9375 C 209.4375 97.875 209.8125 89.25 211.3125 81.1875 C 212.8125 73.125 215.8125 65.0625 219.75 57.9375 C 223.6875 50.8125 229.3125 44.0625 235.3125 38.625 C 241.3125 33.1875 248.625 28.5 256.125 25.3125 C 263.625 22.125 272.0625 20.0625 280.125 19.3125 C 288.1875 18.5625 297 19.3125 304.875 21.1875 C 312.75 23.0625 320.8125 26.625 327.5625 30.9375 C 334.5 35.25 340.875 41.0625 345.9375 47.4375 C 351 53.8125 355.3125 61.3125 358.125 69 C 360.9375 76.6875 362.625 85.125 362.8125 93.375 C 363 101.4375 362.0625 110.0625 359.625 117.9375 C 357.1875 125.625 353.25 133.5 348.5625 140.0625 C 343.875 146.625 337.6875 152.8125 331.125 157.5 C 324.5625 162.1875 316.6875 166.125 309 168.5625 C 301.125 171 292.5 172.125 284.4375 171.9375 C 276.1875 171.75 267.75 170.0625 260.0625 167.25 C 252.375 164.4375 244.875 160.3125 238.5 155.25 C 232.125 150.1875 226.3125 143.625 222 136.6875 C 217.6875 129.75 214.125 121.875 212.25 114 C 210.375 106.125 209.625 97.5 210.1875 89.4375 C 210.75 81.375 213 73.5 216.1875 65.4375 C 219.75 56.25 225.5625 45 230.8125 37.6875 C 234.75 32.0625 238.875 28.3125 243.5625 24.5625 C 248.25 20.8125 253.6875 17.4375 259.125 14.8125 C 264.5625 12.1875 270.375 10.3125 276.375 9 C 282.375 7.6875 288.5625 7.3125 294.75 7.5 C 300.75 7.6875 307.125 8.8125 312.9375 10.5 C 318.75 12.1875 324.5625 14.8125 329.8125 17.8125 C 335.0625 20.8125 340.125 24.5625 344.4375 28.875 C 348.75 33 352.6875 38.0625 355.875 43.125 C 359.0625 48.1875 361.875 53.8125 363.75 59.625 C 365.625 65.4375 366.9375 71.625 367.5 77.625 C 368.0625 83.625 367.5 90 366.5625 96 C 365.625 102 361.5 113.625 361.5 113.625 " clip-rule="nonzero"/></clipPath><clipPath id="75eede3ee7"><path d="M 215.640625 9.882812 L 354.390625 9.882812 L 354.390625 161.757812 L 215.640625 161.757812 Z M 215.640625 9.882812 " clip-rule="nonzero"/></clipPath></defs><path fill="#ff3434" d="M 289.0625 19.53125 C 295.535156 19.53125 300.78125 24.777344 300.78125 31.25 L 300.78125 74.21875 L 343.75 74.21875 C 350.222656 74.21875 355.46875 79.464844 355.46875 85.9375 C 355.46875 92.410156 350.222656 97.65625 343.75 97.65625 L 300.78125 97.65625 L 300.78125 140.625 C 300.78125 147.097656 295.535156 152.34375 289.0625 152.34375 C 282.589844 152.34375 277.34375 147.097656 277.34375 140.625 L 277.34375 97.65625 L 234.375 97.65625 C 227.902344 97.65625 222.65625 92.410156 222.65625 85.9375 C 222.65625 79.464844 227.902344 74.21875 234.375 74.21875 L 277.34375 74.21875 L 277.34375 31.25 C 277.34375 24.777344 282.589844 19.53125 289.0625 19.53125 Z M 289.0625 19.53125 " fill-opacity="1" fill-rule="evenodd"/><path fill="#ff3434" d="M 187.5 19.53125 L 186.601562 19.53125 C 150.535156 19.53125 122.269531 19.53125 100.214844 22.496094 C 77.640625 25.53125 59.828125 31.863281 45.847656 45.847656 C 31.863281 59.828125 25.53125 77.640625 22.496094 100.214844 C 19.53125 122.269531 19.53125 150.535156 19.53125 186.601562 L 19.53125 188.398438 C 19.53125 224.464844 19.53125 252.730469 22.496094 274.785156 C 25.53125 297.359375 31.863281 315.171875 45.847656 329.15625 C 59.828125 343.136719 77.640625 349.46875 100.214844 352.503906 C 122.269531 355.46875 150.535156 355.46875 186.601562 355.46875 L 188.398438 355.46875 C 224.464844 355.46875 252.730469 355.46875 274.785156 352.503906 C 297.359375 349.46875 315.171875 343.136719 329.15625 329.15625 C 343.136719 315.171875 349.46875 297.359375 352.503906 274.785156 C 355.46875 252.730469 355.46875 224.464844 355.46875 188.398438 L 355.46875 187.5 C 355.46875 181.027344 350.222656 175.78125 343.75 175.78125 C 337.277344 175.78125 332.03125 181.027344 332.03125 187.5 C 332.03125 224.660156 332.007812 251.351562 329.273438 271.664062 C 329.167969 272.464844 329.054688 273.253906 328.941406 274.027344 L 285.597656 235.019531 C 265.292969 216.746094 235.058594 214.925781 212.710938 230.632812 L 208.050781 233.90625 C 200.285156 239.363281 189.71875 238.449219 183.007812 231.738281 L 115.980469 164.710938 C 98.242188 146.96875 69.785156 146.023438 50.902344 162.542969 L 42.984375 169.472656 C 43.054688 141.46875 43.457031 120.203125 45.726562 103.335938 C 48.410156 83.363281 53.519531 71.320312 62.417969 62.417969 C 71.320312 53.519531 83.363281 48.410156 103.335938 45.722656 C 123.648438 42.992188 150.339844 42.96875 187.5 42.96875 C 193.972656 42.96875 199.21875 37.722656 199.21875 31.25 C 199.21875 24.777344 193.972656 19.53125 187.5 19.53125 Z M 45.726562 271.664062 C 48.410156 291.636719 53.519531 303.679688 62.417969 312.582031 C 71.320312 321.484375 83.363281 326.589844 103.335938 329.273438 C 123.648438 332.007812 150.339844 332.03125 187.5 332.03125 C 224.660156 332.03125 251.351562 332.007812 271.664062 329.273438 C 291.636719 326.589844 303.679688 321.484375 312.582031 312.582031 C 316.386719 308.777344 319.5 304.398438 322.023438 299.070312 C 321.417969 298.695312 320.835938 298.265625 320.285156 297.773438 L 269.917969 252.441406 C 257.734375 241.476562 239.59375 240.382812 226.1875 249.808594 L 221.527344 253.082031 C 204.441406 265.089844 181.199219 263.078125 166.4375 248.3125 L 99.410156 181.285156 C 90.394531 172.269531 75.929688 171.789062 66.335938 180.183594 L 42.976562 200.625 C 43.015625 231.070312 43.328125 253.824219 45.726562 271.664062 Z M 45.726562 271.664062 " fill-opacity="1" fill-rule="evenodd"/><g clip-path="url(#15217f66ad)"><g clip-path="url(#336a4e7f4a)"><path fill="#ffffff" d="M 202.6875 0 L 375 0 L 375 179.4375 L 202.6875 179.4375 Z M 202.6875 0 " fill-opacity="1" fill-rule="nonzero"/></g></g><g clip-path="url(#75eede3ee7)"><path fill="#ff3434" d="M 208.933594 -39.023438 L 255.261719 -39.023438 C 285.289062 -39.027344 309.492188 -39.027344 328.527344 -36.464844 C 348.289062 -33.808594 364.929688 -28.125 378.148438 -14.910156 C 386.933594 -6.121094 392.390625 4.179688 395.84375 15.90625 C 400.488281 15.976562 404.367188 16.179688 407.9375 16.746094 C 438.472656 21.582031 462.417969 45.53125 467.253906 76.0625 C 468.136719 81.636719 468.136719 87.964844 468.132812 96.785156 C 468.132812 97.25 468.132812 97.722656 468.132812 98.203125 L 468.132812 295.816406 C 468.132812 296.296875 468.132812 296.769531 468.132812 297.238281 C 468.136719 306.058594 468.136719 312.382812 467.253906 317.957031 C 462.417969 348.492188 438.472656 372.4375 407.9375 377.277344 C 404.367188 377.839844 400.488281 378.042969 395.84375 378.113281 C 392.390625 389.839844 386.933594 400.140625 378.148438 408.929688 C 364.929688 422.148438 348.289062 427.832031 328.527344 430.488281 C 309.492188 433.046875 285.289062 433.046875 255.261719 433.046875 L 208.933594 433.046875 C 178.90625 433.046875 154.703125 433.046875 135.667969 430.488281 C 115.90625 427.832031 99.265625 422.148438 86.046875 408.929688 C 77.261719 400.140625 71.804688 389.839844 68.351562 378.113281 C 63.707031 378.042969 59.828125 377.839844 56.257812 377.277344 C 25.722656 372.4375 1.777344 348.492188 -3.058594 317.957031 C -3.941406 312.382812 -3.941406 306.058594 -3.9375 297.238281 C -3.9375 296.769531 -3.9375 296.296875 -3.9375 295.816406 L -3.9375 98.203125 C -3.9375 97.722656 -3.9375 97.25 -3.9375 96.785156 C -3.941406 87.964844 -3.941406 81.636719 -3.058594 76.0625 C 1.777344 45.53125 25.722656 21.582031 56.257812 16.746094 C 59.828125 16.179688 63.707031 15.976562 68.351562 15.90625 C 71.804688 4.179688 77.261719 -6.121094 86.046875 -14.910156 C 99.265625 -28.125 115.90625 -33.808594 135.667969 -36.464844 C 154.703125 -39.027344 178.90625 -39.027344 208.933594 -39.023438 Z M 63.074219 49.070312 C 62.457031 49.128906 61.917969 49.195312 61.410156 49.273438 C 44.96875 51.878906 32.074219 64.773438 29.46875 81.214844 C 29.046875 83.878906 28.996094 87.375 28.996094 98.203125 L 28.996094 295.816406 C 28.996094 306.644531 29.046875 310.140625 29.46875 312.804688 C 32.074219 329.246094 44.96875 342.144531 61.410156 344.746094 C 61.917969 344.824219 62.457031 344.894531 63.074219 344.949219 C 61.933594 328.515625 61.933594 308.980469 61.933594 286.042969 L 61.933594 258.855469 C 61.933594 258.84375 61.933594 258.832031 61.933594 258.820312 L 61.933594 107.976562 C 61.933594 85.042969 61.933594 65.503906 63.074219 49.070312 Z M 94.867188 265.535156 L 94.867188 284.835938 C 94.867188 316.355469 94.902344 338.335938 97.132812 354.921875 C 99.296875 371.035156 103.261719 379.5625 109.335938 385.640625 C 115.414062 391.71875 123.945312 395.679688 140.058594 397.847656 C 156.640625 400.074219 178.625 400.109375 210.140625 400.109375 L 254.054688 400.109375 C 285.570312 400.109375 307.550781 400.074219 324.136719 397.847656 C 340.25 395.679688 348.78125 391.71875 354.859375 385.640625 C 358.195312 382.304688 360.894531 378.226562 363.007812 372.558594 L 321.691406 328.953125 C 310.636719 317.289062 295.367188 316.492188 283.738281 326.074219 L 278.914062 330.050781 C 258.792969 346.628906 231.105469 343.371094 214.425781 323.8125 L 145.023438 242.433594 C 137.339844 233.421875 126.378906 233.207031 118.53125 241.257812 Z M 368.871094 330.859375 L 345.597656 306.300781 C 323.011719 282.464844 288.1875 279.726562 262.792969 300.65625 L 257.96875 304.632812 C 252.355469 309.253906 245.046875 308.960938 239.484375 302.441406 L 170.082031 221.0625 C 150.066406 197.589844 116.585938 196.066406 94.945312 218.269531 L 94.867188 218.351562 L 94.867188 109.183594 C 94.867188 77.667969 94.902344 55.683594 97.132812 39.101562 C 99.296875 22.988281 103.261719 14.457031 109.335938 8.378906 C 115.414062 2.304688 123.945312 -1.660156 140.058594 -3.824219 C 156.640625 -6.054688 178.625 -6.089844 210.140625 -6.089844 L 254.054688 -6.089844 C 285.570312 -6.089844 307.550781 -6.054688 324.136719 -3.824219 C 340.25 -1.660156 348.78125 2.304688 354.859375 8.378906 C 360.9375 14.457031 364.898438 22.988281 367.0625 39.101562 C 369.292969 55.683594 369.328125 77.667969 369.328125 109.183594 L 369.328125 284.835938 C 369.328125 303.117188 369.316406 318.191406 368.871094 330.859375 Z M 401.125 344.949219 C 401.738281 344.894531 402.277344 344.824219 402.785156 344.746094 C 419.226562 342.144531 432.121094 329.246094 434.726562 312.804688 C 435.148438 310.140625 435.199219 306.644531 435.199219 295.816406 L 435.199219 98.203125 C 435.199219 87.375 435.148438 83.878906 434.726562 81.214844 C 432.121094 64.773438 419.226562 51.878906 402.785156 49.273438 C 402.277344 49.195312 401.738281 49.128906 401.125 49.070312 C 402.261719 65.503906 402.261719 85.042969 402.261719 107.980469 L 402.261719 286.042969 C 402.261719 308.980469 402.261719 328.515625 401.125 344.949219 Z M 286.988281 59.78125 C 277.894531 59.78125 270.523438 67.152344 270.523438 76.25 C 270.523438 85.34375 277.894531 92.714844 286.988281 92.714844 C 296.085938 92.714844 303.457031 85.34375 303.457031 76.25 C 303.457031 67.152344 296.085938 59.78125 286.988281 59.78125 Z M 237.585938 76.25 C 237.585938 48.964844 259.707031 26.84375 286.988281 26.84375 C 314.273438 26.84375 336.390625 48.964844 336.390625 76.25 C 336.390625 103.53125 314.273438 125.652344 286.988281 125.652344 C 259.707031 125.652344 237.585938 103.53125 237.585938 76.25 Z M 237.585938 76.25 " fill-opacity="1" fill-rule="evenodd"/></g></svg>