<svg xmlns="http://www.w3.org/2000/svg" xmlns:xlink="http://www.w3.org/1999/xlink" width="500" zoomAndPan="magnify" viewBox="0 0 375 374.999991" height="500" preserveAspectRatio="xMidYMid meet" version="1.0"><path fill="#ff3434" d="M 140.625 82.039062 C 134.152344 82.039062 128.90625 87.285156 128.90625 93.757812 C 128.90625 100.226562 134.152344 105.476562 140.625 105.476562 L 234.375 105.476562 C 240.847656 105.476562 246.09375 100.226562 246.09375 93.757812 C 246.09375 87.285156 240.847656 82.039062 234.375 82.039062 Z M 140.625 82.039062 " fill-opacity="1" fill-rule="nonzero"/><path fill="#ff3434" d="M 186.601562 19.539062 C 154.21875 19.539062 128.707031 19.535156 108.769531 22.246094 C 88.300781 25.027344 71.96875 30.859375 59.136719 43.832031 C 46.324219 56.785156 40.578125 73.242188 37.832031 93.871094 C 35.15625 114 35.15625 139.765625 35.15625 172.523438 L 35.15625 252.179688 C 35.15625 275.734375 35.15625 294.382812 36.65625 308.425781 C 38.140625 322.300781 41.320312 334.820312 50.402344 343.191406 C 57.691406 349.90625 66.90625 354.140625 76.746094 355.265625 C 89.046875 356.671875 100.539062 350.800781 111.855469 342.785156 C 123.308594 334.671875 137.199219 322.382812 154.726562 306.878906 L 155.296875 306.375 C 163.421875 299.1875 168.925781 294.335938 173.515625 290.980469 C 177.953125 287.738281 180.660156 286.5625 182.945312 286.105469 C 185.953125 285.5 189.046875 285.5 192.054688 286.105469 C 194.339844 286.5625 197.046875 287.738281 201.484375 290.980469 C 206.074219 294.335938 211.578125 299.1875 219.703125 306.375 L 220.273438 306.882812 C 237.800781 322.382812 251.695312 334.671875 263.144531 342.785156 C 274.460938 350.800781 285.949219 356.671875 298.257812 355.265625 C 308.09375 354.140625 317.308594 349.90625 324.597656 343.191406 C 333.679688 334.820312 336.859375 322.300781 338.34375 308.425781 C 339.84375 294.382812 339.84375 275.734375 339.84375 252.179688 L 339.84375 172.523438 C 339.84375 139.765625 339.84375 114 337.167969 93.871094 C 334.421875 73.242188 328.675781 56.785156 315.863281 43.832031 C 303.03125 30.859375 286.699219 25.027344 266.230469 22.246094 C 246.292969 19.535156 220.78125 19.539062 188.398438 19.539062 Z M 75.800781 60.316406 C 83.5625 52.46875 94.101562 47.894531 111.925781 45.46875 C 130.101562 43 154.019531 42.976562 187.5 42.976562 C 220.980469 42.976562 244.898438 43 263.074219 45.46875 C 280.898438 47.894531 291.4375 52.46875 299.199219 60.316406 C 306.980469 68.179688 311.53125 78.882812 313.933594 96.960938 C 316.382812 115.363281 316.40625 139.570312 316.40625 173.40625 L 316.40625 251.425781 C 316.40625 275.902344 316.390625 293.289062 315.039062 305.933594 C 313.652344 318.890625 311.101562 323.757812 308.714844 325.957031 C 305.0625 329.324219 300.464844 331.421875 295.59375 331.980469 C 292.472656 332.339844 287.242188 331.128906 276.695312 323.65625 C 266.402344 316.367188 253.453125 304.9375 235.230469 288.820312 L 234.820312 288.457031 C 227.207031 281.722656 220.894531 276.140625 215.320312 272.0625 C 209.488281 267.800781 203.613281 264.523438 196.6875 263.128906 C 190.621094 261.90625 184.378906 261.90625 178.316406 263.128906 C 171.386719 264.523438 165.507812 267.800781 159.679688 272.0625 C 154.105469 276.140625 147.792969 281.722656 140.179688 288.457031 L 139.769531 288.820312 C 121.542969 304.9375 108.597656 316.367188 98.308594 323.65625 C 87.757812 331.128906 82.527344 332.339844 79.410156 331.980469 C 74.535156 331.421875 69.941406 329.324219 66.285156 325.957031 C 63.902344 323.757812 61.347656 318.890625 59.960938 305.933594 C 58.609375 293.289062 58.59375 275.902344 58.59375 251.425781 L 58.59375 173.40625 C 58.59375 139.570312 58.617188 115.363281 61.066406 96.960938 C 63.46875 78.882812 68.019531 68.179688 75.800781 60.316406 Z M 75.800781 60.316406 " fill-opacity="1" fill-rule="evenodd"/></svg>