<svg xmlns="http://www.w3.org/2000/svg" xmlns:xlink="http://www.w3.org/1999/xlink" width="40" zoomAndPan="magnify" viewBox="0 0 30 30.000001" height="40" preserveAspectRatio="xMidYMid meet" version="1.0"><path fill="#ff3434" d="M 25.886719 13.425781 L 25.886719 19.464844 C 25.886719 23.210938 25.886719 25.082031 25 25.902344 C 24.574219 26.292969 24.039062 26.539062 23.472656 26.601562 C 22.277344 26.738281 20.882812 25.503906 18.09375 23.039062 C 16.863281 21.949219 16.246094 21.402344 15.53125 21.261719 C 15.179688 21.1875 14.820312 21.1875 14.46875 21.261719 C 13.753906 21.402344 13.136719 21.949219 11.90625 23.039062 C 9.117188 25.503906 7.722656 26.738281 6.527344 26.601562 C 5.960938 26.539062 5.425781 26.292969 5 25.902344 C 4.113281 25.082031 4.113281 23.210938 4.113281 19.464844 L 4.113281 13.425781 C 4.113281 8.238281 4.113281 5.640625 5.707031 4.03125 C 7.300781 2.417969 9.867188 2.417969 15 2.417969 C 20.132812 2.417969 22.699219 2.417969 24.292969 4.03125 C 25.886719 5.640625 25.886719 8.238281 25.886719 13.425781 Z M 10.464844 7.257812 C 10.464844 6.757812 10.871094 6.351562 11.371094 6.351562 L 18.628906 6.351562 C 19.128906 6.351562 19.535156 6.757812 19.535156 7.257812 C 19.535156 7.757812 19.128906 8.164062 18.628906 8.164062 L 11.371094 8.164062 C 10.871094 8.164062 10.464844 7.757812 10.464844 7.257812 Z M 10.464844 7.257812 " fill-opacity="1" fill-rule="evenodd"/></svg>