<svg xmlns="http://www.w3.org/2000/svg" xmlns:xlink="http://www.w3.org/1999/xlink" width="500" zoomAndPan="magnify" viewBox="0 0 375 374.999991" height="500" preserveAspectRatio="xMidYMid meet" version="1.0"><path fill="#ff3434" d="M 328.125 173.394531 L 328.125 251.417969 C 328.125 299.800781 328.125 323.992188 316.652344 334.5625 C 311.183594 339.605469 304.277344 342.773438 296.921875 343.613281 C 281.5 345.378906 263.488281 329.449219 227.464844 297.589844 C 211.542969 283.503906 203.582031 276.464844 194.371094 274.605469 C 189.835938 273.695312 185.164062 273.695312 180.628906 274.605469 C 171.417969 276.464844 163.457031 283.503906 147.535156 297.589844 C 111.511719 329.449219 93.5 345.378906 78.078125 343.613281 C 70.722656 342.773438 63.816406 339.605469 58.34375 334.5625 C 46.875 323.992188 46.875 299.800781 46.875 251.417969 L 46.875 173.394531 C 46.875 106.386719 46.875 72.882812 67.46875 52.0625 C 88.0625 31.246094 121.207031 31.246094 187.5 31.246094 C 253.789062 31.246094 286.9375 31.246094 307.53125 52.0625 C 328.125 72.882812 328.125 106.386719 328.125 173.394531 Z M 128.90625 93.746094 C 128.90625 87.273438 134.152344 82.027344 140.625 82.027344 L 234.375 82.027344 C 240.847656 82.027344 246.09375 87.273438 246.09375 93.746094 C 246.09375 100.21875 240.847656 105.464844 234.375 105.464844 L 140.625 105.464844 C 134.152344 105.464844 128.90625 100.21875 128.90625 93.746094 Z M 128.90625 93.746094 " fill-opacity="1" fill-rule="evenodd"/></svg>