<svg xmlns="http://www.w3.org/2000/svg" xmlns:xlink="http://www.w3.org/1999/xlink" width="40" zoomAndPan="magnify" viewBox="0 0 30 30.000001" height="40" preserveAspectRatio="xMidYMid meet" version="1.0"><path fill="#5c5c7b" d="M 14.394531 3.328125 C 8.550781 3.328125 3.808594 8.066406 3.808594 13.910156 C 3.808594 19.757812 8.550781 24.496094 14.394531 24.496094 C 20.242188 24.496094 24.980469 19.757812 24.980469 13.910156 C 24.980469 8.066406 20.242188 3.328125 14.394531 3.328125 Z M 1.996094 13.910156 C 1.996094 7.0625 7.546875 1.511719 14.394531 1.511719 C 21.242188 1.511719 26.792969 7.0625 26.792969 13.910156 C 26.792969 17.007812 25.660156 19.839844 23.78125 22.015625 L 27.738281 25.972656 C 28.09375 26.324219 28.09375 26.898438 27.738281 27.253906 C 27.382812 27.609375 26.808594 27.609375 26.457031 27.253906 L 22.496094 23.296875 C 20.324219 25.175781 17.492188 26.308594 14.394531 26.308594 C 7.546875 26.308594 1.996094 20.757812 1.996094 13.910156 Z M 1.996094 13.910156 " fill-opacity="1" fill-rule="evenodd"/></svg>