<svg xmlns="http://www.w3.org/2000/svg" xmlns:xlink="http://www.w3.org/1999/xlink" width="500" zoomAndPan="magnify" viewBox="0 0 375 374.999991" height="500" preserveAspectRatio="xMidYMid meet" version="1.0"><path fill="#5c5c7b" d="M 179.6875 42.96875 C 104.179688 42.96875 42.96875 104.179688 42.96875 179.6875 C 42.96875 255.195312 104.179688 316.40625 179.6875 316.40625 C 255.195312 316.40625 316.40625 255.195312 316.40625 179.6875 C 316.40625 104.179688 255.195312 42.96875 179.6875 42.96875 Z M 19.53125 179.6875 C 19.53125 91.234375 91.234375 19.53125 179.6875 19.53125 C 268.140625 19.53125 339.84375 91.234375 339.84375 179.6875 C 339.84375 219.695312 325.171875 256.277344 300.921875 284.347656 L 352.035156 335.464844 C 356.613281 340.039062 356.613281 347.460938 352.035156 352.035156 C 347.460938 356.613281 340.039062 356.613281 335.464844 352.035156 L 284.347656 300.921875 C 256.277344 325.171875 219.695312 339.84375 179.6875 339.84375 C 91.234375 339.84375 19.53125 268.140625 19.53125 179.6875 Z M 19.53125 179.6875 " fill-opacity="1" fill-rule="evenodd"/></svg>