<svg xmlns="http://www.w3.org/2000/svg" xmlns:xlink="http://www.w3.org/1999/xlink" width="40" zoomAndPan="magnify" viewBox="0 0 30 30.000001" height="40" preserveAspectRatio="xMidYMid meet" version="1.0"><path fill="#ff3434" d="M 17.75 5.574219 C 17.765625 5.589844 17.78125 5.601562 17.796875 5.617188 L 22.652344 9.933594 C 23.558594 10.738281 24.308594 11.40625 24.824219 12.011719 C 25.367188 12.648438 25.753906 13.332031 25.753906 14.183594 C 25.753906 15.03125 25.367188 15.714844 24.824219 16.351562 C 24.308594 16.957031 23.558594 17.625 22.652344 18.429688 L 17.796875 22.746094 C 17.78125 22.761719 17.765625 22.773438 17.75 22.789062 C 17.359375 23.136719 16.992188 23.464844 16.675781 23.671875 C 16.363281 23.878906 15.800781 24.175781 15.167969 23.890625 C 14.535156 23.605469 14.382812 22.988281 14.328125 22.617188 C 14.273438 22.242188 14.273438 21.753906 14.273438 21.226562 C 14.273438 21.207031 14.273438 21.1875 14.273438 21.164062 L 14.273438 19.269531 C 12.519531 19.390625 10.738281 19.855469 9.183594 20.613281 C 7.351562 21.503906 5.890625 22.769531 5.097656 24.28125 C 4.902344 24.652344 4.484375 24.839844 4.078125 24.738281 C 3.671875 24.640625 3.386719 24.277344 3.386719 23.859375 C 3.386719 18.148438 5.058594 14.429688 7.449219 12.144531 C 9.53125 10.152344 12.066406 9.332031 14.273438 9.164062 L 14.273438 7.199219 C 14.273438 7.175781 14.273438 7.15625 14.273438 7.136719 C 14.273438 6.609375 14.273438 6.121094 14.328125 5.746094 C 14.382812 5.375 14.535156 4.757812 15.167969 4.472656 C 15.800781 4.1875 16.363281 4.484375 16.675781 4.691406 C 16.992188 4.898438 17.359375 5.226562 17.75 5.574219 Z M 16.09375 6.53125 C 16.230469 6.648438 16.390625 6.792969 16.59375 6.972656 L 21.398438 11.242188 C 22.367188 12.105469 23.019531 12.6875 23.445312 13.1875 C 23.851562 13.664062 23.9375 13.945312 23.9375 14.183594 C 23.9375 14.417969 23.851562 14.699219 23.445312 15.175781 C 23.019531 15.675781 22.367188 16.257812 21.398438 17.121094 L 16.59375 21.390625 C 16.390625 21.570312 16.230469 21.714844 16.09375 21.832031 C 16.089844 21.648438 16.089844 21.433594 16.089844 21.164062 L 16.089844 18.328125 C 16.089844 17.828125 15.683594 17.421875 15.179688 17.421875 C 12.867188 17.421875 10.464844 17.972656 8.386719 18.984375 C 7.277344 19.523438 6.242188 20.207031 5.363281 21.023438 C 5.808594 17.339844 7.128906 14.960938 8.703125 13.453125 C 10.660156 11.578125 13.136719 10.941406 15.179688 10.941406 C 15.683594 10.941406 16.089844 10.535156 16.089844 10.035156 L 16.089844 7.199219 C 16.089844 6.929688 16.089844 6.714844 16.09375 6.53125 Z M 16.09375 6.53125 " fill-opacity="1" fill-rule="evenodd"/></svg>