<svg xmlns="http://www.w3.org/2000/svg" xmlns:xlink="http://www.w3.org/1999/xlink" width="500" zoomAndPan="magnify" viewBox="0 0 375 374.999991" height="500" preserveAspectRatio="xMidYMid meet" version="1.0"><path fill="#ff3434" d="M 223.03125 72 C 223.230469 72.179688 223.433594 72.359375 223.636719 72.539062 L 286.351562 128.285156 C 298.054688 138.6875 307.753906 147.308594 314.414062 155.136719 C 321.414062 163.363281 326.398438 172.21875 326.398438 183.179688 C 326.398438 194.140625 321.414062 202.996094 314.414062 211.222656 C 307.753906 219.050781 298.054688 227.671875 286.351562 238.074219 L 223.636719 293.820312 C 223.433594 294 223.230469 294.179688 223.03125 294.359375 C 217.960938 298.867188 213.230469 303.074219 209.144531 305.769531 C 205.128906 308.421875 197.832031 312.273438 189.65625 308.597656 C 181.480469 304.925781 179.507812 296.914062 178.820312 292.15625 C 178.121094 287.308594 178.125 280.976562 178.125 274.191406 C 178.125 273.925781 178.125 273.65625 178.125 273.382812 L 178.125 248.875 C 155.445312 250.441406 132.464844 256.460938 112.359375 266.257812 C 88.71875 277.777344 69.839844 294.109375 59.59375 313.628906 C 57.089844 318.402344 51.648438 320.847656 46.414062 319.558594 C 41.179688 318.265625 37.5 313.570312 37.5 308.179688 C 37.5 234.414062 59.085938 186.382812 89.945312 156.855469 C 116.84375 131.117188 149.628906 120.554688 178.125 118.34375 L 178.125 92.972656 C 178.125 92.703125 178.125 92.433594 178.125 92.164062 C 178.125 85.382812 178.121094 79.050781 178.820312 74.203125 C 179.507812 69.445312 181.480469 61.429688 189.65625 57.757812 C 197.832031 54.089844 205.128906 57.9375 209.144531 60.585938 C 213.230469 63.285156 217.960938 67.492188 223.03125 72 Z M 201.609375 84.382812 C 203.378906 85.894531 205.488281 87.761719 208.0625 90.054688 L 270.132812 145.226562 C 282.648438 156.351562 291.09375 163.894531 296.566406 170.324219 C 301.820312 176.5 302.960938 180.105469 302.960938 183.179688 C 302.960938 186.253906 301.820312 189.859375 296.566406 196.035156 C 291.09375 202.464844 282.648438 210.007812 270.132812 221.132812 L 208.0625 276.304688 C 205.488281 278.59375 203.378906 280.460938 201.609375 281.976562 C 201.566406 279.652344 201.5625 276.835938 201.5625 273.382812 L 201.5625 236.75 C 201.5625 230.277344 196.316406 225.03125 189.84375 225.03125 C 159.960938 225.03125 128.90625 232.125 102.09375 245.191406 C 87.738281 252.1875 74.371094 261.007812 63.03125 271.566406 C 68.792969 223.957031 85.820312 193.242188 106.148438 173.789062 C 131.460938 149.570312 163.445312 141.328125 189.84375 141.328125 C 196.316406 141.328125 201.5625 136.082031 201.5625 129.609375 L 201.5625 92.972656 C 201.5625 89.527344 201.566406 86.707031 201.609375 84.382812 Z M 201.609375 84.382812 " fill-opacity="1" fill-rule="evenodd"/></svg>