<svg xmlns="http://www.w3.org/2000/svg" xmlns:xlink="http://www.w3.org/1999/xlink" width="500" zoomAndPan="magnify" viewBox="0 0 375 374.999991" height="500" preserveAspectRatio="xMidYMid meet" version="1.0"><path fill="#ff3434" d="M 171.015625 19.53125 L 203.984375 19.53125 C 225.351562 19.53125 242.574219 19.53125 256.121094 21.351562 C 270.1875 23.242188 282.027344 27.289062 291.433594 36.691406 C 297.6875 42.945312 301.570312 50.277344 304.023438 58.621094 C 307.332031 58.671875 310.089844 58.816406 312.632812 59.21875 C 334.359375 62.660156 351.402344 79.703125 354.84375 101.429688 C 355.472656 105.398438 355.46875 109.898438 355.46875 116.175781 C 355.46875 116.507812 355.46875 116.84375 355.46875 117.1875 L 355.46875 257.8125 C 355.46875 258.15625 355.46875 258.492188 355.46875 258.824219 C 355.46875 265.101562 355.472656 269.601562 354.84375 273.570312 C 351.402344 295.296875 334.359375 312.339844 312.632812 315.78125 C 310.089844 316.183594 307.332031 316.328125 304.023438 316.378906 C 301.570312 324.722656 297.6875 332.054688 291.433594 338.308594 C 282.027344 347.710938 270.1875 351.757812 256.121094 353.648438 C 242.574219 355.46875 225.351562 355.46875 203.984375 355.46875 L 171.015625 355.46875 C 149.648438 355.46875 132.425781 355.46875 118.878906 353.648438 C 104.816406 351.757812 92.972656 347.710938 83.566406 338.308594 C 77.316406 332.054688 73.429688 324.722656 70.972656 316.378906 C 67.667969 316.328125 64.910156 316.183594 62.367188 315.78125 C 40.640625 312.339844 23.597656 295.296875 20.15625 273.570312 C 19.527344 269.601562 19.53125 265.101562 19.53125 258.824219 C 19.53125 258.492188 19.53125 258.15625 19.53125 257.8125 L 19.53125 117.1875 C 19.53125 116.84375 19.53125 116.507812 19.53125 116.175781 C 19.53125 109.898438 19.527344 105.398438 20.15625 101.429688 C 23.597656 79.703125 40.640625 62.660156 62.367188 59.21875 C 64.910156 58.816406 67.667969 58.671875 70.972656 58.621094 C 73.429688 50.277344 77.316406 42.945312 83.566406 36.691406 C 92.972656 27.289062 104.816406 23.242188 118.878906 21.351562 C 132.425781 19.53125 149.648438 19.53125 171.015625 19.53125 Z M 67.21875 82.222656 C 66.78125 82.261719 66.398438 82.3125 66.035156 82.367188 C 54.335938 84.222656 45.160156 93.398438 43.304688 105.097656 C 43.003906 106.992188 42.96875 109.480469 42.96875 117.1875 L 42.96875 257.8125 C 42.96875 265.519531 43.003906 268.007812 43.304688 269.902344 C 45.160156 281.601562 54.335938 290.78125 66.035156 292.632812 C 66.398438 292.6875 66.78125 292.738281 67.21875 292.777344 C 66.40625 281.082031 66.40625 267.179688 66.40625 250.859375 L 66.40625 231.507812 C 66.40625 231.5 66.40625 231.492188 66.40625 231.484375 L 66.40625 124.140625 C 66.40625 107.820312 66.40625 93.917969 67.21875 82.222656 Z M 89.84375 236.265625 L 89.84375 250 C 89.84375 272.429688 89.867188 288.070312 91.457031 299.875 C 92.996094 311.339844 95.816406 317.410156 100.140625 321.734375 C 104.464844 326.058594 110.535156 328.878906 122 330.421875 C 133.804688 332.007812 149.445312 332.03125 171.875 332.03125 L 203.125 332.03125 C 225.554688 332.03125 241.195312 332.007812 253 330.421875 C 264.464844 328.878906 270.535156 326.058594 274.859375 321.734375 C 277.234375 319.359375 279.15625 316.457031 280.660156 312.425781 L 251.257812 281.394531 C 243.390625 273.09375 232.523438 272.523438 224.25 279.34375 L 220.816406 282.171875 C 206.5 293.972656 186.792969 291.652344 174.925781 277.734375 L 125.535156 219.824219 C 120.066406 213.410156 112.265625 213.257812 106.683594 218.988281 Z M 284.832031 282.75 L 268.269531 265.273438 C 252.195312 248.3125 227.414062 246.363281 209.34375 261.257812 L 205.910156 264.085938 C 201.917969 267.375 196.714844 267.167969 192.757812 262.527344 L 143.371094 204.617188 C 129.125 187.910156 105.300781 186.828125 89.898438 202.628906 L 89.84375 202.6875 L 89.84375 125 C 89.84375 102.570312 89.867188 86.929688 91.457031 75.125 C 92.996094 63.660156 95.816406 57.589844 100.140625 53.265625 C 104.464844 48.941406 110.535156 46.121094 122 44.582031 C 133.804688 42.992188 149.445312 42.96875 171.875 42.96875 L 203.125 42.96875 C 225.554688 42.96875 241.195312 42.992188 253 44.582031 C 264.464844 46.121094 270.535156 48.941406 274.859375 53.265625 C 279.183594 57.589844 282.003906 63.660156 283.546875 75.125 C 285.132812 86.929688 285.15625 102.570312 285.15625 125 L 285.15625 250 C 285.15625 263.007812 285.148438 273.734375 284.832031 282.75 Z M 307.78125 292.777344 C 308.21875 292.738281 308.601562 292.6875 308.964844 292.632812 C 320.664062 290.78125 329.84375 281.601562 331.695312 269.902344 C 331.996094 268.007812 332.03125 265.519531 332.03125 257.8125 L 332.03125 117.1875 C 332.03125 109.480469 331.996094 106.992188 331.695312 105.097656 C 329.84375 93.398438 320.664062 84.222656 308.964844 82.367188 C 308.601562 82.3125 308.21875 82.261719 307.78125 82.222656 C 308.59375 93.917969 308.59375 107.820312 308.59375 124.144531 L 308.59375 250.859375 C 308.59375 267.179688 308.59375 281.082031 307.78125 292.777344 Z M 226.5625 89.84375 C 220.089844 89.84375 214.84375 95.089844 214.84375 101.5625 C 214.84375 108.035156 220.089844 113.28125 226.5625 113.28125 C 233.035156 113.28125 238.28125 108.035156 238.28125 101.5625 C 238.28125 95.089844 233.035156 89.84375 226.5625 89.84375 Z M 191.40625 101.5625 C 191.40625 82.144531 207.148438 66.40625 226.5625 66.40625 C 245.976562 66.40625 261.71875 82.144531 261.71875 101.5625 C 261.71875 120.980469 245.976562 136.71875 226.5625 136.71875 C 207.148438 136.71875 191.40625 120.980469 191.40625 101.5625 Z M 191.40625 101.5625 " fill-opacity="1" fill-rule="evenodd"/></svg>