<svg xmlns="http://www.w3.org/2000/svg" xmlns:xlink="http://www.w3.org/1999/xlink" width="40" zoomAndPan="magnify" viewBox="0 0 30 30.000001" height="40" preserveAspectRatio="xMidYMid meet" version="1.0"><path fill="#ff3434" d="M 13.835938 1.5 L 16.367188 1.5 C 18.011719 1.5 19.332031 1.5 20.375 1.640625 C 21.453125 1.785156 22.363281 2.097656 23.085938 2.820312 C 23.566406 3.300781 23.863281 3.863281 24.054688 4.503906 C 24.308594 4.507812 24.519531 4.519531 24.714844 4.550781 C 26.382812 4.8125 27.691406 6.121094 27.957031 7.792969 C 28.003906 8.097656 28.003906 8.441406 28.003906 8.925781 C 28.003906 8.949219 28.003906 8.976562 28.003906 9 L 28.003906 19.804688 C 28.003906 19.828125 28.003906 19.855469 28.003906 19.882812 C 28.003906 20.363281 28.003906 20.710938 27.957031 21.015625 C 27.691406 22.683594 26.382812 23.992188 24.714844 24.257812 C 24.519531 24.289062 24.308594 24.296875 24.054688 24.300781 C 23.863281 24.945312 23.566406 25.507812 23.085938 25.988281 C 22.363281 26.710938 21.453125 27.019531 20.375 27.164062 C 19.332031 27.304688 18.011719 27.304688 16.367188 27.304688 L 13.835938 27.304688 C 12.195312 27.304688 10.871094 27.304688 9.832031 27.164062 C 8.75 27.019531 7.839844 26.710938 7.121094 25.988281 C 6.640625 25.507812 6.339844 24.945312 6.152344 24.300781 C 5.898438 24.296875 5.6875 24.289062 5.492188 24.257812 C 3.820312 23.992188 2.511719 22.683594 2.25 21.015625 C 2.199219 20.710938 2.199219 20.363281 2.199219 19.882812 C 2.199219 19.855469 2.199219 19.828125 2.199219 19.804688 L 2.199219 9 C 2.199219 8.976562 2.199219 8.949219 2.199219 8.925781 C 2.199219 8.441406 2.199219 8.097656 2.25 7.792969 C 2.511719 6.121094 3.820312 4.8125 5.492188 4.550781 C 5.6875 4.519531 5.898438 4.507812 6.152344 4.503906 C 6.339844 3.863281 6.640625 3.300781 7.121094 2.820312 C 7.839844 2.097656 8.75 1.785156 9.832031 1.640625 C 10.871094 1.5 12.195312 1.5 13.835938 1.5 Z M 5.863281 6.316406 C 5.828125 6.320312 5.800781 6.324219 5.773438 6.328125 C 4.875 6.46875 4.167969 7.175781 4.027344 8.074219 C 4.003906 8.21875 4 8.410156 4 9 L 4 19.804688 C 4 20.394531 4.003906 20.585938 4.027344 20.734375 C 4.167969 21.632812 4.875 22.335938 5.773438 22.476562 C 5.800781 22.484375 5.828125 22.488281 5.863281 22.488281 C 5.800781 21.589844 5.800781 20.523438 5.800781 19.269531 L 5.800781 17.785156 C 5.800781 17.78125 5.800781 17.78125 5.800781 17.78125 L 5.800781 9.535156 C 5.800781 8.28125 5.800781 7.214844 5.863281 6.316406 Z M 7.601562 18.148438 L 7.601562 19.203125 C 7.601562 20.925781 7.601562 22.128906 7.726562 23.035156 C 7.84375 23.914062 8.058594 24.382812 8.390625 24.714844 C 8.722656 25.046875 9.191406 25.261719 10.070312 25.382812 C 10.976562 25.503906 12.179688 25.503906 13.902344 25.503906 L 16.304688 25.503906 C 18.027344 25.503906 19.226562 25.503906 20.132812 25.382812 C 21.015625 25.261719 21.480469 25.046875 21.8125 24.714844 C 21.996094 24.53125 22.144531 24.308594 22.257812 24 L 20 21.613281 C 19.394531 20.976562 18.5625 20.933594 17.925781 21.457031 L 17.660156 21.675781 C 16.5625 22.582031 15.046875 22.402344 14.136719 21.335938 L 10.34375 16.886719 C 9.921875 16.394531 9.324219 16.382812 8.894531 16.820312 Z M 22.578125 21.71875 L 21.308594 20.375 C 20.074219 19.074219 18.167969 18.925781 16.78125 20.070312 L 16.515625 20.285156 C 16.210938 20.539062 15.808594 20.523438 15.507812 20.164062 L 11.710938 15.71875 C 10.617188 14.433594 8.789062 14.351562 7.605469 15.566406 L 7.601562 15.570312 L 7.601562 9.601562 C 7.601562 7.878906 7.601562 6.675781 7.726562 5.769531 C 7.84375 4.890625 8.058594 4.421875 8.390625 4.089844 C 8.722656 3.757812 9.191406 3.542969 10.070312 3.425781 C 10.976562 3.300781 12.179688 3.300781 13.902344 3.300781 L 16.304688 3.300781 C 18.027344 3.300781 19.226562 3.300781 20.132812 3.425781 C 21.015625 3.542969 21.480469 3.757812 21.8125 4.089844 C 22.144531 4.421875 22.363281 4.890625 22.480469 5.769531 C 22.601562 6.675781 22.605469 7.878906 22.605469 9.601562 L 22.605469 19.203125 C 22.605469 20.203125 22.601562 21.027344 22.578125 21.71875 Z M 24.34375 22.488281 C 24.375 22.488281 24.40625 22.484375 24.433594 22.476562 C 25.332031 22.335938 26.035156 21.632812 26.179688 20.734375 C 26.203125 20.585938 26.203125 20.394531 26.203125 19.804688 L 26.203125 9 C 26.203125 8.410156 26.203125 8.21875 26.179688 8.074219 C 26.035156 7.175781 25.332031 6.46875 24.433594 6.328125 C 24.40625 6.324219 24.375 6.320312 24.34375 6.316406 C 24.40625 7.214844 24.40625 8.28125 24.40625 9.535156 L 24.40625 19.269531 C 24.40625 20.523438 24.40625 21.589844 24.34375 22.488281 Z M 18.101562 6.902344 C 17.605469 6.902344 17.203125 7.304688 17.203125 7.800781 C 17.203125 8.296875 17.605469 8.703125 18.101562 8.703125 C 18.601562 8.703125 19.003906 8.296875 19.003906 7.800781 C 19.003906 7.304688 18.601562 6.902344 18.101562 6.902344 Z M 15.402344 7.800781 C 15.402344 6.308594 16.613281 5.101562 18.101562 5.101562 C 19.59375 5.101562 20.804688 6.308594 20.804688 7.800781 C 20.804688 9.292969 19.59375 10.503906 18.101562 10.503906 C 16.613281 10.503906 15.402344 9.292969 15.402344 7.800781 Z M 15.402344 7.800781 " fill-opacity="1" fill-rule="evenodd"/></svg>